<?xml version="1.0" encoding="UTF-8" standalone="no"?>
<!DOCTYPE svg PUBLIC "-//W3C//DTD SVG 1.1//EN" "http://www.w3.org/Graphics/SVG/1.1/DTD/svg11.dtd">
<svg width="100%" height="100%" viewBox="0 0 480 73" version="1.1" xmlns="http://www.w3.org/2000/svg" xmlns:xlink="http://www.w3.org/1999/xlink" xml:space="preserve" style="fill-rule:evenodd;clip-rule:evenodd;stroke-linejoin:round;stroke-miterlimit:1.41421;">
    <g>
        <path d="M394.287,36.738C391.889,42.101 386.928,51.765 378.725,51.758C378.178,51.758 373.569,51.75 372.92,47.758C372.662,46.516 373.022,44.953 373.139,44.446C374.092,40.266 378.162,32.483 381.741,28.804C385.218,25.249 388.905,24.505 390.71,24.505C397.343,24.515 396.648,29.571 396.171,31.634C395.787,33.307 395.076,35.061 394.287,36.738M409.365,42.25C411.076,39.197 412.42,36.082 413.131,33.021C414.022,29.158 414.24,24.1 410.334,20.041C406.85,16.482 399.92,15.352 394.217,15.344C386.49,15.332 379.826,16.758 374.365,19.75C361.701,26.527 357.232,39.502 356.381,43.555C355.061,49.289 355.147,55.719 363.108,59.164C365.03,59.976 367.038,60.414 369.147,60.734C371.256,61.109 373.491,61.234 375.764,61.242C387.709,61.258 394.405,57.328 397.052,55.648C402.998,51.914 406.779,46.68 409.365,42.25" style="fill:rgb(51,62,72);fill-rule:nonzero;"/>
        <path d="M115.953,58.602C112.924,59.719 108.795,60.75 102.922,60.743C86.777,60.72 81.683,52.352 84.099,41.196C86.846,28.467 99.199,14.823 119.525,14.846C122.312,14.854 124.976,15.104 127.566,15.676C130.805,16.295 132.349,17.143 134.25,18.207L128.512,28.54C128.512,28.54 124.951,25.086 118.998,25.079C107.924,25.063 101.465,34.918 100.269,40.399C98.848,47.016 102.375,50.696 109.346,50.711C114.701,50.719 119.023,48.703 121.65,47.406C121.65,47.406 116.758,56.914 115.953,58.602" style="fill:rgb(51,62,72);fill-rule:nonzero;"/>
        <path d="M152.016,60.008L119.96,60L125.954,47.18L130.718,36.955C135.042,27.223 136.156,24.623 139.827,15.77L170.708,15.778L166,25L150.371,25.008L146.746,32.92L162.059,32.92L157.516,41.672L142.965,41.649L141.539,44.711L139.008,50.188L157.202,50.18L152.016,60.008Z" style="fill:rgb(51,62,72);fill-rule:nonzero;"/>
        <path d="M188.988,60.008L194.037,50.18L176.617,50.188L192.767,15.77L177.244,15.77L157.504,60.016L188.988,60.008Z" style="fill:rgb(51,62,72);fill-rule:nonzero;"/>
        <path d="M237.387,46.914C238.082,47.851 239,48.781 240.203,49.602C242.851,51.282 245.976,51.672 247.873,51.672C253.381,51.68 255.475,49 255.803,47.375C256.264,45.07 254.248,43.945 251.389,42.258L249.381,41.063C246.231,39.19 241.817,36.438 243.117,29.954C244.137,24.839 247.529,21.47 248.912,20.358C253.904,16.118 260.029,15.069 264.99,15.077C272.459,15.085 277.232,17.456 279.498,18.632L274.342,28.811L274.334,28.804C273.67,28.056 272.584,27.003 271.811,26.436C269.623,24.817 266.491,24.186 264.725,24.186C261.397,24.177 258.881,25.862 258.459,27.979C258.084,29.853 259.318,31.163 263.24,33.284L264.467,33.979C267.334,35.606 272.756,38.729 271.405,45.47C269.616,54.392 260.686,60.986 247.507,60.962C243.907,60.962 240.396,60.524 237.066,59.517C234.888,58.829 233.658,58.173 232.197,57.298L237.387,46.914Z" style="fill:rgb(51,62,72);fill-rule:nonzero;"/>
        <path d="M285.357,16.035L280.506,25.711L292.146,25.711L276.1,60.258L291.084,60.242L306.537,25.711L316.834,25.723L321.607,16.035L285.357,16.035Z" style="fill:rgb(51,62,72);fill-rule:nonzero;"/>
        <path d="M326.615,16.023C322.786,26.007 321.584,28.818 316.553,39.661L313.053,47.336L307.014,60.266L321.725,60.258C324.905,52.211 325.811,49.914 328.655,43.805L331.147,43.867L334.709,60.258L350.357,60.235L344.584,41.58C347.623,40.649 351.036,39.526 354.467,35.983C356.889,33.426 358.311,30.373 358.928,27.252C359.936,22.258 358.061,19.387 355.576,17.887C352.67,16.133 348.264,16.063 341.279,15.994L326.615,16.023M344.264,28.598C344.17,29.034 343.545,31.155 342.092,32.655C339.436,35.397 336.1,35.389 333.584,35.381L332.498,35.381L335.943,28.026L337.396,24.846L338.755,24.846C341.13,24.854 342.333,24.987 343.153,25.604C344.115,26.229 344.498,27.417 344.264,28.598" style="fill:rgb(51,62,72);fill-rule:nonzero;"/>
        <path d="M455.826,16.016L445.17,40.033C444.162,37.23 437.568,16.015 437.568,16.015L425.857,15.993C423.137,22.786 406.31,60.296 406.31,60.296L419.591,60.296L430.466,33.853L438.888,60.204L448.482,60.204L468.154,15.996L455.826,16.016Z" style="fill:rgb(51,62,72);fill-rule:nonzero;"/>
        <path d="M226.109,60.008L194.06,60L200.048,47.18L204.816,36.955C209.142,27.223 210.248,24.623 213.921,15.77L244.808,15.778L240.098,25L224.469,25.008L220.85,32.92L236.151,32.92L231.61,41.672L217.057,41.649L215.63,44.711L213.11,50.188L231.296,50.18L226.109,60.008Z" style="fill:rgb(51,62,72);fill-rule:nonzero;"/>
        <path d="M472.443,20.23C472.443,18.338 473.865,16.912 475.693,16.912C477.505,16.912 478.92,18.338 478.92,20.23C478.92,22.154 477.506,23.57 475.693,23.57C473.865,23.57 472.443,22.154 472.443,20.23M475.693,24.236C477.873,24.236 479.732,22.549 479.732,20.23C479.732,17.943 477.873,16.256 475.693,16.256C473.505,16.256 471.638,17.943 471.638,20.23C471.639,22.549 473.506,24.236 475.693,24.236M474.85,20.551L475.655,20.551L476.874,22.549L477.647,22.549L476.35,20.523C477.014,20.436 477.53,20.072 477.53,19.248C477.53,18.338 476.999,17.943 475.912,17.943L474.163,17.943L474.163,22.549L474.851,22.549L474.851,20.551L474.85,20.551ZM474.85,19.957L474.85,18.531L475.803,18.531C476.286,18.531 476.803,18.643 476.803,19.207C476.803,19.918 476.28,19.957 475.694,19.957L474.85,19.957Z" style="fill:rgb(51,62,72);fill-rule:nonzero;"/>
        <path d="M50.945,69.203C46.437,71.226 41.435,72.344 36.174,72.344C16.197,72.344 0,56.156 0,36.176C0,16.193 16.197,0 36.174,0C41.619,0 46.779,1.203 51.412,3.361C31.545,3.222 11.73,13.256 9.799,28.732C6.871,52.227 32.435,64.023 50.945,69.203" style="fill:rgb(255,131,0);fill-rule:nonzero;"/>
        <path d="M67.387,54.461C64.762,54.149 61.778,53.664 59.047,52.883C44.912,48.867 21.522,39.178 23.344,22.309C24.573,11.004 38.938,4.592 55.646,5.676C65.687,12.111 72.351,23.363 72.351,36.176C72.352,42.836 70.539,49.094 67.387,54.461" style="fill:rgb(255,131,0);fill-rule:nonzero;"/>
    </g>
</svg>
