<?xml version="1.0" standalone="no"?>
<!DOCTYPE svg PUBLIC "-//W3C//DTD SVG 1.1//EN" "http://www.w3.org/Graphics/SVG/1.1/DTD/svg11.dtd">
<svg width="100%" height="100%" viewBox="0 0 1062 498" version="1.1" xmlns="http://www.w3.org/2000/svg" xmlns:xlink="http://www.w3.org/1999/xlink" xml:space="preserve" style="fill-rule:evenodd;clip-rule:evenodd;stroke-miterlimit:10;">
    <g id="Layer 1">
        <path d="M237.944,295.866C231.672,297.16 225.229,295.473 219.603,292.6C201.739,283.477 189.13,264.574 179.666,247.574C165.691,222.469 156.307,194.537 151.257,166.293C147.036,142.686 144.906,116.395 152.276,93.157C154.661,85.638 158.347,77.926 164.632,72.892C172.934,66.243 183.656,67.155 192.71,71.898C196.044,73.645 199.153,75.806 202.071,78.178" style="fill:none;stroke-width:2px;stroke:black;"/>
        <path d="M238.926,295.638C238.599,295.722 238.272,295.798 237.944,295.866" style="fill:none;stroke-width:2px;stroke:black;"/>
        <path d="M258.264,275.036C255.72,281.616 251.782,288.282 245.97,292.36" style="fill:none;stroke-width:2px;stroke:black;"/>
        <path d="M262.376,254.383C261.907,257.196 260.593,264.351 259.871,267.111" style="fill:none;stroke-width:2px;stroke:black;"/>
        <path d="M263.168,236.711C263.148,239.957 263.036,243.111 262.833,246.163" style="fill:none;stroke-width:2px;stroke:black;"/>
        <path d="M262.589,220.91C262.779,223.386 262.922,225.826 263.019,228.224" style="fill:none;stroke-width:2px;stroke:black;"/>
        <path d="M261.08,207.011C261.334,208.831 261.564,210.635 261.771,212.424" style="fill:none;stroke-width:2px;stroke:black;"/>
        <path d="M258.955,194.222C259.229,195.643 259.489,197.057 259.735,198.465" style="fill:none;stroke-width:2px;stroke:black;"/>
        <path d="M256.311,182.019C256.607,183.249 256.894,184.475 257.17,185.697" style="fill:none;stroke-width:2px;stroke:black;"/>
        <path d="M253.572,171.542C253.824,172.435 254.07,173.327 254.313,174.218" style="fill:none;stroke-width:2px;stroke:black;"/>
        <path d="M250.105,160.163C250.49,161.338 250.869,162.52 251.241,163.71" style="fill:none;stroke-width:2px;stroke:black;"/>
        <path d="M247.374,152.346C247.544,152.815 247.711,153.285 247.877,153.757" style="fill:none;stroke-width:2px;stroke:black;"/>
        <path d="M244.115,143.659C244.271,144.048 244.426,144.438 244.58,144.829" style="fill:none;stroke-width:2px;stroke:black;"/>
        <path d="M205.699,385.729C205.256,386.103 204.814,386.47 204.373,386.831" style="fill:none;stroke-width:2px;stroke:black;"/>
        <path d="M213.979,378.051C213.066,378.972 212.155,379.866 211.247,380.734" style="fill:none;stroke-width:2px;stroke:black;"/>
        <path d="M222.249,369.064C221.189,370.299 220.129,371.502 219.07,372.671" style="fill:none;stroke-width:2px;stroke:black;"/>
        <path d="M239.434,346.221C235.338,352.362 231.176,358.078 227.002,363.314" style="fill:none;stroke-width:2px;stroke:black;"/>
        <path d="M254.877,320.187C251.565,326.305 248.167,332.165 244.8,337.639" style="fill:none;stroke-width:2px;stroke:black;"/>
        <path d="M262.206,305.89C261.029,308.322 259.828,310.731 258.607,313.11" style="fill:none;stroke-width:2px;stroke:black;"/>
        <path d="M153.47,347.075C155.702,322.097 164.19,289.839 178.547,257.685C208.359,190.917 252.19,145.57 276.446,156.401C300.703,167.231 295.563,231.551 265.751,298.32C265.465,298.96 265.751,298.32 265.751,298.32" style="fill:none;stroke-width:2px;stroke:black;"/>
        <path d="M204.233,354.253C196.182,369.022 188.279,382.456 181.055,393.787" style="fill:none;stroke-width:2px;stroke:black;"/>
        <path d="M197.109,309.493C221.376,265.566 243.839,234.517 249.763,237.606C256.473,241.104 239.433,287.053 211.705,340.235C210.568,342.416 209.431,344.575 208.295,346.71" style="fill:none;stroke-width:2px;stroke:black;"/>
        <path d="M161.07,383.316C167.861,366.907 176.948,347.457 187.602,326.943C189.201,323.864 190.8,320.828 192.397,317.84" style="fill:none;stroke-width:2px;stroke:black;"/>
        <path d="M319.183,269.903C319.581,270.272 319.965,270.657 320.335,271.059" style="fill:none;stroke-width:2px;stroke:black;"/>
        <path d="M310.702,263.582C311.502,264.045 312.284,264.54 313.042,265.065" style="fill:none;stroke-width:2px;stroke:black;"/>
        <path d="M298.81,258.172C300.672,258.792 302.506,259.496 304.303,260.285" style="fill:none;stroke-width:2px;stroke:black;"/>
        <path d="M282.739,254.767C285.545,255.065 288.336,255.5 291.096,256.087" style="fill:none;stroke-width:2px;stroke:black;"/>
        <path d="M262.444,254.681C266.838,254.307 271.252,254.162 275.66,254.295" style="fill:none;stroke-width:2px;stroke:black;"/>
        <path d="M229.053,266.573C230.964,264.996 233.397,263.404 235.666,262.162C241.428,259.008 247.358,257.107 253.778,255.816" style="fill:none;stroke-width:2px;stroke:black;"/>
        <path d="M233.872,311.992C226.326,305.961 220.716,296.509 220.007,286.782C219.59,281.055 221.166,276.16 224.05,272.047" style="fill:none;stroke-width:2px;stroke:black;"/>
        <path d="M255.802,322.423C250.186,320.921 244.697,318.836 239.658,315.917" style="fill:none;stroke-width:2px;stroke:black;"/>
        <path d="M272.992,325.26C269.981,325.043 266.98,324.688 264.002,324.191" style="fill:none;stroke-width:2px;stroke:black;"/>
        <path d="M287.236,325.502C285.252,325.57 283.266,325.598 281.281,325.584" style="fill:none;stroke-width:2px;stroke:black;"/>
        <path d="M298.837,323.765C297.66,324.033 296.477,324.272 295.289,324.484" style="fill:none;stroke-width:2px;stroke:black;"/>
        <path d="M310.87,319.811C309.369,320.479 307.84,321.085 306.289,321.628" style="fill:none;stroke-width:2px;stroke:black;"/>
        <path d="M134.015,207.561C133.381,207.018 132.748,206.475 132.114,205.932" style="fill:none;stroke-width:2px;stroke:black;"/>
        <path d="M141.361,213.821C140.77,213.32 140.18,212.818 139.589,212.316" style="fill:none;stroke-width:2px;stroke:black;"/>
        <path d="M150.117,221.215C149.218,220.459 148.319,219.703 147.421,218.946" style="fill:none;stroke-width:2px;stroke:black;"/>
        <path d="M159.694,229.213C158.453,228.183 157.213,227.151 155.975,226.118" style="fill:none;stroke-width:2px;stroke:black;"/>
        <path d="M171.172,238.668C169.204,237.06 167.239,235.448 165.278,233.831" style="fill:none;stroke-width:2px;stroke:black;"/>
        <path d="M183.637,248.762C181.443,247.002 179.254,245.237 177.069,243.467" style="fill:none;stroke-width:2px;stroke:black;"/>
        <path d="M198.365,260.47C196.035,258.628 193.711,256.782 191.39,254.943C190.713,254.407 190.037,253.87 189.361,253.333" style="fill:none;stroke-width:2px;stroke:black;"/>
        <path d="M212.043,261.351C219.294,267.848 226.26,274.315 232.503,281.667C233.08,282.346 235.822,285.039 234.534,285.719C233.204,286.42 228.277,282.487 227.331,281.866C219.68,276.839 212.309,271.349 205.056,265.718" style="fill:none;stroke-width:2px;stroke:black;"/>
        <path d="M192.162,243.615C195.815,246.838 199.452,250.078 203.072,253.337C204.091,254.254 205.464,255.353 206.493,256.27" style="fill:none;stroke-width:2px;stroke:black;"/>
        <path d="M178.287,231.513C181.313,234.124 184.33,236.745 187.337,239.376" style="fill:none;stroke-width:2px;stroke:black;"/>
        <path d="M165.688,220.737C167.854,222.574 170.017,224.416 172.176,226.263" style="fill:none;stroke-width:2px;stroke:black;"/>
        <path d="M155.009,211.737C156.389,212.893 157.768,214.051 159.146,215.211" style="fill:none;stroke-width:2px;stroke:black;"/>
        <path d="M85.57,163.308C80.871,158.411 73.871,155.411 71.871,148.411C74.871,148.411 76.871,150.411 78.871,151.411C104.871,169.411 125.871,187.411 149.138,206.835" style="fill:none;stroke-width:2px;stroke:black;"/>
        <path d="M251.224,277.799C247.777,283.316 243.415,286.611 238.67,286.611C227.514,286.611 218.47,268.389 218.47,245.911C218.47,238.501 219.453,231.554 221.17,225.569" style="fill:none;stroke-width:2px;stroke:black;"/>
        <path d="M257.71,259.536C256.989,263.63 255.951,267.422 254.656,270.793" style="fill:none;stroke-width:2px;stroke:black;"/>
        <path d="M258.053,234.411C258.585,238.058 258.871,241.917 258.871,245.911C258.871,247.921 258.798,249.898 258.658,251.83" style="fill:none;stroke-width:2px;stroke:black;"/>
        <path d="M208.676,354.033C209.346,354.563 210.036,355.053 210.743,355.499" style="fill:none;stroke-width:2px;stroke:black;"/>
        <path d="M197.109,335.499C197.484,336.749 197.9,337.963 198.354,339.138" style="fill:none;stroke-width:2px;stroke:black;"/>
        <path d="M194.689,319.49C194.745,322.38 194.989,325.192 195.405,327.895" style="fill:none;stroke-width:2px;stroke:black;"/>
        <path d="M197.784,297.33C196.543,301.128 195.611,305.19 195.047,309.442" style="fill:none;stroke-width:2px;stroke:black;"/>
        <path d="M223.27,269.086C214.794,270.874 206.969,277.965 201.615,288.191" style="fill:none;stroke-width:2px;stroke:black;"/>
        <path d="M252.072,292.668C248.398,280.068 240.647,270.814 230.954,268.809" style="fill:none;stroke-width:2px;stroke:black;"/>
        <path d="M228.046,357.961C240.732,353.689 251.494,337.615 253.913,317.387C254.464,312.771 254.524,308.254 254.151,303.946" style="fill:none;stroke-width:2px;stroke:black;"/>
        <path d="M218.047,358.795C218.374,358.851 218.704,358.899 219.035,358.939C219.711,359.019 219.652,359.123 220.325,359.135" style="fill:none;stroke-width:2px;stroke:black;"/>
        <path d="M206.67,80.411C206.85,80.411 207.021,80.441 207.195,80.464C206.843,78.557 205.178,77.111 203.17,77.111C200.906,77.111 199.07,78.947 199.07,81.211C199.07,83.296 200.631,84.998 202.645,85.258C202.6,85.015 202.57,84.767 202.57,84.511C202.57,82.247 204.406,80.411 206.67,80.411Z" style="fill:none;stroke-width:1px;stroke:black;"/>
        <path d="M209.97,83.611C210.213,83.611 210.448,83.642 210.68,83.683C210.329,81.99 208.933,80.688 207.195,80.464C207.021,80.441 206.85,80.411 206.67,80.411C204.406,80.411 202.57,82.247 202.57,84.511C202.57,84.767 202.6,85.015 202.645,85.258C202.955,86.933 204.278,88.251 205.956,88.547C205.9,88.277 205.87,87.998 205.87,87.711C205.87,85.447 207.706,83.611 209.97,83.611Z" style="fill:none;stroke-width:1px;stroke:black;"/>
        <path d="M213.47,86.911C213.65,86.911 213.821,86.942 213.995,86.964C213.685,85.288 212.361,83.977 210.68,83.683C210.448,83.642 210.213,83.611 209.97,83.611C207.706,83.611 205.87,85.447 205.87,87.711C205.87,87.998 205.9,88.277 205.956,88.547C206.307,90.241 207.708,91.534 209.445,91.758C209.4,91.515 209.37,91.267 209.37,91.011C209.37,88.747 211.206,86.911 213.47,86.911Z" style="fill:none;stroke-width:1px;stroke:black;"/>
        <path d="M216.97,91.911C217.134,91.911 217.29,91.941 217.449,91.959C217.522,91.654 217.57,91.339 217.57,91.011C217.57,88.926 216.009,87.224 213.995,86.964C213.821,86.942 213.65,86.911 213.47,86.911C211.206,86.911 209.37,88.747 209.37,91.011C209.37,91.267 209.4,91.515 209.445,91.758C209.769,93.509 211.203,94.852 212.991,95.063C213.421,93.258 215.033,91.911 216.97,91.911Z" style="fill:none;stroke-width:1px;stroke:black;"/>
        <path d="M220.47,96.811C220.644,96.811 220.81,96.841 220.979,96.862C221.037,96.587 221.07,96.303 221.07,96.011C221.07,93.911 219.485,92.199 217.449,91.959C217.29,91.941 217.134,91.911 216.97,91.911C215.033,91.911 213.421,93.258 212.991,95.063C212.918,95.368 212.87,95.683 212.87,96.011C212.87,98.101 214.44,99.806 216.461,100.06C216.853,98.204 218.498,96.811 220.47,96.811Z" style="fill:none;stroke-width:1px;stroke:black;"/>
        <path d="M224.429,101.925C224.512,101.599 224.571,101.263 224.571,100.911C224.571,98.821 223.001,97.115 220.98,96.862C220.811,96.841 220.645,96.811 220.471,96.811C218.499,96.811 216.854,98.204 216.462,100.059C216.404,100.334 216.371,100.618 216.371,100.911C216.371,103.175 218.206,105.011 220.471,105.011C220.519,105.011 220.564,104.998 220.612,104.996C221.054,103.271 222.581,101.989 224.429,101.925Z" style="fill:none;stroke-width:1px;stroke:black;"/>
        <path d="M228.17,107.911C228.174,107.911 228.178,107.912 228.182,107.912C228.483,107.342 228.67,106.701 228.67,106.011C228.67,103.747 226.834,101.911 224.57,101.911C224.522,101.911 224.476,101.924 224.428,101.925C222.58,101.99 221.054,103.271 220.612,104.997C220.528,105.323 220.47,105.659 220.47,106.011C220.47,108.271 222.299,110.103 224.558,110.11C225.245,108.808 226.596,107.911 228.17,107.911Z" style="fill:none;stroke-width:1px;stroke:black;"/>
        <path d="M231.17,114.011C231.351,114.011 231.524,114.042 231.7,114.064C232.053,113.459 232.27,112.763 232.27,112.011C232.27,109.751 230.441,107.919 228.182,107.912C228.178,107.912 228.174,107.911 228.17,107.911C226.596,107.911 225.245,108.808 224.558,110.11C224.257,110.68 224.07,111.321 224.07,112.011C224.07,114.094 225.629,115.795 227.641,116.058C228.351,114.839 229.658,114.011 231.17,114.011Z" style="fill:none;stroke-width:1px;stroke:black;"/>
        <path d="M235.27,118.111C235.27,116.028 233.711,114.327 231.7,114.064C231.524,114.042 231.351,114.011 231.17,114.011C229.658,114.011 228.351,114.839 227.64,116.058C227.287,116.663 227.07,117.359 227.07,118.111C227.07,120.375 228.906,122.211 231.17,122.211C231.452,122.211 231.728,122.182 231.994,122.128C232.516,121.674 233.143,121.338 233.846,121.194C234.711,120.442 235.27,119.347 235.27,118.111Z" style="fill:none;stroke-width:1px;stroke:black;"/>
        <path d="M238.77,125.211C238.77,122.947 236.934,121.111 234.67,121.111C234.388,121.111 234.112,121.14 233.846,121.194C233.143,121.338 232.516,121.674 231.994,122.128C231.129,122.88 230.57,123.975 230.57,125.211C230.57,127.475 232.406,129.311 234.67,129.311C236.934,129.311 238.77,127.475 238.77,125.211Z" style="fill:none;stroke-width:1px;stroke:black;"/>
        <path d="M238.77,128.411C236.506,128.411 234.67,130.247 234.67,132.511C234.67,134.775 236.506,136.611 238.77,136.611C241.034,136.611 242.87,134.775 242.87,132.511C242.87,130.247 241.034,128.411 238.77,128.411Z" style="fill:none;stroke-width:1px;stroke:black;"/>
        <path d="M242.07,136.011C244.334,136.011 246.17,137.847 246.17,140.111C246.17,142.375 244.334,144.211 242.07,144.211C239.806,144.211 237.97,142.375 237.97,140.111C237.97,137.847 239.806,136.011 242.07,136.011Z" style="fill:none;stroke-width:1px;stroke:black;"/>
        <path d="M247.415,152.342C246.77,152.765 245.999,153.011 245.17,153.011C242.906,153.011 241.07,151.175 241.07,148.911C241.07,146.646 242.906,144.811 245.17,144.811" style="fill:none;stroke-width:1px;stroke:black;"/>
        <path d="M245.17,144.811C247.434,144.811 249.27,146.647 249.27,148.911C249.27,150.347 248.532,151.61 247.415,152.342" style="fill:none;stroke-width:1px;stroke:black;"/>
        <path d="M247.949,153.758C248.152,153.727 248.359,153.711 248.57,153.711C250.835,153.711 252.67,155.546 252.67,157.811C252.67,160.076 250.835,161.91 248.57,161.91C246.306,161.91 244.47,160.076 244.47,157.811C244.47,155.758 245.979,154.057 247.949,153.758" style="fill:none;stroke-width:1px;stroke:black;"/>
        <path d="M252.07,163.711C254.334,163.711 256.17,165.547 256.17,167.811C256.17,170.075 254.334,171.911 252.07,171.911C249.806,171.911 247.97,170.075 247.97,167.811C247.97,165.547 249.806,163.711 252.07,163.711Z" style="fill:none;stroke-width:1px;stroke:black;"/>
        <path d="M254.311,174.219C254.397,174.214 254.483,174.211 254.571,174.211C256.835,174.211 258.671,176.047 258.671,178.311C258.671,180.575 256.835,182.411 254.571,182.411C252.306,182.411 250.471,180.575 250.471,178.311C250.471,176.134 252.168,174.353 254.311,174.219" style="fill:none;stroke-width:1px;stroke:black;"/>
        <path d="M257.67,186.011C259.934,186.011 261.77,187.847 261.77,190.111C261.77,192.375 259.934,194.211 257.67,194.211C255.406,194.211 253.57,192.375 253.57,190.111C253.57,187.847 255.406,186.011 257.67,186.011Z" style="fill:none;stroke-width:1px;stroke:black;"/>
        <path d="M260.27,198.811C262.534,198.811 264.37,200.647 264.37,202.911C264.37,205.175 262.534,207.011 260.27,207.011C258.006,207.011 256.17,205.175 256.17,202.911C256.17,200.647 258.006,198.811 260.27,198.811Z" style="fill:none;stroke-width:1px;stroke:black;"/>
        <path d="M261.77,212.711C264.034,212.711 265.87,214.547 265.87,216.811C265.87,219.075 264.034,220.911 261.77,220.911C259.506,220.911 257.67,219.075 257.67,216.811C257.67,214.547 259.506,212.711 261.77,212.711Z" style="fill:none;stroke-width:1px;stroke:black;"/>
        <path d="M279.17,251.211C281.434,251.211 283.27,253.047 283.27,255.311C283.27,257.575 281.434,259.411 279.17,259.411C276.906,259.411 275.07,257.575 275.07,255.311C275.07,253.047 276.906,251.211 279.17,251.211Z" style="fill:none;stroke-width:1px;stroke:black;"/>
        <path d="M294.67,254.111C296.934,254.111 298.77,255.947 298.77,258.211C298.77,260.475 296.934,262.311 294.67,262.311C292.406,262.311 290.57,260.475 290.57,258.211C290.57,255.947 292.406,254.111 294.67,254.111Z" style="fill:none;stroke-width:1px;stroke:black;"/>
        <path d="M306.57,259.511C308.834,259.511 310.67,261.347 310.67,263.611C310.67,265.875 308.834,267.711 306.57,267.711C304.306,267.711 302.47,265.875 302.47,263.611C302.47,261.347 304.306,259.511 306.57,259.511Z" style="fill:none;stroke-width:1px;stroke:black;"/>
        <path d="M315.67,264.111C317.934,264.111 319.77,265.947 319.77,268.211C319.77,270.475 317.934,272.311 315.67,272.311C313.406,272.311 311.57,270.475 311.57,268.211C311.57,265.947 313.406,264.111 315.67,264.111Z" style="fill:none;stroke-width:1px;stroke:black;"/>
        <path d="M320.378,271.011C319.287,271.748 318.57,272.996 318.57,274.411C318.57,276.675 320.406,278.511 322.67,278.511C323.306,278.511 323.9,278.354 324.436,278.096C324.811,277.648 325.272,277.281 325.804,277.025C326.399,276.314 326.77,275.41 326.77,274.411C326.77,272.146 324.935,270.311 322.67,270.311C321.821,270.311 321.032,270.569 320.378,271.011" style="fill:none;stroke-width:1px;stroke:black;"/>
        <path d="M330.87,282.411C331.007,282.411 331.136,282.438 331.269,282.451C331.519,281.921 331.67,281.336 331.67,280.711C331.67,278.447 329.834,276.611 327.57,276.611C326.935,276.611 326.341,276.768 325.804,277.025C325.272,277.281 324.81,277.648 324.436,278.096C323.842,278.808 323.47,279.712 323.47,280.711C323.47,282.838 325.097,284.567 327.171,284.771C327.826,283.38 329.23,282.411 330.87,282.411Z" style="fill:none;stroke-width:1px;stroke:black;"/>
        <path d="M331.67,287.711C332.687,287.711 333.605,288.095 334.322,288.708C334.727,288.072 334.97,287.321 334.97,286.511C334.97,284.383 333.344,282.655 331.269,282.451C331.136,282.438 331.007,282.411 330.87,282.411C329.23,282.411 327.826,283.38 327.171,284.771C326.921,285.301 326.77,285.886 326.77,286.511C326.77,287.759 327.339,288.862 328.218,289.614C328.946,288.473 330.216,287.711 331.67,287.711Z" style="fill:none;stroke-width:1px;stroke:black;"/>
        <path d="M334.326,294.911C335.203,294.159 335.77,293.057 335.77,291.811C335.77,290.563 335.201,289.46 334.322,288.708C333.606,288.095 332.687,287.711 331.67,287.711C330.216,287.711 328.946,288.473 328.219,289.614C327.813,290.25 327.57,291.001 327.57,291.811C327.57,293.057 328.138,294.159 329.015,294.911C329.732,294.296 330.652,293.911 331.67,293.911C332.689,293.911 333.609,294.296 334.326,294.911Z" style="fill:none;stroke-width:1px;stroke:black;"/>
        <path d="M334.326,294.911C333.609,294.296 332.689,293.911 331.67,293.911C330.652,293.911 329.732,294.296 329.015,294.911C328.138,295.663 327.57,296.765 327.57,298.011C327.57,298.872 327.838,299.669 328.291,300.328C328.777,300.125 329.31,300.011 329.87,300.011C331.274,300.011 332.511,300.718 333.25,301.794C334.73,301.175 335.77,299.715 335.77,298.011C335.77,296.765 335.203,295.663 334.326,294.911Z" style="fill:none;stroke-width:1px;stroke:black;"/>
        <path d="M329.87,300.011C329.31,300.011 328.777,300.125 328.291,300.328C326.811,300.947 325.77,302.407 325.77,304.111C325.77,304.423 325.812,304.723 325.877,305.015C326.166,304.951 326.463,304.911 326.77,304.911C328.723,304.911 330.35,306.279 330.763,308.107C332.597,307.699 333.97,306.068 333.97,304.111C333.97,303.25 333.703,302.454 333.249,301.794C332.51,300.718 331.274,300.011 329.87,300.011Z" style="fill:none;stroke-width:1px;stroke:black;"/>
        <path d="M326.77,304.911C326.463,304.911 326.166,304.951 325.877,305.015C324.043,305.423 322.67,307.054 322.67,309.011C322.67,309.444 322.755,309.853 322.88,310.244C324.11,310.661 325.067,311.637 325.46,312.878C325.874,313.018 326.309,313.111 326.77,313.111C329.034,313.111 330.87,311.275 330.87,309.011C330.87,308.699 330.828,308.399 330.763,308.107C330.35,306.279 328.723,304.911 326.77,304.911Z" style="fill:none;stroke-width:1px;stroke:black;"/>
        <path d="M322.88,310.244C322.467,310.104 322.031,310.011 321.57,310.011C319.306,310.011 317.47,311.846 317.47,314.111C317.47,316.375 319.306,318.211 321.57,318.211C323.835,318.211 325.67,316.375 325.67,314.111C325.67,313.678 325.585,313.269 325.461,312.877C325.067,311.637 324.11,310.661 322.88,310.244Z" style="fill:none;stroke-width:1px;stroke:black;"/>
        <path d="M310.72,319.432C310.687,319.223 310.67,319.009 310.67,318.791C310.67,316.527 312.506,314.691 314.77,314.691C317.035,314.691 318.87,316.527 318.87,318.791C318.87,321.055 317.035,322.891 314.77,322.891C312.724,322.891 311.028,321.392 310.72,319.432" style="fill:none;stroke-width:1px;stroke:black;"/>
        <path d="M306.363,321.608C306.809,322.264 307.07,323.057 307.07,323.911C307.07,326.175 305.235,328.011 302.97,328.011C300.706,328.011 298.87,326.175 298.87,323.911C298.87,321.646 300.706,319.811 302.97,319.811C304.381,319.811 305.625,320.523 306.363,321.608" style="fill:none;stroke-width:1px;stroke:black;"/>
        <path d="M291.57,321.411C293.834,321.411 295.67,323.247 295.67,325.511C295.67,327.775 293.834,329.611 291.57,329.611C289.306,329.611 287.47,327.775 287.47,325.511C287.47,323.247 289.306,321.411 291.57,321.411Z" style="fill:none;stroke-width:1px;stroke:black;"/>
        <path d="M264.67,299.011C266.934,299.011 268.77,300.847 268.77,303.111C268.77,305.375 266.934,307.211 264.67,307.211C262.406,307.211 260.57,305.375 260.57,303.111C260.57,300.847 262.406,299.011 264.67,299.011Z" style="fill:none;stroke-width:1px;stroke:black;"/>
        <path d="M277.27,322.011C279.534,322.011 281.37,323.847 281.37,326.111C281.37,328.375 279.534,330.211 277.27,330.211C275.006,330.211 273.17,328.375 273.17,326.111C273.17,323.847 275.006,322.011 277.27,322.011Z" style="fill:none;stroke-width:1px;stroke:black;"/>
        <path d="M252.82,296.168C254.235,296.168 255.482,296.885 256.219,297.974C256.338,297.591 256.42,297.191 256.42,296.768C256.42,294.504 254.584,292.668 252.32,292.668C250.056,292.668 248.22,294.504 248.22,296.768C248.22,297.618 248.479,298.407 248.921,299.062C249.439,297.39 250.978,296.168 252.82,296.168Z" style="fill:none;stroke-width:1px;stroke:black;"/>
        <path d="M256.219,297.974C255.482,296.884 254.235,296.168 252.82,296.168C250.979,296.168 249.439,297.39 248.922,299.061C248.803,299.445 248.72,299.845 248.72,300.268C248.72,302.532 250.556,304.368 252.82,304.368C255.085,304.368 256.92,302.532 256.92,300.268C256.92,299.418 256.662,298.629 256.219,297.974Z" style="fill:none;stroke-width:1px;stroke:black;"/>
        <path d="M242.535,289.811C244.799,289.811 246.635,291.647 246.635,293.911C246.635,296.175 244.799,298.011 242.535,298.011C240.271,298.011 238.435,296.175 238.435,293.911C238.435,291.647 240.271,289.811 242.535,289.811Z" style="fill:none;stroke-width:1px;stroke:black;"/>
        <path d="M258.47,267.111C256.469,267.111 254.808,268.546 254.448,270.441C256.237,270.881 257.57,272.485 257.57,274.411C257.57,274.675 257.54,274.931 257.492,275.181C257.807,275.258 258.131,275.311 258.47,275.311C260.734,275.311 262.57,273.475 262.57,271.211C262.57,268.947 260.734,267.111 258.47,267.111Z" style="fill:none;stroke-width:1px;stroke:black;"/>
        <path d="M254.448,270.441C254.133,270.364 253.809,270.311 253.47,270.311C251.206,270.311 249.37,272.146 249.37,274.411C249.37,276.675 251.206,278.511 253.47,278.511C255.471,278.511 257.132,277.076 257.493,275.18C257.54,274.931 257.57,274.674 257.57,274.411C257.57,272.485 256.238,270.881 254.448,270.441Z" style="fill:none;stroke-width:1px;stroke:black;"/>
        <path d="M261.761,246.076C259.497,246.054 257.643,247.872 257.621,250.136C257.617,250.564 257.697,250.97 257.815,251.359C259.558,251.464 260.989,252.648 261.476,254.253C261.545,254.257 261.611,254.275 261.681,254.276C263.946,254.298 265.799,252.48 265.821,250.216C265.843,247.951 264.025,246.098 261.761,246.076" style="fill:none;stroke-width:1px;stroke:black;"/>
        <path d="M257.816,251.359C257.746,251.355 257.681,251.337 257.611,251.336C255.346,251.314 253.493,253.132 253.471,255.396C253.449,257.661 255.267,259.514 257.531,259.536C259.795,259.558 261.649,257.74 261.67,255.476C261.675,255.048 261.595,254.642 261.477,254.253C260.99,252.648 259.559,251.464 257.816,251.359Z" style="fill:none;stroke-width:1px;stroke:black;"/>
        <path d="M227.142,265.956C229.406,265.956 231.242,267.792 231.242,270.056C231.242,272.32 229.406,274.156 227.142,274.156C224.878,274.156 223.042,272.32 223.042,270.056C223.042,267.792 224.878,265.956 227.142,265.956Z" style="fill:none;stroke-width:1px;stroke:black;"/>
        <path d="M237.77,308.311C240.034,308.311 241.87,310.147 241.87,312.411C241.87,314.675 240.034,316.511 237.77,316.511C235.506,316.511 233.67,314.675 233.67,312.411C233.67,310.147 235.506,308.311 237.77,308.311Z" style="fill:none;stroke-width:1px;stroke:black;"/>
        <path d="M261.16,319.338C260.44,320.517 259.153,321.311 257.67,321.311C257.217,321.311 256.789,321.22 256.381,321.084C256.001,321.706 255.77,322.429 255.77,323.211C255.77,325.475 257.606,327.311 259.87,327.311C262.135,327.311 263.97,325.475 263.97,323.211C263.97,321.4 262.789,319.881 261.16,319.338Z" style="fill:none;stroke-width:1px;stroke:black;"/>
        <path d="M261.16,319.338C261.54,318.716 261.77,317.993 261.77,317.211C261.77,314.947 259.935,313.111 257.67,313.111C255.406,313.111 253.57,314.947 253.57,317.211C253.57,319.022 254.752,320.541 256.381,321.084C256.789,321.22 257.217,321.311 257.67,321.311C259.153,321.311 260.44,320.517 261.16,319.338Z" style="fill:none;stroke-width:1px;stroke:black;"/>
        <path d="M249.37,328.711C247.106,328.711 245.27,326.875 245.27,324.611C245.27,324.475 245.297,324.346 245.31,324.214C244.976,324.807 244.77,325.482 244.77,326.211C244.77,328.475 246.606,330.311 248.87,330.311C250.998,330.311 252.727,328.683 252.93,326.608C252.227,327.857 250.905,328.711 249.37,328.711Z" style="fill:none;stroke-width:1px;stroke:black;"/>
        <path d="M249.37,328.711C250.905,328.711 252.227,327.857 252.93,326.608C253.264,326.015 253.47,325.34 253.47,324.611C253.47,322.347 251.634,320.511 249.37,320.511C247.242,320.511 245.513,322.139 245.31,324.214C245.297,324.346 245.27,324.475 245.27,324.611C245.27,326.875 247.106,328.711 249.37,328.711Z" style="fill:none;stroke-width:1px;stroke:black;"/>
        <path d="M238.37,341.011C238.37,340.334 238.55,339.705 238.841,339.142C237.772,339.882 237.07,341.113 237.07,342.511C237.07,344.775 238.906,346.611 241.17,346.611C242.757,346.611 244.118,345.699 244.8,344.38C244.137,344.839 243.336,345.111 242.47,345.111C240.206,345.111 238.37,343.275 238.37,341.011Z" style="fill:none;stroke-width:1px;stroke:black;"/>
        <path d="M246.57,341.011C246.57,338.747 244.734,336.911 242.47,336.911C240.883,336.911 239.522,337.823 238.841,339.142C238.55,339.705 238.37,340.334 238.37,341.011C238.37,343.275 240.206,345.111 242.47,345.111C243.336,345.111 244.137,344.839 244.799,344.38C245.868,343.64 246.57,342.409 246.57,341.011Z" style="fill:none;stroke-width:1px;stroke:black;"/>
        <path d="M232.87,346.711C235.134,346.711 236.97,348.547 236.97,350.811C236.97,353.075 235.134,354.911 232.87,354.911C230.606,354.911 228.77,353.075 228.77,350.811C228.77,348.547 230.606,346.711 232.87,346.711Z" style="fill:none;stroke-width:1px;stroke:black;"/>
        <path d="M204.293,291.44C204.18,289.212 202.283,287.498 200.055,287.61C198.077,287.71 196.512,289.219 196.262,291.114C196.943,290.438 197.856,289.99 198.89,289.938C201.118,289.825 203.016,291.54 203.128,293.768C203.141,294.018 203.123,294.262 203.092,294.502C203.879,293.722 204.353,292.634 204.293,291.44Z" style="fill:none;stroke-width:1px;stroke:black;"/>
        <path d="M198.891,289.938C197.857,289.99 196.944,290.438 196.262,291.114C195.476,291.894 195.001,292.982 195.061,294.176C195.174,296.404 197.071,298.119 199.299,298.006C201.277,297.906 202.843,296.398 203.092,294.502C203.124,294.262 203.142,294.018 203.129,293.768C203.016,291.54 201.119,289.825 198.891,289.938Z" style="fill:none;stroke-width:1px;stroke:black;"/>
        <path d="M224.57,362.211C226.834,362.211 228.67,364.047 228.67,366.311C228.67,368.575 226.834,370.411 224.57,370.411C222.306,370.411 220.47,368.575 220.47,366.311C220.47,364.047 222.306,362.211 224.57,362.211Z" style="fill:none;stroke-width:1px;stroke:black;"/>
        <path d="M216.37,371.111C218.634,371.111 220.47,372.947 220.47,375.211C220.47,377.475 218.634,379.311 216.37,379.311C214.106,379.311 212.27,377.475 212.27,375.211C212.27,372.947 214.106,371.111 216.37,371.111Z" style="fill:none;stroke-width:1px;stroke:black;"/>
        <path d="M211.472,380.517C212.271,381.265 212.77,382.329 212.77,383.51C212.77,385.775 210.934,387.61 208.67,387.61C206.406,387.61 204.57,385.775 204.57,383.51C204.57,381.246 206.406,379.41 208.67,379.41C209.754,379.41 210.739,379.831 211.472,380.517" style="fill:none;stroke-width:1px;stroke:black;"/>
        <path d="M166.645,401.393C166.586,401.396 166.53,401.411 166.47,401.411C164.523,401.411 162.9,400.049 162.482,398.229C162.22,398.281 161.949,398.311 161.67,398.311C161.285,398.311 160.92,398.24 160.567,398.141C160.156,398.903 159.52,399.519 158.738,399.895C158.951,400.391 159.07,400.937 159.07,401.511C159.07,402.828 158.438,403.987 157.473,404.737C157.534,405.019 157.57,405.31 157.57,405.611C157.57,406.817 157.04,407.89 156.211,408.64C156.305,408.984 156.37,409.338 156.37,409.711C156.37,411.002 155.761,412.14 154.827,412.892C154.912,413.219 154.97,413.557 154.97,413.911C154.97,415.146 154.413,416.24 153.548,416.992C153.552,417.066 153.57,417.136 153.57,417.211C153.57,417.631 153.489,418.029 153.371,418.411C153.489,418.792 153.57,419.19 153.57,419.611C153.57,420.049 153.483,420.464 153.356,420.861C153.483,421.257 153.57,421.672 153.57,422.111C153.57,422.248 153.543,422.377 153.53,422.511C153.722,422.421 153.924,422.351 154.131,422.291C154.586,421.588 155.246,421.034 156.03,420.715C156.52,419.369 157.684,418.352 159.123,418.086C159.323,416.54 160.371,415.274 161.796,414.764C161.791,414.679 161.77,414.597 161.77,414.511C161.77,412.246 163.606,410.411 165.87,410.411C165.895,410.411 165.917,410.417 165.942,410.418C165.901,410.187 165.87,409.953 165.87,409.711C165.87,407.446 167.706,405.611 169.97,405.611C170.127,405.611 170.276,405.64 170.428,405.657C170.145,405.1 169.97,404.478 169.97,403.811C169.97,403.568 170.001,403.334 170.042,403.103C170.017,403.104 169.995,403.111 169.97,403.111C168.597,403.111 167.389,402.429 166.645,401.393Z" style="fill:none;stroke-width:1px;stroke:black;"/>
        <path d="M158.737,399.895C159.52,399.52 160.156,398.903 160.567,398.141C159.039,397.713 157.88,396.434 157.633,394.838C156.544,394.429 155.681,393.578 155.258,392.496C153.852,393.145 152.871,394.559 152.871,396.21C152.871,396.785 152.99,397.331 153.203,397.826C153.74,397.568 154.335,397.41 154.971,397.41C156.66,397.41 158.11,398.434 158.737,399.895Z" style="fill:none;stroke-width:1px;stroke:black;"/>
        <path d="M157.472,404.737C158.438,403.987 159.07,402.828 159.07,401.511C159.07,400.936 158.95,400.391 158.737,399.895C158.11,398.434 156.66,397.41 154.97,397.41C154.334,397.41 153.74,397.567 153.203,397.826C151.827,398.487 150.87,399.882 150.87,401.511C150.87,401.811 150.907,402.102 150.968,402.383C151.662,401.845 152.523,401.511 153.47,401.511C155.434,401.511 157.071,402.893 157.472,404.737Z" style="fill:none;stroke-width:1px;stroke:black;"/>
        <path d="M156.211,408.64C157.04,407.89 157.57,406.816 157.57,405.61C157.57,405.31 157.533,405.019 157.472,404.737C157.071,402.893 155.434,401.51 153.47,401.51C152.523,401.51 151.662,401.844 150.968,402.384C150.002,403.134 149.37,404.293 149.37,405.61C149.37,405.983 149.436,406.337 149.529,406.681C150.257,406.022 151.212,405.61 152.27,405.61C154.162,405.61 155.738,406.898 156.211,408.64Z" style="fill:none;stroke-width:1px;stroke:black;"/>
        <path d="M154.827,412.892C155.761,412.14 156.37,411.002 156.37,409.711C156.37,409.338 156.304,408.983 156.211,408.64C155.738,406.898 154.162,405.611 152.27,405.611C151.212,405.611 150.257,406.022 149.529,406.681C148.7,407.431 148.17,408.505 148.17,409.711C148.17,410.064 148.229,410.402 148.313,410.729C149.016,410.163 149.897,409.811 150.87,409.811C152.781,409.811 154.372,411.123 154.827,412.892Z" style="fill:none;stroke-width:1px;stroke:black;"/>
        <path d="M153.548,416.992C154.412,416.24 154.97,415.146 154.97,413.91C154.97,413.557 154.911,413.219 154.827,412.892C154.372,411.123 152.781,409.81 150.87,409.81C149.897,409.81 149.016,410.163 148.313,410.729C147.379,411.481 146.77,412.619 146.77,413.91C146.77,413.985 146.788,414.055 146.792,414.129C147.512,413.503 148.441,413.11 149.47,413.11C151.66,413.11 153.432,414.831 153.548,416.992Z" style="fill:none;stroke-width:1px;stroke:black;"/>
        <path d="M149.47,415.511C151.314,415.511 152.855,416.736 153.371,418.411C153.488,418.029 153.57,417.631 153.57,417.211C153.57,417.136 153.552,417.066 153.548,416.993C153.432,414.832 151.66,413.111 149.47,413.111C148.441,413.111 147.512,413.503 146.792,414.129C145.928,414.881 145.37,415.976 145.37,417.211C145.37,417.631 145.452,418.029 145.569,418.411C146.085,416.736 147.626,415.511 149.47,415.511Z" style="fill:none;stroke-width:1px;stroke:black;"/>
        <path d="M149.47,418.011C151.296,418.011 152.824,419.212 153.355,420.861C153.483,420.465 153.57,420.05 153.57,419.611C153.57,419.191 153.488,418.793 153.371,418.411C152.855,416.736 151.314,415.511 149.47,415.511C147.626,415.511 146.085,416.736 145.569,418.411C145.452,418.793 145.37,419.191 145.37,419.611C145.37,420.05 145.457,420.465 145.585,420.861C146.116,419.212 147.644,418.011 149.47,418.011Z" style="fill:none;stroke-width:1px;stroke:black;"/>
        <path d="M149.47,420.511C151.058,420.511 152.42,421.424 153.101,422.744C153.238,422.658 153.382,422.581 153.53,422.512C153.543,422.378 153.57,422.248 153.57,422.111C153.57,421.672 153.483,421.257 153.355,420.861C152.824,419.212 151.296,418.011 149.47,418.011C147.644,418.011 146.116,419.212 145.585,420.861C145.457,421.257 145.37,421.672 145.37,422.111C145.37,422.55 145.457,422.965 145.585,423.361C146.116,421.712 147.644,420.511 149.47,420.511Z" style="fill:none;stroke-width:1px;stroke:black;"/>
        <path d="M150.37,422.111C151.293,422.111 152.135,422.427 152.82,422.941C152.912,422.872 153.003,422.806 153.101,422.744C152.42,421.424 151.058,420.511 149.47,420.511C147.644,420.511 146.116,421.712 145.585,423.361C145.457,423.757 145.37,424.172 145.37,424.611C145.37,425.679 145.788,426.643 146.457,427.373C146.347,427.002 146.27,426.617 146.27,426.211C146.27,423.947 148.106,422.111 150.37,422.111Z" style="fill:none;stroke-width:1px;stroke:black;"/>
        <path d="M147.07,427.111C147.07,424.847 148.906,423.011 151.17,423.011C151.609,423.011 152.024,423.098 152.42,423.226C152.449,423.216 152.479,423.207 152.508,423.198C152.608,423.107 152.712,423.022 152.82,422.941C152.135,422.427 151.293,422.111 150.37,422.111C148.106,422.111 146.27,423.947 146.27,426.211C146.27,426.617 146.347,427.002 146.457,427.373C146.686,428.143 147.129,428.812 147.725,429.32C147.315,428.681 147.07,427.926 147.07,427.111Z" style="fill:none;stroke-width:1px;stroke:black;"/>
        <path d="M148.17,427.911C148.17,426.099 149.353,424.58 150.982,424.038C151.397,423.674 151.883,423.399 152.42,423.226C152.024,423.098 151.609,423.011 151.17,423.011C148.906,423.011 147.07,424.847 147.07,427.111C147.07,427.926 147.315,428.681 147.725,429.32C148.118,429.932 148.672,430.421 149.324,430.753C148.612,430.015 148.17,429.016 148.17,427.911Z" style="fill:none;stroke-width:1px;stroke:black;"/>
        <path d="M149.57,427.111C149.57,425.88 150.123,424.789 150.982,424.038C149.353,424.58 148.17,426.099 148.17,427.911C148.17,429.016 148.612,430.015 149.324,430.753C150.069,431.526 151.111,432.011 152.27,432.011C153.304,432.011 154.237,431.616 154.958,430.984C154.551,431.12 154.123,431.211 153.67,431.211C151.406,431.211 149.57,429.375 149.57,427.111Z" style="fill:none;stroke-width:1px;stroke:black;"/>
        <path d="M155.27,430.311C153.006,430.311 151.17,428.475 151.17,426.211C151.17,425.015 151.691,423.948 152.508,423.198C152.479,423.207 152.449,423.216 152.42,423.226C151.883,423.399 151.397,423.674 150.982,424.038C150.123,424.789 149.57,425.88 149.57,427.111C149.57,429.375 151.406,431.211 153.67,431.211C154.123,431.211 154.551,431.12 154.958,430.984C155.511,430.8 156.011,430.509 156.432,430.124C156.061,430.234 155.676,430.311 155.27,430.311Z" style="fill:none;stroke-width:1px;stroke:black;"/>
        <path d="M153.47,424.511C153.47,423.691 153.716,422.932 154.131,422.291C153.923,422.352 153.722,422.421 153.53,422.512C153.382,422.581 153.238,422.658 153.101,422.744C153.003,422.805 152.912,422.872 152.82,422.941C152.712,423.022 152.608,423.107 152.508,423.198C151.691,423.948 151.17,425.015 151.17,426.211C151.17,428.475 153.006,430.311 155.27,430.311C155.676,430.311 156.061,430.234 156.432,430.124C157.379,429.842 158.184,429.242 158.709,428.431C158.345,428.536 157.968,428.611 157.57,428.611C155.306,428.611 153.47,426.775 153.47,424.511Z" style="fill:none;stroke-width:1px;stroke:black;"/>
        <path d="M155.77,422.111C155.77,421.619 155.871,421.153 156.03,420.716C155.245,421.035 154.585,421.589 154.131,422.291C153.716,422.932 153.47,423.691 153.47,424.511C153.47,426.775 155.306,428.611 157.57,428.611C157.968,428.611 158.345,428.536 158.709,428.431C159.965,428.065 160.966,427.127 161.41,425.906C160.934,426.1 160.416,426.211 159.87,426.211C157.606,426.211 155.77,424.375 155.77,422.111Z" style="fill:none;stroke-width:1px;stroke:black;"/>
        <path d="M152.87,354.911C155.134,354.911 156.97,353.075 156.97,350.811C156.97,348.547 155.134,346.711 152.87,346.711C150.606,346.711 148.77,348.547 148.77,350.811C148.77,353.075 150.606,354.911 152.87,354.911Z" style="fill:none;stroke-width:1px;stroke:black;"/>
        <path d="M166.645,401.393C167.389,402.429 168.597,403.111 169.97,403.111C169.995,403.111 170.017,403.104 170.042,403.103C170.374,401.201 172.01,399.753 173.999,399.718C174.039,399.487 174.07,399.253 174.07,399.011C174.07,396.746 172.235,394.911 169.97,394.911C169.911,394.911 169.855,394.926 169.796,394.928C170.279,395.601 170.57,396.419 170.57,397.311C170.57,399.515 168.827,401.3 166.645,401.393Z" style="fill:none;stroke-width:1px;stroke:black;"/>
        <path d="M162.482,398.229C162.9,400.05 164.523,401.411 166.47,401.411C166.53,401.411 166.586,401.396 166.645,401.393C168.826,401.3 170.57,399.515 170.57,397.311C170.57,396.42 170.279,395.601 169.796,394.928C169.052,393.892 167.843,393.211 166.47,393.211C166.192,393.211 165.921,393.24 165.658,393.293C165.726,393.589 165.77,393.894 165.77,394.211C165.77,396.197 164.357,397.852 162.482,398.229Z" style="fill:none;stroke-width:1px;stroke:black;"/>
        <path d="M159.07,395.111C158.562,395.111 158.082,395.007 157.633,394.838C157.88,396.434 159.039,397.712 160.566,398.142C160.92,398.241 161.285,398.311 161.67,398.311C161.948,398.311 162.219,398.282 162.482,398.229C164.357,397.852 165.77,396.197 165.77,394.211C165.77,393.894 165.726,393.589 165.658,393.293C165.349,391.947 164.38,390.862 163.107,390.384C163.139,390.59 163.17,390.796 163.17,391.011C163.17,393.275 161.334,395.111 159.07,395.111Z" style="fill:none;stroke-width:1px;stroke:black;"/>
        <path d="M159.07,386.911C159.623,386.911 160.149,387.024 160.631,387.222C160.903,386.674 161.07,386.065 161.07,385.411C161.07,383.795 160.127,382.411 158.768,381.743C158.16,383.247 156.692,384.311 154.97,384.311C154.322,384.311 153.717,384.147 153.172,383.879C152.981,384.353 152.87,384.869 152.87,385.411C152.87,387.122 153.92,388.585 155.409,389.2C156.08,387.848 157.459,386.911 159.07,386.911Z" style="fill:none;stroke-width:1px;stroke:black;"/>
        <path d="M158.768,381.742C158.959,381.268 159.07,380.754 159.07,380.21C159.07,378.521 158.047,377.072 156.588,376.444C155.836,377.334 154.726,377.91 153.47,377.91C152.895,377.91 152.349,377.79 151.852,377.576C151.248,378.29 150.87,379.202 150.87,380.21C150.87,381.827 151.814,383.211 153.173,383.879C153.717,384.146 154.322,384.31 154.97,384.31C156.692,384.31 158.161,383.246 158.768,381.742Z" style="fill:none;stroke-width:1px;stroke:black;"/>
        <path d="M156.588,376.445C157.192,375.731 157.57,374.819 157.57,373.811C157.57,372.1 156.521,370.638 155.033,370.023C154.303,370.692 153.339,371.111 152.27,371.111C151.716,371.111 151.19,370.998 150.708,370.799C149.891,371.549 149.37,372.615 149.37,373.811C149.37,375.5 150.393,376.949 151.852,377.577C152.349,377.791 152.895,377.911 153.47,377.911C154.726,377.911 155.836,377.334 156.588,376.445Z" style="fill:none;stroke-width:1px;stroke:black;"/>
        <path d="M155.033,370.023C155.85,369.273 156.37,368.207 156.37,367.011C156.37,365.109 155.069,363.523 153.312,363.061C152.977,363.148 152.633,363.21 152.27,363.21C151.908,363.21 151.564,363.148 151.229,363.061C149.472,363.523 148.17,365.109 148.17,367.011C148.17,368.722 149.219,370.184 150.708,370.799C151.19,370.998 151.717,371.111 152.27,371.111C153.339,371.111 154.303,370.693 155.033,370.023Z" style="fill:none;stroke-width:1px;stroke:black;"/>
        <path d="M153.311,363.061C155.068,362.598 156.37,361.013 156.37,359.111C156.37,356.847 154.534,355.011 152.27,355.011C150.005,355.011 148.17,356.847 148.17,359.111C148.17,361.013 149.472,362.598 151.229,363.061C151.563,363.149 151.908,363.211 152.27,363.211C152.632,363.211 152.977,363.149 153.311,363.061Z" style="fill:none;stroke-width:1px;stroke:black;"/>
        <path d="M204.37,386.828C203.618,385.96 202.508,385.411 201.27,385.411C199.005,385.411 197.17,387.247 197.17,389.511C197.17,391.776 199.005,393.611 201.27,393.611C203.534,393.611 205.37,391.776 205.37,389.511C205.37,388.485 204.993,387.547 204.37,386.828" style="fill:none;stroke-width:1px;stroke:black;"/>
        <path d="M193.67,390.111C191.472,390.111 189.693,391.844 189.59,394.016C190.604,394.763 191.27,395.955 191.27,397.311C191.27,397.378 191.254,397.44 191.25,397.506C191.93,398.006 192.761,398.311 193.67,398.311C195.934,398.311 197.77,396.475 197.77,394.211C197.77,391.947 195.934,390.111 193.67,390.111Z" style="fill:none;stroke-width:1px;stroke:black;"/>
        <path d="M189.59,394.016C188.91,393.516 188.079,393.211 187.17,393.211C185.494,393.211 184.058,394.219 183.422,395.66C184.477,396.402 185.17,397.623 185.17,399.011C185.17,399.599 185.042,400.156 184.818,400.661C185.485,401.13 186.293,401.411 187.17,401.411C189.368,401.411 191.147,399.677 191.251,397.506C191.254,397.44 191.27,397.377 191.27,397.311C191.27,395.955 190.604,394.762 189.59,394.016Z" style="fill:none;stroke-width:1px;stroke:black;"/>
        <path d="M183.422,395.66C183.125,395.451 182.797,395.291 182.45,395.166C182.836,395.791 183.07,396.521 183.07,397.311C183.07,399.575 181.234,401.411 178.97,401.411C178.483,401.411 178.023,401.311 177.59,401.156C178.312,402.325 179.595,403.111 181.07,403.111C182.746,403.111 184.182,402.102 184.818,400.661C185.041,400.156 185.17,399.599 185.17,399.011C185.17,397.623 184.477,396.402 183.422,395.66Z" style="fill:none;stroke-width:1px;stroke:black;"/>
        <path d="M181.055,393.787C180.446,393.422 179.734,393.21 178.97,393.21C176.706,393.21 174.87,395.047 174.87,397.311C174.87,398.513 175.398,399.585 176.223,400.335C176.436,400.468 176.633,400.619 176.818,400.787C177.06,400.936 177.318,401.058 177.59,401.155C178.023,401.311 178.484,401.411 178.97,401.411C181.235,401.411 183.07,399.576 183.07,397.311C183.07,396.522 182.837,395.792 182.45,395.166C182.102,394.602 181.623,394.126 181.055,393.787" style="fill:none;stroke-width:1px;stroke:black;"/>
        <path d="M174.07,399.711C174.046,399.711 174.023,399.718 173.999,399.718C172.009,399.753 170.374,401.201 170.041,403.104C170.001,403.335 169.97,403.569 169.97,403.811C169.97,404.479 170.145,405.1 170.428,405.657C171.826,405.815 173.001,406.664 173.612,407.865C173.764,407.882 173.913,407.911 174.07,407.911C176.334,407.911 178.17,406.075 178.17,403.811C178.17,402.608 177.643,401.537 176.817,400.787C176.633,400.619 176.435,400.467 176.223,400.335C175.596,399.946 174.862,399.711 174.07,399.711Z" style="fill:none;stroke-width:1px;stroke:black;"/>
        <path d="M157.633,394.838C158.082,395.007 158.562,395.111 159.07,395.111C161.334,395.111 163.17,393.275 163.17,391.011C163.17,390.796 163.138,390.589 163.107,390.383C162.885,388.949 161.933,387.759 160.631,387.222C160.149,387.023 159.623,386.911 159.07,386.911C157.459,386.911 156.079,387.848 155.409,389.199C155.137,389.748 154.97,390.357 154.97,391.011C154.97,391.536 155.078,392.034 155.258,392.496C155.68,393.578 156.545,394.429 157.633,394.838Z" style="fill:none;stroke-width:1px;stroke:black;"/>
        <path d="M159.07,418.611C159.07,418.431 159.1,418.26 159.123,418.086C157.684,418.352 156.52,419.369 156.03,420.716C155.871,421.153 155.77,421.619 155.77,422.111C155.77,424.375 157.606,426.211 159.87,426.211C160.416,426.211 160.934,426.1 161.41,425.906C162.753,425.36 163.725,424.122 163.917,422.636C163.674,422.681 163.426,422.711 163.17,422.711C160.906,422.711 159.07,420.875 159.07,418.611Z" style="fill:none;stroke-width:1px;stroke:black;"/>
        <path d="M161.796,414.764C160.371,415.274 159.323,416.54 159.123,418.086C159.101,418.259 159.07,418.431 159.07,418.611C159.07,420.875 160.906,422.711 163.17,422.711C163.426,422.711 163.675,422.68 163.917,422.635C165.824,422.283 167.27,420.619 167.27,418.611C167.27,418.524 167.25,418.443 167.245,418.357C166.813,418.511 166.355,418.611 165.87,418.611C163.693,418.611 161.929,416.908 161.796,414.764Z" style="fill:none;stroke-width:1px;stroke:black;"/>
        <path d="M165.942,410.418C165.918,410.418 165.895,410.411 165.871,410.411C163.605,410.411 161.771,412.246 161.771,414.511C161.771,414.598 161.79,414.679 161.796,414.764C161.93,416.908 163.693,418.611 165.871,418.611C166.355,418.611 166.814,418.512 167.245,418.357C168.83,417.79 169.971,416.29 169.971,414.511C169.971,414.269 169.939,414.034 169.898,413.804C167.909,413.769 166.273,412.321 165.942,410.418Z" style="fill:none;stroke-width:1px;stroke:black;"/>
        <path d="M170.428,405.657C170.276,405.64 170.127,405.611 169.97,405.611C167.706,405.611 165.87,407.446 165.87,409.711C165.87,409.953 165.901,410.187 165.941,410.418C166.274,412.321 167.909,413.769 169.899,413.804C169.923,413.804 169.946,413.811 169.97,413.811C172.234,413.811 174.07,411.975 174.07,409.711C174.07,409.043 173.895,408.422 173.612,407.865C173.001,406.664 171.826,405.814 170.428,405.657Z" style="fill:none;stroke-width:1px;stroke:black;"/>
        <path d="M151.87,205.611C154.134,205.611 155.97,207.447 155.97,209.711C155.97,211.975 154.134,213.811 151.87,213.811C149.606,213.811 147.77,211.975 147.77,209.711C147.77,207.447 149.606,205.611 151.87,205.611Z" style="fill:none;stroke-width:1px;stroke:black;"/>
        <path d="M162.47,213.811C164.734,213.811 166.57,215.647 166.57,217.911C166.57,220.175 164.734,222.011 162.47,222.011C160.206,222.011 158.37,220.175 158.37,217.911C158.37,215.647 160.206,213.811 162.47,213.811Z" style="fill:none;stroke-width:1px;stroke:black;"/>
        <path d="M175.27,224.411C177.534,224.411 179.37,226.247 179.37,228.511C179.37,230.775 177.534,232.611 175.27,232.611C173.006,232.611 171.17,230.775 171.17,228.511C171.17,226.247 173.006,224.411 175.27,224.411Z" style="fill:none;stroke-width:1px;stroke:black;"/>
        <path d="M188.87,237.665C191.134,237.665 192.97,239.501 192.97,241.765C192.97,244.029 191.134,245.865 188.87,245.865C186.606,245.865 184.77,244.029 184.77,241.765C184.77,239.501 186.606,237.665 188.87,237.665Z" style="fill:none;stroke-width:1px;stroke:black;"/>
        <path d="M208.17,255.911C205.906,255.911 204.07,257.747 204.07,260.011C204.07,260.242 204.101,260.465 204.138,260.686C204.744,261.28 205.156,262.062 205.302,262.936C206.042,263.661 207.052,264.111 208.17,264.111C210.434,264.111 212.27,262.275 212.27,260.011C212.27,257.747 210.434,255.911 208.17,255.911Z" style="fill:none;stroke-width:1px;stroke:black;"/>
        <path d="M204.138,260.686C203.398,259.961 202.388,259.511 201.27,259.511C199.006,259.511 197.17,261.346 197.17,263.611C197.17,265.875 199.006,267.711 201.27,267.711C203.534,267.711 205.37,265.875 205.37,263.611C205.37,263.379 205.339,263.156 205.302,262.936C205.156,262.062 204.744,261.28 204.138,260.686Z" style="fill:none;stroke-width:1px;stroke:black;"/>
        <path d="M186.07,247.111C188.334,247.111 190.17,248.947 190.17,251.211C190.17,253.475 188.334,255.311 186.07,255.311C183.806,255.311 181.97,253.475 181.97,251.211C181.97,248.947 183.806,247.111 186.07,247.111Z" style="fill:none;stroke-width:1px;stroke:black;"/>
        <path d="M174.37,236.811C176.634,236.811 178.47,238.647 178.47,240.911C178.47,243.175 176.634,245.011 174.37,245.011C172.106,245.011 170.27,243.175 170.27,240.911C170.27,238.647 172.106,236.811 174.37,236.811Z" style="fill:none;stroke-width:1px;stroke:black;"/>
        <path d="M162.47,227.411C164.734,227.411 166.57,229.247 166.57,231.511C166.57,233.775 164.734,235.611 162.47,235.611C160.206,235.611 158.37,233.775 158.37,231.511C158.37,229.247 160.206,227.411 162.47,227.411Z" style="fill:none;stroke-width:1px;stroke:black;"/>
        <path d="M153.37,219.111C155.634,219.111 157.47,220.947 157.47,223.211C157.47,225.475 155.634,227.311 153.37,227.311C151.106,227.311 149.27,225.475 149.27,223.211C149.27,220.947 151.106,219.111 153.37,219.111Z" style="fill:none;stroke-width:1px;stroke:black;"/>
        <path d="M144.27,212.611C146.534,212.611 148.37,214.447 148.37,216.711C148.37,218.975 146.534,220.811 144.27,220.811C142.006,220.811 140.17,218.975 140.17,216.711C140.17,214.447 142.006,212.611 144.27,212.611Z" style="fill:none;stroke-width:1px;stroke:black;"/>
        <path d="M137.17,205.611C139.434,205.611 141.27,207.447 141.27,209.711C141.27,211.975 139.434,213.811 137.17,213.811C134.906,213.811 133.07,211.975 133.07,209.711C133.07,207.447 134.906,205.611 137.17,205.611Z" style="fill:none;stroke-width:1px;stroke:black;"/>
        <path d="M129.07,198.811C131.334,198.811 133.17,200.647 133.17,202.911C133.17,205.175 131.334,207.011 129.07,207.011C126.806,207.011 124.97,205.175 124.97,202.911C124.97,200.647 126.806,198.811 129.07,198.811Z" style="fill:none;stroke-width:1px;stroke:black;"/>
        <path d="M122.97,193.411C122.213,193.411 121.512,193.631 120.903,193.989C120.553,194.766 119.966,195.404 119.237,195.833C119.006,196.347 118.87,196.912 118.87,197.511C118.87,199.775 120.706,201.611 122.97,201.611C125.234,201.611 127.07,199.775 127.07,197.511C127.07,195.247 125.234,193.411 122.97,193.411Z" style="fill:none;stroke-width:1px;stroke:black;"/>
        <path d="M120.904,193.988C121.135,193.475 121.271,192.91 121.271,192.31C121.271,190.046 119.435,188.21 117.171,188.21C116.777,188.21 116.403,188.284 116.043,188.387C115.924,190.133 114.724,191.566 113.098,192.033C113.092,192.127 113.071,192.215 113.071,192.31C113.071,194.575 114.906,196.41 117.171,196.41C117.928,196.41 118.628,196.191 119.237,195.833C119.967,195.404 120.554,194.765 120.904,193.988Z" style="fill:none;stroke-width:1px;stroke:black;"/>
        <path d="M116.042,188.388C116.048,188.295 116.07,188.206 116.07,188.111C116.07,185.847 114.234,184.011 111.97,184.011C111.797,184.011 111.632,184.041 111.465,184.062C111.439,186.13 109.881,187.811 107.875,188.06C107.875,188.078 107.87,188.094 107.87,188.111C107.87,190.375 109.706,192.211 111.97,192.211C112.364,192.211 112.737,192.138 113.098,192.034C114.723,191.567 115.923,190.133 116.042,188.388Z" style="fill:none;stroke-width:1px;stroke:black;"/>
        <path d="M111.465,184.062C111.465,184.045 111.47,184.029 111.47,184.011C111.47,181.747 109.634,179.911 107.37,179.911C107.311,179.911 107.256,179.926 107.198,179.929C106.867,181.793 105.282,183.212 103.343,183.294C103.301,183.528 103.27,183.765 103.27,184.011C103.27,186.276 105.106,188.111 107.37,188.111C107.543,188.111 107.708,188.081 107.875,188.06C109.882,187.811 111.439,186.13 111.465,184.062Z" style="fill:none;stroke-width:1px;stroke:black;"/>
        <path d="M107.198,179.928C107.239,179.694 107.27,179.456 107.27,179.211C107.27,176.946 105.435,175.111 103.17,175.111C102.856,175.111 102.553,175.153 102.259,175.22C102.208,177.121 100.871,178.694 99.081,179.101C99.08,179.138 99.07,179.173 99.07,179.211C99.07,181.475 100.906,183.311 103.17,183.311C103.229,183.311 103.284,183.296 103.343,183.293C105.282,183.211 106.867,181.793 107.198,179.928Z" style="fill:none;stroke-width:1px;stroke:black;"/>
        <path d="M102.259,175.22C102.26,175.183 102.27,175.148 102.27,175.11C102.27,173.116 100.845,171.457 98.957,171.09C99.026,171.387 99.07,171.693 99.07,172.01C99.07,174.275 97.234,176.11 94.97,176.11C94.7,176.11 94.438,176.081 94.183,176.031C94.602,177.85 96.223,179.21 98.17,179.21C98.484,179.21 98.787,179.168 99.081,179.101C100.87,178.693 102.208,177.12 102.259,175.22Z" style="fill:none;stroke-width:1px;stroke:black;"/>
        <path d="M99.07,172.011C99.07,171.693 99.026,171.387 98.957,171.09C98.585,169.471 97.256,168.23 95.596,167.974C95.639,168.214 95.67,168.459 95.67,168.711C95.67,170.975 93.834,172.811 91.57,172.811C91.356,172.811 91.15,172.78 90.944,172.748C91.246,174.403 92.534,175.711 94.183,176.032C94.438,176.081 94.7,176.111 94.97,176.111C97.234,176.111 99.07,174.275 99.07,172.011Z" style="fill:none;stroke-width:1px;stroke:black;"/>
        <path d="M95.67,168.711C95.67,168.459 95.639,168.214 95.596,167.974C95.316,166.44 94.184,165.22 92.708,164.791C92.739,164.995 92.77,165.199 92.77,165.411C92.77,167.675 90.934,169.511 88.67,169.511C88.272,169.511 87.896,169.437 87.532,169.331C87.802,171.093 89.183,172.476 90.944,172.748C91.15,172.78 91.356,172.811 91.57,172.811C93.834,172.811 95.67,170.975 95.67,168.711Z" style="fill:none;stroke-width:1px;stroke:black;"/>
        <path d="M92.77,165.411C92.77,165.199 92.739,164.995 92.708,164.791C92.407,162.823 90.722,161.311 88.67,161.311C86.406,161.311 84.57,163.147 84.57,165.411C84.57,167.278 85.825,168.835 87.532,169.331C87.896,169.437 88.272,169.511 88.67,169.511C90.934,169.511 92.77,167.675 92.77,165.411Z" style="fill:none;stroke-width:1px;stroke:black;"/>
        <path d="M217.07,244.411C219.334,244.411 221.17,246.247 221.17,248.511C221.17,250.775 219.334,252.611 217.07,252.611C214.806,252.611 212.97,250.775 212.97,248.511C212.97,246.247 214.806,244.411 217.07,244.411Z" style="fill:none;stroke-width:1px;stroke:black;"/>
        <path d="M219.07,228.511C221.334,228.511 223.17,230.347 223.17,232.611C223.17,234.875 221.334,236.711 219.07,236.711C216.806,236.711 214.97,234.875 214.97,232.611C214.97,230.347 216.806,228.511 219.07,228.511Z" style="fill:none;stroke-width:1px;stroke:black;"/>
        <path d="M262.87,228.511C262.203,228.511 261.583,228.685 261.026,228.968C261.174,229.391 261.27,229.838 261.27,230.311C261.27,231.909 260.347,233.278 259.014,233.954C259.572,235.555 261.079,236.711 262.87,236.711C265.134,236.711 266.97,234.875 266.97,232.611C266.97,230.347 265.134,228.511 262.87,228.511Z" style="fill:none;stroke-width:1px;stroke:black;"/>
        <path d="M224.139,218.107C223.859,218.046 223.569,218.011 223.27,218.011C221.006,218.011 219.17,219.846 219.17,222.111C219.17,224.375 221.006,226.211 223.27,226.211C225.535,226.211 227.37,224.375 227.37,222.111C227.37,221.166 227.038,220.307 226.502,219.614C225.542,219.407 224.719,218.857 224.139,218.107Z" style="fill:none;stroke-width:1px;stroke:black;"/>
        <path d="M227.442,211.518C227.418,211.518 227.395,211.511 227.371,211.511C225.105,211.511 223.271,213.346 223.271,215.611C223.271,216.555 223.603,217.414 224.139,218.107C224.719,218.857 225.543,219.407 226.502,219.614C226.783,219.675 227.072,219.711 227.371,219.711C229.635,219.711 231.471,217.875 231.471,215.611C231.471,215.369 231.439,215.134 231.398,214.904C229.409,214.869 227.773,213.421 227.442,211.518Z" style="fill:none;stroke-width:1px;stroke:black;"/>
        <path d="M231.57,208.411C231.57,207.821 231.7,207.264 231.924,206.757C231.773,206.74 231.625,206.711 231.47,206.711C229.206,206.711 227.37,208.547 227.37,210.811C227.37,211.053 227.401,211.287 227.441,211.518C227.774,213.421 229.409,214.869 231.399,214.904C231.423,214.904 231.446,214.911 231.47,214.911C233.145,214.911 234.58,213.904 235.216,212.465C233.168,212.237 231.57,210.52 231.57,208.411Z" style="fill:none;stroke-width:1px;stroke:black;"/>
        <path d="M236.57,208.411C236.57,207.093 237.203,205.932 238.17,205.182C237.476,204.644 236.616,204.311 235.67,204.311C233.995,204.311 232.56,205.318 231.924,206.757C231.7,207.264 231.57,207.821 231.57,208.411C231.57,210.52 233.168,212.237 235.216,212.465C235.367,212.482 235.515,212.511 235.67,212.511C236.616,212.511 237.476,212.178 238.17,211.639C237.203,210.889 236.57,209.729 236.57,208.411Z" style="fill:none;stroke-width:1px;stroke:black;"/>
        <path d="M243.766,205.749C243.014,204.875 241.914,204.31 240.671,204.31C239.725,204.31 238.864,204.644 238.171,205.182C237.204,205.932 236.571,207.092 236.571,208.41C236.571,209.729 237.204,210.889 238.171,211.639C238.864,212.177 239.725,212.51 240.671,212.51C241.019,212.51 241.352,212.454 241.675,212.372C241.058,211.654 240.671,210.732 240.671,209.71C240.671,207.795 241.99,206.199 243.766,205.749Z" style="fill:none;stroke-width:1px;stroke:black;"/>
        <path d="M248.647,208.433C248.108,206.798 246.586,205.61 244.77,205.61C244.422,205.61 244.089,205.667 243.766,205.749C241.99,206.199 240.67,207.795 240.67,209.71C240.67,210.732 241.057,211.654 241.675,212.372C242.427,213.246 243.527,213.811 244.77,213.811C244.847,213.811 244.918,213.792 244.994,213.788C244.86,213.384 244.77,212.959 244.77,212.51C244.77,210.323 246.489,208.551 248.647,208.433Z" style="fill:none;stroke-width:1px;stroke:black;"/>
        <path d="M252.07,212.711C252.369,212.711 252.659,212.747 252.94,212.808C252.947,212.708 252.97,212.613 252.97,212.511C252.97,210.247 251.134,208.411 248.87,208.411C248.793,208.411 248.722,208.429 248.647,208.434C246.488,208.552 244.77,210.323 244.77,212.511C244.77,212.96 244.86,213.384 244.993,213.789C245.444,215.154 246.576,216.206 248,216.514C248.155,214.391 249.907,212.711 252.07,212.711Z" style="fill:none;stroke-width:1px;stroke:black;"/>
        <path d="M255.436,219.144C255.897,218.481 256.17,217.679 256.17,216.81C256.17,214.845 254.786,213.207 252.941,212.807C252.66,212.746 252.37,212.71 252.07,212.71C249.908,212.71 248.155,214.39 248,216.513C247.993,216.613 247.97,216.709 247.97,216.81C247.97,219.075 249.806,220.91 252.07,220.91C252.185,220.91 252.293,220.886 252.405,220.877C253.084,219.898 254.181,219.247 255.436,219.144Z" style="fill:none;stroke-width:1px;stroke:black;"/>
        <path d="M258.323,226.395C259.259,225.644 259.87,224.504 259.87,223.21C259.87,220.946 258.034,219.11 255.77,219.11C255.655,219.11 255.548,219.135 255.436,219.144C254.181,219.247 253.084,219.898 252.404,220.877C251.944,221.54 251.67,222.342 251.67,223.21C251.67,225.071 252.918,226.625 254.617,227.126C255.319,226.562 256.199,226.21 257.17,226.21C257.573,226.21 257.955,226.287 258.323,226.395Z" style="fill:none;stroke-width:1px;stroke:black;"/>
        <path d="M261.27,230.311C261.27,229.838 261.174,229.391 261.026,228.968C260.594,227.727 259.59,226.769 258.323,226.396C257.955,226.287 257.573,226.211 257.17,226.211C256.199,226.211 255.319,226.562 254.617,227.126C253.681,227.878 253.07,229.017 253.07,230.311C253.07,232.575 254.906,234.411 257.17,234.411C257.837,234.411 258.457,234.237 259.014,233.954C260.347,233.278 261.27,231.909 261.27,230.311Z" style="fill:none;stroke-width:1px;stroke:black;"/>
        <path d="M196.911,311.607C198.668,312.166 199.766,313.8 199.75,315.553C199.977,315.224 200.176,314.87 200.303,314.469C200.989,312.311 199.796,310.006 197.638,309.32C195.48,308.634 193.175,309.827 192.489,311.985C192.361,312.386 192.319,312.789 192.315,313.189C193.314,311.749 195.154,311.048 196.911,311.607Z" style="fill:none;stroke-width:1px;stroke:black;"/>
        <path d="M194.427,319.421C196.585,320.107 198.89,318.914 199.577,316.756C199.704,316.355 199.747,315.952 199.75,315.552C199.766,313.8 198.669,312.165 196.912,311.606C195.154,311.048 193.314,311.748 192.316,313.188C192.088,313.517 191.889,313.871 191.762,314.271C191.076,316.429 192.269,318.735 194.427,319.421" style="fill:none;stroke-width:1px;stroke:black;"/>
        <path d="M197.07,327.311C199.334,327.311 201.17,329.147 201.17,331.411C201.17,333.675 199.334,335.511 197.07,335.511C194.806,335.511 192.97,333.675 192.97,331.411C192.97,329.147 194.806,327.311 197.07,327.311Z" style="fill:none;stroke-width:1px;stroke:black;"/>
        <path d="M206.67,346.711C208.934,346.711 210.77,348.547 210.77,350.811C210.77,353.075 208.934,354.911 206.67,354.911C204.406,354.911 202.57,353.075 202.57,350.811C202.57,348.547 204.406,346.711 206.67,346.711Z" style="fill:none;stroke-width:1px;stroke:black;"/>
        <path d="M214.843,352.144C217.108,352.144 218.943,353.98 218.943,356.244C218.943,358.508 217.108,360.344 214.843,360.344C212.579,360.344 210.743,358.508 210.743,356.244C210.743,353.98 212.579,352.144 214.843,352.144Z" style="fill:none;stroke-width:1px;stroke:black;"/>
        <path d="M220.324,359.135C220.034,358.572 219.87,357.934 219.87,357.257C219.87,354.993 221.705,353.157 223.97,353.157C226.234,353.157 228.07,354.993 228.07,357.257C228.07,359.522 226.234,361.357 223.97,361.357C222.382,361.357 221.005,360.455 220.324,359.135" style="fill:none;stroke-width:1px;stroke:black;"/>
        <path d="M201.032,340.642C202.2,340.642 203.248,341.136 203.995,341.92C203.443,340.308 201.931,339.142 200.132,339.142C197.868,339.142 196.032,340.978 196.032,343.242C196.032,344.338 196.468,345.328 197.169,346.064C197.026,345.647 196.932,345.207 196.932,344.742C196.932,342.478 198.768,340.642 201.032,340.642Z" style="fill:none;stroke-width:1px;stroke:black;"/>
        <path d="M203.995,341.92C203.248,341.136 202.2,340.642 201.032,340.642C198.768,340.642 196.932,342.477 196.932,344.742C196.932,345.207 197.026,345.647 197.169,346.064C197.721,347.676 199.233,348.842 201.032,348.842C203.296,348.842 205.132,347.006 205.132,344.742C205.132,343.646 204.696,342.656 203.995,341.92Z" style="fill:none;stroke-width:1px;stroke:black;"/>
    </g>
    <g id="GCG">
        <text x="341.09px" y="369.711px" style="font-family:Karbon;font-size:127.908px;fill:black;">GR<tspan x="475.777px 563.266px " y="369.711px 369.711px ">OU</tspan>P</text>
        <g>
            <text x="323.47px" y="272.31px" style="font-family:Karbon;font-size:89.536px;fill:black;">G<tspan x="376.565px " y="272.31px ">A</tspan></text>
            <text x="425.899px" y="272.31px" style="font-family:Karbon;font-size:89.536px;fill:black;">L</text>
            <text x="466.72px" y="272.31px" style="font-family:Karbon;font-size:89.536px;fill:black;">A</text>
            <text x="512.943px" y="272.31px" style="font-family:Karbon;font-size:89.536px;fill:black;">C<tspan x="563.978px " y="272.31px ">T</tspan>IC CENTER</text>
        </g>
    </g>
    <g id="UCLA Blue">
        <path d="M327.758,182.085C327.46,179.841 327.606,176.575 327.606,174.985L330.986,136.662L343.541,136.662L340.095,175.328C339.356,183.704 342.636,189.673 350.993,189.673C359.541,189.673 364.049,183.598 364.795,176.179L368.359,136.662L380.907,136.662L377.442,175.669C376.029,190.696 366.069,201.957 349.95,201.957C337.388,201.957 329.29,193.825 327.758,182.085" style="fill:rgb(50,132,191);fill-rule:nonzero;"/>
        <path d="M386.003,169.111C387.64,150.696 400.056,135.439 421.509,135.439C427.152,135.439 432.571,136.726 437.99,140.201L436.551,155.414C431.608,148.904 425.733,147.848 420.307,147.848C406.96,147.848 399.64,157.114 398.597,168.857C397.581,180.283 403.482,189.567 416.406,189.567C422.049,189.567 428.03,187.936 434.307,181.667L432.915,197.283C426.816,200.59 421.139,202.101 415.416,202.101C394.194,202.101 384.472,186.326 386.003,169.111" style="fill:rgb(50,132,191);fill-rule:nonzero;"/>
        <path d="M448.003,136.662L460.525,136.662L455.957,188.715L473.898,188.715C475.152,188.715 479.429,188.649 480.597,188.577C480.525,189.217 479.442,200.603 479.442,200.603L442.326,200.603L448.003,136.662Z" style="fill:rgb(50,132,191);fill-rule:nonzero;"/>
        <path d="M516.433,133.72L515.568,133.727L481.284,200.604L494.598,200.604L499.403,190.465L523.548,190.465L526.565,200.624L539.839,200.604L516.433,133.72ZM513.225,160.536C513.634,159.618 514.004,158.499 514.142,157.844C514.149,157.839 514.354,157.839 514.354,157.839C514.413,158.641 514.558,159.605 514.822,160.55C515.509,163.452 520.393,179.658 520.393,179.658L504.578,179.648C504.578,179.648 513.047,160.945 513.225,160.536" style="fill:rgb(50,132,191);fill-rule:nonzero;"/>
    </g>
</svg>
