<?xml version="1.0" standalone="no"?>
<!DOCTYPE svg PUBLIC "-//W3C//DTD SVG 1.1//EN" "http://www.w3.org/Graphics/SVG/1.1/DTD/svg11.dtd">
<svg width="100%" height="100%" viewBox="0 0 1469 417" version="1.1" xmlns="http://www.w3.org/2000/svg" xmlns:xlink="http://www.w3.org/1999/xlink" xml:space="preserve" style="fill-rule:evenodd;clip-rule:evenodd;stroke-miterlimit:10;">
    <g id="Layer 1" transform="matrix(4.16667,0,0,4.16667,0,0)">
        <g>
            <g transform="matrix(0.999989,0,0,1,0.00117461,0)">
                <path d="M116.767,33.345L117.343,32.571L117.633,32.571L117.633,36.764L117.308,36.764C117.205,35.976 116.965,35.248 116.587,34.582C116.209,33.915 115.707,33.386 115.082,32.995C114.456,32.604 113.739,32.409 112.931,32.409C112.134,32.409 111.395,32.659 110.714,33.16C110.032,33.661 109.506,34.292 109.134,35.054C108.691,35.977 108.47,37.171 108.47,38.636C108.47,39.526 108.634,40.425 108.962,41.332C109.29,42.239 109.784,42.991 110.443,43.588C111.102,44.186 111.896,44.485 112.825,44.485C114.026,44.485 115.022,44.097 115.813,43.323C116.604,42.548 117.114,41.567 117.343,40.38L117.686,40.38L117.686,44.397L117.308,44.397L116.802,43.549C115.504,44.425 114.161,44.863 112.772,44.863C111.811,44.863 110.938,44.717 110.153,44.426C109.368,44.134 108.699,43.711 108.147,43.158C107.595,42.604 107.175,41.937 106.886,41.158C106.597,40.379 106.453,39.503 106.453,38.53C106.453,37.297 106.73,36.184 107.284,35.19C107.837,34.197 108.608,33.422 109.595,32.866C110.582,32.309 111.694,32.031 112.931,32.031C113.613,32.031 114.255,32.141 114.855,32.363C115.456,32.584 116.093,32.911 116.767,33.345Z" style="fill:rgb(31,21,22);fill-rule:nonzero;"/>
            </g>
            <g transform="matrix(0.999989,0,0,1,0.00131621,0)">
                <path d="M119.144,40.67C119.144,40.131 119.236,39.616 119.419,39.124C119.602,38.631 119.861,38.199 120.195,37.827C120.529,37.455 120.926,37.164 121.388,36.953C121.849,36.742 122.355,36.636 122.906,36.636C123.48,36.636 124.008,36.74 124.49,36.948C124.972,37.156 125.382,37.447 125.719,37.821C126.055,38.194 126.315,38.63 126.499,39.128C126.682,39.626 126.773,40.164 126.773,40.741C126.773,41.52 126.617,42.219 126.303,42.837C125.99,43.455 125.541,43.938 124.958,44.287C124.375,44.636 123.697,44.81 122.924,44.81C122.15,44.81 121.476,44.627 120.902,44.261C120.328,43.895 119.891,43.397 119.593,42.769C119.294,42.14 119.144,41.441 119.144,40.67ZM120.674,40.741C120.674,41.637 120.855,42.482 121.216,43.276C121.578,44.07 122.153,44.467 122.941,44.467C123.471,44.467 123.91,44.301 124.257,43.969C124.605,43.636 124.856,43.217 125.011,42.712C125.166,42.206 125.244,41.694 125.244,41.176C125.244,38.378 124.482,36.979 122.959,36.979C122.42,36.979 121.978,37.185 121.634,37.596C121.29,38.008 121.044,38.503 120.896,39.082C120.748,39.66 120.674,40.213 120.674,40.741Z" style="fill:rgb(31,21,22);fill-rule:nonzero;"/>
            </g>
            <g transform="matrix(0.999989,0,0,1,0.00141176,0)">
                <path d="M130.297,32.031L130.297,43.281C130.297,43.585 130.327,43.804 130.385,43.938C130.444,44.071 130.536,44.155 130.66,44.188C130.785,44.222 130.995,44.249 131.291,44.27L131.291,44.612L127.832,44.612L127.832,44.27C128.28,44.24 128.567,44.178 128.691,44.083C128.816,43.988 128.878,43.72 128.878,43.281L128.878,34.479C128.878,34.01 128.819,33.666 128.702,33.448C128.585,33.23 128.301,33.104 127.85,33.072L127.85,32.857C128.204,32.766 128.658,32.619 129.212,32.415C129.766,32.212 130.128,32.083 130.297,32.031Z" style="fill:rgb(31,21,22);fill-rule:nonzero;"/>
            </g>
            <g transform="matrix(0.999989,0,0,1,0.00146738,0)">
                <path d="M135.303,32.031L135.303,43.281C135.303,43.585 135.332,43.804 135.391,43.938C135.449,44.071 135.541,44.155 135.665,44.188C135.79,44.222 136,44.249 136.296,44.27L136.296,44.612L132.837,44.612L132.837,44.27C133.286,44.24 133.572,44.178 133.697,44.083C133.821,43.988 133.883,43.72 133.883,43.281L133.883,34.479C133.883,34.01 133.825,33.666 133.708,33.448C133.59,33.23 133.306,33.104 132.855,33.072L132.855,32.857C133.21,32.766 133.664,32.619 134.217,32.415C134.771,32.212 135.133,32.083 135.303,32.031Z" style="fill:rgb(31,21,22);fill-rule:nonzero;"/>
                <path d="M144.878,39.339L138.849,39.339C138.788,39.708 138.757,40.049 138.757,40.363C138.757,40.99 138.89,41.551 139.157,42.046C139.423,42.541 139.798,42.928 140.282,43.206C140.765,43.484 141.319,43.624 141.943,43.624C142.532,43.624 143.077,43.459 143.58,43.129C144.082,42.8 144.443,42.37 144.663,41.839L144.966,41.932C144.776,42.497 144.509,42.998 144.164,43.435C143.82,43.871 143.405,44.209 142.921,44.45C142.436,44.69 141.894,44.81 141.297,44.81C140.093,44.81 139.141,44.437 138.44,43.689C137.74,42.942 137.39,41.954 137.39,40.723C137.39,40.017 137.557,39.347 137.891,38.713C138.225,38.078 138.686,37.574 139.273,37.199C139.861,36.824 140.516,36.636 141.24,36.636C142.165,36.636 142.953,36.866 143.602,37.326C144.251,37.786 144.676,38.457 144.878,39.339ZM138.972,38.926L142.699,38.926C142.611,37.651 142.064,37.014 141.06,37.014C140.107,37.014 139.412,37.651 138.972,38.926Z" style="fill:rgb(31,21,22);fill-rule:nonzero;"/>
                <path d="M149.501,36.636C150.278,36.636 151.034,36.876 151.769,37.357C151.936,37.26 152.103,37.164 152.27,37.069C152.437,36.974 152.601,36.893 152.762,36.827C152.923,36.761 153.077,36.729 153.223,36.729C153.434,36.729 153.604,36.793 153.733,36.922C153.862,37.051 153.927,37.221 153.927,37.432C153.927,37.593 153.875,37.726 153.773,37.832C153.67,37.937 153.536,37.99 153.369,37.99C153.237,37.99 153.062,37.911 152.843,37.755C152.625,37.598 152.453,37.52 152.327,37.52C152.227,37.52 152.119,37.562 152.002,37.647C152.21,37.911 152.358,38.154 152.446,38.376C152.534,38.599 152.577,38.872 152.577,39.194C152.577,40.046 152.289,40.713 151.712,41.193C151.135,41.674 150.41,41.914 149.536,41.914C149.317,41.914 148.896,41.848 148.275,41.716C147.991,41.898 147.776,42.064 147.629,42.215C147.483,42.366 147.41,42.564 147.41,42.811C147.41,43.212 147.596,43.489 147.97,43.643C148.343,43.797 148.889,43.874 149.607,43.874C150.688,43.874 151.691,44.007 152.615,44.274C153.539,44.541 154.001,45.151 154.001,46.106C154.001,46.783 153.771,47.297 153.309,47.649C152.848,48 152.305,48.228 151.681,48.33C151.057,48.433 150.377,48.484 149.642,48.484C149.103,48.484 148.559,48.447 148.012,48.372C147.464,48.297 146.977,48.135 146.553,47.886C146.128,47.637 145.915,47.272 145.915,46.792C145.915,46.344 146.068,45.949 146.375,45.608C146.681,45.266 147.062,45.006 147.519,44.828C146.907,44.453 146.601,43.955 146.601,43.333C146.601,42.888 146.709,42.537 146.926,42.279C147.143,42.021 147.478,41.773 147.932,41.536C147.068,41.076 146.636,40.307 146.636,39.229C146.636,38.728 146.769,38.28 147.036,37.884C147.303,37.489 147.657,37.182 148.099,36.964C148.542,36.745 149.009,36.636 149.501,36.636ZM148.06,39.339C148.06,39.919 148.18,40.427 148.42,40.862C148.661,41.297 149.05,41.514 149.589,41.514C150.137,41.514 150.538,41.295 150.791,40.857C151.045,40.419 151.171,39.901 151.171,39.304C151.171,38.686 151.05,38.149 150.809,37.695C150.567,37.241 150.166,37.014 149.607,37.014C149.056,37.014 148.661,37.248 148.42,37.715C148.18,38.182 148.06,38.724 148.06,39.339ZM146.909,46.484C146.909,46.994 147.07,47.374 147.394,47.625C147.718,47.875 148.091,48.03 148.515,48.088C148.938,48.147 149.446,48.176 150.037,48.176C150.823,48.176 151.517,48.063 152.12,47.838C152.724,47.612 153.026,47.179 153.026,46.537C153.026,46.127 152.909,45.827 152.676,45.636C152.443,45.446 152.154,45.329 151.808,45.287C151.463,45.244 150.993,45.223 150.398,45.223C149.161,45.223 148.316,45.146 147.862,44.99C147.634,45.081 147.418,45.285 147.214,45.601C147.01,45.917 146.909,46.212 146.909,46.484Z" style="fill:rgb(31,21,22);fill-rule:nonzero;"/>
                <path d="M162.078,39.339L156.049,39.339C155.988,39.708 155.957,40.049 155.957,40.363C155.957,40.99 156.09,41.551 156.357,42.046C156.623,42.541 156.998,42.928 157.482,43.206C157.965,43.484 158.519,43.624 159.143,43.624C159.732,43.624 160.277,43.459 160.78,43.129C161.282,42.8 161.643,42.37 161.863,41.839L162.166,41.932C161.976,42.497 161.709,42.998 161.364,43.435C161.02,43.871 160.605,44.209 160.121,44.45C159.636,44.69 159.094,44.81 158.497,44.81C157.293,44.81 156.341,44.437 155.64,43.689C154.94,42.942 154.59,41.954 154.59,40.723C154.59,40.017 154.757,39.347 155.091,38.713C155.425,38.078 155.886,37.574 156.473,37.199C157.061,36.824 157.716,36.636 158.44,36.636C159.365,36.636 160.153,36.866 160.802,37.326C161.451,37.786 161.876,38.457 162.078,39.339ZM156.172,38.926L159.899,38.926C159.811,37.651 159.264,37.014 158.26,37.014C157.307,37.014 156.612,37.651 156.172,38.926Z" style="fill:rgb(31,21,22);fill-rule:nonzero;"/>
            </g>
            <g transform="matrix(0.999989,0,0,1,0.000410356,0)">
                <path d="M47.892,74.711L38.101,74.711L38.101,74.333C38.599,74.333 38.958,74.271 39.178,74.148C39.397,74.025 39.507,73.751 39.507,73.327L39.507,63.676C39.507,63.257 39.385,62.985 39.14,62.859C38.896,62.733 38.532,62.67 38.048,62.67L38.048,62.292L47.228,62.292L48.112,65.188L47.734,65.28C47.142,64.363 46.638,63.739 46.222,63.408C45.61,62.916 44.889,62.67 44.06,62.67L41.322,62.67L41.322,68.194L42.315,68.194C42.969,68.188 43.478,68.135 43.845,68.036C44.211,67.936 44.505,67.726 44.728,67.405C44.951,67.084 45.129,66.591 45.264,65.926L45.554,65.926L45.554,71.112L45.264,71.112C45.203,70.447 45.072,69.941 44.873,69.593C44.674,69.246 44.392,69.008 44.027,68.877C43.662,68.747 43.169,68.682 42.548,68.682L41.322,68.682L41.322,73.45C41.322,73.819 41.428,74.058 41.639,74.168C41.85,74.278 42.159,74.333 42.566,74.333L44.583,74.333C45.022,74.333 45.385,74.283 45.671,74.184C45.956,74.084 46.272,73.87 46.618,73.542C47.195,72.997 47.759,72.282 48.309,71.397L48.613,71.49L47.892,74.711Z" style="fill:rgb(33,31,31);fill-rule:nonzero;"/>
            </g>
            <g transform="matrix(0.999989,0,0,1,0.000550785,0)">
                <path d="M54.449,70.158L54.449,68.194C54.449,67.57 54.077,67.258 53.332,67.258C52.984,67.258 52.633,67.346 52.28,67.521C51.927,67.697 51.75,67.898 51.75,68.123C51.75,68.15 51.753,68.206 51.759,68.29C51.765,68.375 51.768,68.452 51.768,68.519C51.768,68.906 51.704,69.197 51.577,69.394C51.449,69.59 51.207,69.688 50.849,69.688C50.694,69.688 50.565,69.624 50.463,69.497C50.36,69.369 50.309,69.229 50.309,69.077C50.309,68.734 50.516,68.379 50.931,68.011C51.345,67.644 51.855,67.339 52.46,67.097C53.065,66.856 53.619,66.735 54.123,66.735C54.665,66.735 55.083,66.889 55.376,67.198C55.669,67.508 55.815,67.936 55.815,68.484L55.815,73.309C55.815,73.872 55.954,74.153 56.233,74.153C56.476,74.153 56.643,73.949 56.734,73.542L57.024,73.542C56.927,74.453 56.489,74.909 55.71,74.909C55.382,74.909 55.095,74.782 54.849,74.529C54.602,74.275 54.475,73.987 54.466,73.665C54.258,73.826 54.05,73.987 53.842,74.146C53.634,74.306 53.439,74.44 53.258,74.548C53.076,74.657 52.874,74.744 52.651,74.81C52.429,74.876 52.188,74.909 51.931,74.909C51.661,74.909 51.401,74.841 51.151,74.704C50.9,74.568 50.7,74.384 50.551,74.153C50.401,73.921 50.327,73.664 50.327,73.379C50.327,72.916 50.461,72.514 50.729,72.173C50.997,71.832 51.337,71.545 51.75,71.312C52.163,71.079 52.583,70.88 53.009,70.716C53.436,70.552 53.915,70.366 54.449,70.158ZM54.449,73.269L54.449,70.554C54.144,70.677 53.749,70.839 53.264,71.041C52.779,71.244 52.373,71.474 52.045,71.731C51.717,71.989 51.553,72.287 51.553,72.623C51.553,72.998 51.676,73.317 51.922,73.579C52.168,73.842 52.475,73.973 52.845,73.973C53.149,73.973 53.412,73.917 53.633,73.806C53.855,73.694 54.126,73.516 54.449,73.269Z" style="fill:rgb(33,31,31);fill-rule:nonzero;"/>
            </g>
            <g transform="matrix(0.999989,0,0,1,0.000640714,0)">
                <path d="M61.914,74.711L58.332,74.711L58.332,74.368C58.76,74.339 59.035,74.277 59.156,74.181C59.278,74.086 59.339,73.819 59.339,73.379L59.339,68.827C59.339,68.601 59.314,68.432 59.266,68.319C59.218,68.206 59.148,68.122 59.057,68.066C58.966,68.011 58.785,67.915 58.512,67.781L58.512,67.601C58.832,67.492 59.232,67.331 59.714,67.117C60.196,66.903 60.532,66.758 60.723,66.682L60.723,67.978C60.787,67.905 60.905,67.766 61.077,67.561C61.248,67.356 61.401,67.191 61.536,67.067C61.671,66.942 61.824,66.835 61.995,66.746C62.166,66.656 62.343,66.612 62.525,66.612C62.803,66.612 63.031,66.682 63.21,66.823C63.389,66.963 63.478,67.168 63.478,67.438C63.478,67.637 63.411,67.801 63.276,67.93C63.141,68.059 62.98,68.123 62.793,68.123C62.719,68.123 62.569,68.072 62.34,67.97C62.111,67.867 61.909,67.816 61.734,67.816C61.578,67.816 61.378,67.913 61.132,68.106C60.885,68.299 60.762,68.466 60.762,68.607L60.762,73.379C60.762,73.687 60.794,73.907 60.857,74.039C60.92,74.17 61.022,74.253 61.164,74.287C61.307,74.321 61.556,74.348 61.914,74.368L61.914,74.711Z" style="fill:rgb(33,31,31);fill-rule:nonzero;"/>
            </g>
            <g transform="matrix(0.999989,0,0,1,0.000711759,0)">
                <path d="M69.261,67.833L67.064,67.833L67.064,72.588C67.064,73.078 67.148,73.436 67.317,73.665C67.485,73.894 67.802,74.008 68.268,74.008C68.561,74.008 69.048,73.792 69.727,73.362C69.824,73.409 69.872,73.469 69.872,73.542C69.872,73.592 69.852,73.642 69.813,73.691C69.773,73.741 69.719,73.795 69.65,73.852C69.581,73.909 69.535,73.949 69.512,73.973C69.269,74.263 68.962,74.491 68.591,74.658C68.221,74.825 67.849,74.909 67.477,74.909C66.862,74.909 66.402,74.709 66.097,74.309C65.793,73.909 65.64,73.395 65.64,72.769L65.64,67.833L64.704,67.833L64.704,67.671C64.748,67.627 65.069,67.331 65.667,66.783C66.264,66.235 66.707,65.8 66.994,65.478L67.029,65.478L67.029,66.937L69.692,66.937L69.261,67.833Z" style="fill:rgb(33,31,31);fill-rule:nonzero;"/>
            </g>
            <g transform="matrix(0.999989,0,0,1,0.000779471,0)">
                <path d="M74.31,74.711L70.855,74.711L70.855,74.368C71.301,74.339 71.586,74.277 71.71,74.181C71.835,74.086 71.897,73.819 71.897,73.379L71.897,64.019C71.897,63.764 71.816,63.579 71.655,63.463C71.494,63.347 71.269,63.257 70.979,63.193L70.979,63.048C71.327,62.904 71.74,62.741 72.218,62.558C72.695,62.375 73.063,62.232 73.321,62.129L73.321,68.014C73.793,67.574 74.211,67.251 74.578,67.045C74.944,66.838 75.377,66.735 75.878,66.735C76.441,66.735 76.908,66.875 77.278,67.157C77.649,67.438 77.919,67.807 78.089,68.264C78.259,68.721 78.344,69.221 78.344,69.763L78.344,73.379C78.344,73.684 78.373,73.902 78.432,74.034C78.49,74.166 78.583,74.249 78.711,74.285C78.838,74.32 79.057,74.348 79.368,74.368L79.368,74.711L75.949,74.711L75.949,74.368C76.359,74.339 76.623,74.277 76.742,74.181C76.861,74.086 76.92,73.819 76.92,73.379L76.92,69.763C76.92,69.139 76.784,68.601 76.511,68.15C76.239,67.699 75.805,67.473 75.21,67.473C74.891,67.473 74.624,67.527 74.408,67.634C74.193,67.74 73.998,67.885 73.824,68.069C73.65,68.252 73.482,68.431 73.321,68.607L73.321,73.379C73.321,73.819 73.381,74.086 73.501,74.181C73.621,74.277 73.891,74.339 74.31,74.368L74.31,74.711Z" style="fill:rgb(33,31,31);fill-rule:nonzero;"/>
            </g>
            <g transform="matrix(0.999989,0,0,1,0.000890651,0)">
                <path d="M81.508,77.554L81.328,77.211C81.653,76.977 81.953,76.695 82.228,76.365C82.504,76.036 82.642,75.719 82.642,75.414C82.642,75.186 82.576,75.028 82.444,74.942C82.312,74.855 82.105,74.771 81.822,74.689C81.539,74.607 81.326,74.503 81.183,74.377C81.039,74.251 80.967,74.044 80.967,73.757C80.967,73.494 81.065,73.275 81.262,73.1C81.458,72.926 81.691,72.839 81.96,72.839C82.42,72.839 82.778,73.026 83.033,73.401C83.288,73.776 83.415,74.207 83.415,74.693C83.415,75.766 82.779,76.719 81.508,77.554Z" style="fill:rgb(33,31,31);fill-rule:nonzero;"/>
            </g>
            <g transform="matrix(0.999989,0,0,1,0.000942873,0)">
                <path d="M90.602,62.67L90.602,62.292C91.73,62.269 93.457,62.257 95.783,62.257C96.598,62.257 97.333,62.39 97.989,62.657C98.645,62.923 99.168,63.336 99.558,63.896C99.948,64.456 100.143,65.144 100.143,65.961C100.143,66.82 99.892,67.508 99.391,68.027C98.89,68.545 98.288,68.907 97.585,69.112C96.882,69.317 96.192,69.42 95.515,69.42L93.749,69.42L93.749,73.327C93.749,73.748 93.876,74.022 94.131,74.146C94.386,74.271 94.787,74.333 95.335,74.333L95.335,74.711L90.637,74.711L90.637,74.333C91,74.333 91.269,74.312 91.441,74.269C91.614,74.227 91.739,74.134 91.817,73.992C91.895,73.85 91.934,73.628 91.934,73.327L91.934,63.676C91.934,63.248 91.836,62.974 91.641,62.852C91.447,62.731 91.1,62.67 90.602,62.67ZM93.749,63.676L93.749,69.042L94.975,69.042C95.722,69.042 96.324,68.953 96.781,68.776C97.238,68.599 97.585,68.271 97.822,67.794C98.06,67.316 98.178,66.64 98.178,65.764C98.178,65.131 98.08,64.58 97.884,64.111C97.687,63.643 97.379,63.279 96.959,63.021C96.538,62.764 96.009,62.635 95.37,62.635C94.913,62.635 94.578,62.653 94.366,62.69C94.154,62.726 93.998,62.817 93.898,62.962C93.798,63.107 93.749,63.345 93.749,63.676Z" style="fill:rgb(33,31,31);fill-rule:nonzero;"/>
            </g>
            <g transform="matrix(0.999989,0,0,1,0.00111709,0)">
                <path d="M103.777,62.129L103.777,73.379C103.777,73.684 103.806,73.903 103.865,74.036C103.923,74.17 104.015,74.253 104.139,74.287C104.264,74.321 104.474,74.348 104.77,74.368L104.77,74.711L101.311,74.711L101.311,74.368C101.76,74.339 102.046,74.277 102.17,74.181C102.295,74.086 102.357,73.819 102.357,73.379L102.357,64.577C102.357,64.108 102.299,63.765 102.181,63.547C102.064,63.328 101.78,63.203 101.329,63.171L101.329,62.956C101.683,62.865 102.138,62.717 102.691,62.514C103.245,62.31 103.607,62.182 103.777,62.129Z" style="fill:rgb(33,31,31);fill-rule:nonzero;"/>
            </g>
            <g transform="matrix(0.999989,0,0,1,0.00117159,0)">
                <path d="M110.321,70.158L110.321,68.194C110.321,67.57 109.949,67.258 109.205,67.258C108.856,67.258 108.505,67.346 108.152,67.521C107.799,67.697 107.623,67.898 107.623,68.123C107.623,68.15 107.626,68.206 107.632,68.29C107.638,68.375 107.64,68.452 107.64,68.519C107.64,68.906 107.577,69.197 107.449,69.394C107.322,69.59 107.079,69.688 106.722,69.688C106.567,69.688 106.438,69.624 106.335,69.497C106.233,69.369 106.181,69.229 106.181,69.077C106.181,68.734 106.389,68.379 106.803,68.011C107.218,67.644 107.728,67.339 108.333,67.097C108.938,66.856 109.492,66.735 109.996,66.735C110.538,66.735 110.955,66.889 111.248,67.198C111.541,67.508 111.688,67.936 111.688,68.484L111.688,73.309C111.688,73.872 111.827,74.153 112.105,74.153C112.348,74.153 112.515,73.949 112.606,73.542L112.896,73.542C112.8,74.453 112.362,74.909 111.582,74.909C111.254,74.909 110.967,74.782 110.721,74.529C110.475,74.275 110.348,73.987 110.339,73.665C110.131,73.826 109.923,73.987 109.715,74.146C109.507,74.306 109.312,74.44 109.13,74.548C108.949,74.657 108.746,74.744 108.524,74.81C108.301,74.876 108.061,74.909 107.803,74.909C107.534,74.909 107.274,74.841 107.023,74.704C106.773,74.568 106.573,74.384 106.423,74.153C106.274,73.921 106.199,73.664 106.199,73.379C106.199,72.916 106.333,72.514 106.601,72.173C106.869,71.832 107.21,71.545 107.623,71.312C108.036,71.079 108.456,70.88 108.882,70.716C109.308,70.552 109.788,70.366 110.321,70.158ZM110.321,73.269L110.321,70.554C110.016,70.677 109.622,70.839 109.137,71.041C108.652,71.244 108.245,71.474 107.917,71.731C107.589,71.989 107.425,72.287 107.425,72.623C107.425,72.998 107.548,73.317 107.794,73.579C108.04,73.842 108.348,73.973 108.717,73.973C109.022,73.973 109.285,73.917 109.506,73.806C109.727,73.694 109.999,73.516 110.321,73.269Z" style="fill:rgb(33,31,31);fill-rule:nonzero;"/>
            </g>
            <g transform="matrix(0.999989,0,0,1,0.00126152,0)">
                <path d="M117.747,74.711L114.275,74.711L114.275,74.368C114.723,74.339 115.01,74.277 115.134,74.181C115.259,74.086 115.321,73.819 115.321,73.379L115.321,68.915C115.321,68.578 115.254,68.326 115.121,68.161C114.988,67.995 114.76,67.869 114.438,67.781L114.438,67.583C114.675,67.513 114.914,67.434 115.156,67.346C115.398,67.258 115.643,67.165 115.892,67.067C116.141,66.968 116.424,66.858 116.74,66.735L116.74,68.106C117.092,67.748 117.363,67.488 117.553,67.324C117.744,67.16 117.975,67.02 118.248,66.906C118.52,66.792 118.834,66.735 119.188,66.735C119.619,66.735 120.038,66.84 120.445,67.051C120.852,67.262 121.183,67.549 121.436,67.913C121.689,68.276 121.816,68.676 121.816,69.112L121.816,73.379C121.816,73.798 121.899,74.059 122.064,74.162C122.23,74.264 122.513,74.333 122.915,74.368L122.915,74.711L119.351,74.711L119.351,74.368C119.799,74.339 120.085,74.277 120.21,74.181C120.334,74.086 120.397,73.819 120.397,73.379L120.397,69.42C120.397,68.84 120.24,68.38 119.926,68.04C119.613,67.7 119.169,67.53 118.595,67.53C118.337,67.53 118.062,67.606 117.771,67.757C117.479,67.907 117.235,68.105 117.037,68.35C116.839,68.594 116.74,68.849 116.74,69.112L116.74,73.379C116.74,73.819 116.801,74.086 116.923,74.181C117.044,74.277 117.319,74.339 117.747,74.368L117.747,74.711Z" style="fill:rgb(33,31,31);fill-rule:nonzero;"/>
            </g>
            <g transform="matrix(0.999989,0,0,1,0.00137048,0)">
                <path d="M131.552,69.437L125.523,69.437C125.461,69.807 125.43,70.148 125.43,70.461C125.43,71.088 125.564,71.649 125.83,72.144C126.097,72.64 126.472,73.026 126.955,73.305C127.439,73.583 127.992,73.722 128.616,73.722C129.205,73.722 129.751,73.557 130.253,73.228C130.756,72.898 131.117,72.468 131.337,71.938L131.64,72.03C131.449,72.596 131.182,73.097 130.838,73.533C130.494,73.97 130.079,74.308 129.594,74.548C129.109,74.789 128.568,74.909 127.97,74.909C126.766,74.909 125.814,74.535 125.114,73.788C124.414,73.041 124.064,72.052 124.064,70.822C124.064,70.116 124.231,69.446 124.565,68.811C124.899,68.177 125.359,67.672 125.947,67.297C126.534,66.922 127.19,66.735 127.913,66.735C128.839,66.735 129.626,66.965 130.275,67.425C130.924,67.885 131.35,68.556 131.552,69.437ZM125.646,69.024L129.372,69.024C129.284,67.75 128.738,67.113 127.733,67.113C126.781,67.113 126.085,67.75 125.646,69.024Z" style="fill:rgb(33,31,31);fill-rule:nonzero;"/>
            </g>
            <g transform="matrix(0.999989,0,0,1,0.00146047,0)">
                <path d="M136.645,67.833L134.448,67.833L134.448,72.588C134.448,73.078 134.532,73.436 134.701,73.665C134.869,73.894 135.186,74.008 135.652,74.008C135.945,74.008 136.431,73.792 137.111,73.362C137.208,73.409 137.256,73.469 137.256,73.542C137.256,73.592 137.236,73.642 137.197,73.691C137.157,73.741 137.103,73.795 137.034,73.852C136.965,73.909 136.919,73.949 136.896,73.973C136.652,74.263 136.346,74.491 135.975,74.658C135.604,74.825 135.233,74.909 134.861,74.909C134.246,74.909 133.786,74.709 133.481,74.309C133.176,73.909 133.024,73.395 133.024,72.769L133.024,67.833L132.088,67.833L132.088,67.671C132.132,67.627 132.453,67.331 133.05,66.783C133.648,66.235 134.09,65.8 134.378,65.478L134.413,65.478L134.413,66.937L137.076,66.937L136.645,67.833Z" style="fill:rgb(33,31,31);fill-rule:nonzero;"/>
            </g>
            <g transform="matrix(0.999989,0,0,1,0.00153151,0)">
                <path d="M142.714,70.158L142.714,68.194C142.714,67.57 142.342,67.258 141.598,67.258C141.249,67.258 140.898,67.346 140.545,67.521C140.192,67.697 140.016,67.898 140.016,68.123C140.016,68.15 140.019,68.206 140.025,68.29C140.03,68.375 140.033,68.452 140.033,68.519C140.033,68.906 139.97,69.197 139.842,69.394C139.715,69.59 139.472,69.688 139.115,69.688C138.96,69.688 138.831,69.624 138.728,69.497C138.626,69.369 138.574,69.229 138.574,69.077C138.574,68.734 138.782,68.379 139.196,68.011C139.611,67.644 140.121,67.339 140.726,67.097C141.33,66.856 141.885,66.735 142.389,66.735C142.931,66.735 143.348,66.889 143.641,67.198C143.934,67.508 144.081,67.936 144.081,68.484L144.081,73.309C144.081,73.872 144.22,74.153 144.498,74.153C144.741,74.153 144.908,73.949 144.999,73.542L145.289,73.542C145.193,74.453 144.755,74.909 143.975,74.909C143.647,74.909 143.36,74.782 143.114,74.529C142.868,74.275 142.74,73.987 142.732,73.665C142.524,73.826 142.316,73.987 142.108,74.146C141.9,74.306 141.705,74.44 141.523,74.548C141.341,74.657 141.139,74.744 140.917,74.81C140.694,74.876 140.454,74.909 140.196,74.909C139.926,74.909 139.666,74.841 139.416,74.704C139.165,74.568 138.966,74.384 138.816,74.153C138.667,73.921 138.592,73.664 138.592,73.379C138.592,72.916 138.726,72.514 138.994,72.173C139.262,71.832 139.603,71.545 140.016,71.312C140.429,71.079 140.849,70.88 141.275,70.716C141.701,70.552 142.181,70.366 142.714,70.158ZM142.714,73.269L142.714,70.554C142.409,70.677 142.015,70.839 141.53,71.041C141.045,71.244 140.638,71.474 140.31,71.731C139.982,71.989 139.818,72.287 139.818,72.623C139.818,72.998 139.941,73.317 140.187,73.579C140.433,73.842 140.741,73.973 141.11,73.973C141.415,73.973 141.678,73.917 141.899,73.806C142.12,73.694 142.392,73.516 142.714,73.269Z" style="fill:rgb(33,31,31);fill-rule:nonzero;"/>
                <path d="M150.179,74.711L146.598,74.711L146.598,74.368C147.025,74.339 147.3,74.277 147.422,74.181C147.543,74.086 147.604,73.819 147.604,73.379L147.604,68.827C147.604,68.601 147.58,68.432 147.532,68.319C147.483,68.206 147.414,68.122 147.323,68.066C147.232,68.011 147.05,67.915 146.778,67.781L146.778,67.601C147.097,67.492 147.498,67.331 147.98,67.117C148.462,66.903 148.798,66.758 148.988,66.682L148.988,67.978C149.053,67.905 149.171,67.766 149.342,67.561C149.514,67.356 149.667,67.191 149.801,67.067C149.936,66.942 150.089,66.835 150.261,66.746C150.432,66.656 150.608,66.612 150.79,66.612C151.068,66.612 151.297,66.682 151.476,66.823C151.654,66.963 151.744,67.168 151.744,67.438C151.744,67.637 151.676,67.801 151.542,67.93C151.407,68.059 151.246,68.123 151.058,68.123C150.985,68.123 150.834,68.072 150.606,67.97C150.377,67.867 150.175,67.816 149.999,67.816C149.844,67.816 149.643,67.913 149.397,68.106C149.151,68.299 149.028,68.466 149.028,68.607L149.028,73.379C149.028,73.687 149.059,73.907 149.122,74.039C149.185,74.17 149.288,74.253 149.43,74.287C149.572,74.321 149.822,74.348 150.179,74.368L150.179,74.711Z" style="fill:rgb(33,31,31);fill-rule:nonzero;"/>
            </g>
            <g transform="matrix(0.999989,0,0,1,0.00169516,0)">
                <path d="M152.709,67.275L152.709,66.937L156.616,66.937L156.616,67.275C155.725,67.275 155.28,67.444 155.28,67.781C155.28,67.866 155.353,68.046 155.5,68.321L157.965,72.909L159.402,68.752C159.537,68.333 159.604,68.04 159.604,67.873C159.604,67.615 159.492,67.455 159.268,67.392C159.044,67.329 158.73,67.29 158.326,67.275L158.326,66.937L161.367,66.937L161.367,67.275C160.951,67.275 160.655,67.352 160.481,67.506C160.307,67.66 160.146,67.949 160,68.374L157.099,76.693C156.891,77.279 156.667,77.74 156.427,78.077C156.187,78.414 155.841,78.582 155.39,78.582C155.2,78.582 155.038,78.51 154.904,78.365C154.771,78.22 154.704,78.052 154.704,77.862C154.704,77.645 154.765,77.47 154.887,77.337C155.008,77.203 155.176,77.132 155.39,77.123C155.451,77.129 155.545,77.147 155.671,77.176C155.797,77.206 155.895,77.223 155.966,77.229C156.194,77.229 156.371,77.151 156.495,76.994C156.62,76.837 156.726,76.628 156.814,76.368L157.372,74.583L153.878,68.211C153.793,68.059 153.713,67.915 153.637,67.781C153.56,67.646 153.494,67.553 153.437,67.502C153.379,67.45 153.303,67.409 153.206,67.379C153.109,67.348 152.944,67.313 152.709,67.275Z" style="fill:rgb(33,31,31);fill-rule:nonzero;"/>
            </g>
            <g transform="matrix(0.999989,0,0,1,0.00178824,0)">
                <path d="M162.291,77.554L162.111,77.211C162.436,76.977 162.736,76.695 163.011,76.365C163.287,76.036 163.425,75.719 163.425,75.414C163.425,75.186 163.359,75.028 163.227,74.942C163.095,74.855 162.888,74.771 162.605,74.689C162.322,74.607 162.109,74.503 161.966,74.377C161.822,74.251 161.75,74.044 161.75,73.757C161.75,73.494 161.848,73.275 162.045,73.1C162.241,72.926 162.474,72.839 162.743,72.839C163.203,72.839 163.561,73.026 163.816,73.401C164.071,73.776 164.198,74.207 164.198,74.693C164.198,75.766 163.562,76.719 162.291,77.554Z" style="fill:rgb(33,31,31);fill-rule:nonzero;"/>
            </g>
            <g transform="matrix(0.999989,0,0,1,0.00184046,0)">
            </g>
            <g transform="matrix(0.999989,0,0,1,0.00189246,0)">
                <path d="M175.199,70.158L175.199,68.194C175.199,67.57 174.827,67.258 174.083,67.258C173.735,67.258 173.384,67.346 173.031,67.521C172.678,67.697 172.501,67.898 172.501,68.123C172.501,68.15 172.504,68.206 172.51,68.29C172.516,68.375 172.519,68.452 172.519,68.519C172.519,68.906 172.455,69.197 172.328,69.394C172.2,69.59 171.958,69.688 171.6,69.688C171.445,69.688 171.316,69.624 171.214,69.497C171.111,69.369 171.06,69.229 171.06,69.077C171.06,68.734 171.267,68.379 171.682,68.011C172.096,67.644 172.606,67.339 173.211,67.097C173.816,66.856 174.37,66.735 174.874,66.735C175.416,66.735 175.834,66.889 176.127,67.198C176.42,67.508 176.566,67.936 176.566,68.484L176.566,73.309C176.566,73.872 176.705,74.153 176.984,74.153C177.227,74.153 177.394,73.949 177.485,73.542L177.775,73.542C177.678,74.453 177.24,74.909 176.461,74.909C176.133,74.909 175.845,74.782 175.599,74.529C175.353,74.275 175.226,73.987 175.217,73.665C175.009,73.826 174.801,73.987 174.593,74.146C174.385,74.306 174.19,74.44 174.009,74.548C173.827,74.657 173.625,74.744 173.402,74.81C173.179,74.876 172.939,74.909 172.681,74.909C172.412,74.909 172.152,74.841 171.901,74.704C171.651,74.568 171.451,74.384 171.301,74.153C171.152,73.921 171.077,73.664 171.077,73.379C171.077,72.916 171.211,72.514 171.479,72.173C171.748,71.832 172.088,71.545 172.501,71.312C172.914,71.079 173.334,70.88 173.76,70.716C174.187,70.552 174.666,70.366 175.199,70.158ZM175.199,73.269L175.199,70.554C174.895,70.677 174.5,70.839 174.015,71.041C173.53,71.244 173.124,71.474 172.796,71.731C172.468,71.989 172.303,72.287 172.303,72.623C172.303,72.998 172.426,73.317 172.673,73.579C172.919,73.842 173.226,73.973 173.595,73.973C173.9,73.973 174.163,73.917 174.384,73.806C174.605,73.694 174.877,73.516 175.199,73.269Z" style="fill:rgb(33,31,31);fill-rule:nonzero;"/>
            </g>
            <g transform="matrix(0.999989,0,0,1,0.00198239,0)">
                <path d="M182.625,74.711L179.153,74.711L179.153,74.368C179.602,74.339 179.888,74.277 180.012,74.181C180.137,74.086 180.199,73.819 180.199,73.379L180.199,68.915C180.199,68.578 180.133,68.326 179.999,68.161C179.866,67.995 179.638,67.869 179.316,67.781L179.316,67.583C179.553,67.513 179.793,67.434 180.034,67.346C180.276,67.258 180.522,67.165 180.771,67.067C181.02,66.968 181.302,66.858 181.619,66.735L181.619,68.106C181.97,67.748 182.241,67.488 182.432,67.324C182.622,67.16 182.854,67.02 183.126,66.906C183.398,66.792 183.712,66.735 184.066,66.735C184.497,66.735 184.916,66.84 185.323,67.051C185.731,67.262 186.061,67.549 186.314,67.913C186.568,68.276 186.694,68.676 186.694,69.112L186.694,73.379C186.694,73.798 186.777,74.059 186.943,74.162C187.108,74.264 187.392,74.333 187.793,74.368L187.793,74.711L184.229,74.711L184.229,74.368C184.677,74.339 184.964,74.277 185.088,74.181C185.213,74.086 185.275,73.819 185.275,73.379L185.275,69.42C185.275,68.84 185.118,68.38 184.805,68.04C184.491,67.7 184.047,67.53 183.473,67.53C183.215,67.53 182.941,67.606 182.649,67.757C182.358,67.907 182.113,68.105 181.915,68.35C181.718,68.594 181.619,68.849 181.619,69.112L181.619,73.379C181.619,73.819 181.679,74.086 181.801,74.181C181.923,74.277 182.197,74.339 182.625,74.368L182.625,74.711Z" style="fill:rgb(33,31,31);fill-rule:nonzero;"/>
            </g>
            <g transform="matrix(0.999989,0,0,1,0.00209357,0)">
                <path d="M195.101,67.293L195.101,64.45C195.101,64.078 195.007,63.79 194.818,63.586C194.629,63.383 194.351,63.281 193.985,63.281L193.985,63.118C194.216,63.036 194.621,62.876 195.198,62.637C195.775,62.398 196.216,62.229 196.52,62.129L196.52,73.81L197.456,74.1L197.456,74.223L195.101,74.909L195.101,73.665L195.061,73.665C194.437,74.494 193.61,74.909 192.579,74.909C191.864,74.909 191.243,74.724 190.717,74.355C190.192,73.986 189.792,73.496 189.518,72.885C189.244,72.274 189.107,71.617 189.107,70.914C189.107,70.111 189.262,69.394 189.573,68.761C189.883,68.128 190.334,67.632 190.924,67.273C191.514,66.914 192.209,66.735 193.009,66.735C193.63,66.735 194.328,66.921 195.101,67.293ZM195.101,73.234L195.101,69.653C195.101,68.671 194.864,67.997 194.389,67.629C193.914,67.261 193.437,67.078 192.956,67.078C192.373,67.078 191.903,67.251 191.546,67.598C191.188,67.946 190.935,68.383 190.786,68.91C190.636,69.437 190.561,69.985 190.561,70.554C190.561,71.479 190.712,72.213 191.014,72.755C191.316,73.297 191.666,73.669 192.064,73.869C192.463,74.07 192.832,74.17 193.172,74.17C193.875,74.17 194.518,73.858 195.101,73.234Z" style="fill:rgb(33,31,31);fill-rule:nonzero;"/>
            </g>
            <g transform="matrix(0.999989,0,0,1,0.00220697,0)">
            </g>
            <g transform="matrix(0.999989,0,0,1,0.00225897,0)">
                <path d="M204.191,74.711L204.191,70.949L204.551,70.949C204.619,71.462 204.731,71.932 204.887,72.36C205.044,72.788 205.261,73.169 205.538,73.505C205.815,73.84 206.159,74.104 206.57,74.296C206.982,74.488 207.454,74.583 207.988,74.583C208.717,74.583 209.299,74.439 209.732,74.151C210.166,73.862 210.466,73.518 210.633,73.118C210.8,72.718 210.884,72.336 210.884,71.973C210.884,71.519 210.775,71.143 210.558,70.844C210.342,70.545 210.065,70.308 209.728,70.132C209.391,69.956 208.89,69.759 208.225,69.541C207.56,69.322 207.169,69.191 207.052,69.147C206.272,68.849 205.664,68.449 205.226,67.948C204.788,67.447 204.569,66.713 204.569,65.746C204.569,65.028 204.74,64.395 205.083,63.848C205.426,63.3 205.891,62.876 206.48,62.578C207.069,62.279 207.715,62.129 208.418,62.129C208.949,62.129 209.474,62.217 209.994,62.393C210.514,62.569 210.955,62.822 211.319,63.153L211.859,62.687L212.11,62.687L212.11,66.379L211.785,66.379C211.629,65.805 211.484,65.319 211.349,64.922C211.215,64.525 211.035,64.141 210.811,63.769C210.587,63.396 210.298,63.093 209.943,62.859C209.589,62.624 209.16,62.507 208.656,62.507C207.821,62.507 207.173,62.76 206.713,63.265C206.253,63.771 206.023,64.442 206.023,65.28C206.023,65.682 206.091,66.013 206.228,66.273C206.364,66.534 206.543,66.74 206.766,66.891C206.989,67.042 207.262,67.175 207.586,67.291C207.909,67.406 208.259,67.527 208.634,67.653C209.463,67.943 210.116,68.203 210.594,68.431C211.071,68.66 211.5,69.017 211.881,69.503C212.262,69.99 212.453,70.627 212.453,71.415C212.453,72.036 212.342,72.571 212.121,73.021C211.9,73.471 211.59,73.841 211.191,74.131C210.793,74.421 210.339,74.632 209.829,74.764C209.319,74.895 208.766,74.961 208.168,74.961C207.055,74.961 206.029,74.655 205.092,74.043L204.406,74.711L204.191,74.711Z" style="fill:rgb(33,31,31);fill-rule:nonzero;"/>
            </g>
            <g transform="matrix(0.999989,0,0,1,0.00236904,0)">
                <path d="M217.696,78.582L213.86,78.582L213.86,78.24C214.252,78.207 214.519,78.154 214.66,78.079C214.8,78.005 214.882,77.806 214.906,77.484L214.906,68.717C214.906,68.386 214.836,68.166 214.697,68.058C214.558,67.949 214.309,67.839 213.952,67.728L213.952,67.601C214.239,67.519 214.492,67.438 214.71,67.359C214.928,67.28 215.226,67.165 215.604,67.016C215.982,66.867 216.224,66.773 216.329,66.735L216.329,67.565C216.83,67.246 217.248,67.028 217.582,66.911C217.916,66.793 218.344,66.735 218.865,66.735C219.586,66.735 220.208,66.905 220.733,67.247C221.257,67.588 221.656,68.053 221.93,68.642C222.204,69.231 222.341,69.88 222.341,70.589C222.341,71.512 222.156,72.298 221.785,72.946C221.415,73.595 220.89,74.085 220.21,74.414C219.53,74.744 218.735,74.909 217.824,74.909C217.68,74.909 217.524,74.891 217.356,74.856C217.187,74.821 217.025,74.779 216.868,74.731C216.711,74.682 216.532,74.627 216.329,74.566L216.329,77.484C216.347,77.712 216.401,77.876 216.492,77.974C216.583,78.072 216.712,78.136 216.879,78.165C217.046,78.194 217.318,78.219 217.696,78.24L217.696,78.582ZM216.329,67.943L216.329,70.751C216.329,71.56 216.367,72.227 216.442,72.751C216.516,73.275 216.699,73.709 216.991,74.052C217.282,74.394 217.727,74.566 218.325,74.566C218.565,74.566 218.875,74.485 219.256,74.324C219.637,74.163 219.992,73.824 220.32,73.307C220.648,72.79 220.812,72.052 220.812,71.094C220.812,70.441 220.709,69.834 220.502,69.275C220.296,68.715 219.971,68.263 219.529,67.919C219.086,67.575 218.536,67.403 217.876,67.403C217.604,67.403 217.321,67.459 217.028,67.572C216.735,67.685 216.502,67.809 216.329,67.943Z" style="fill:rgb(33,31,31);fill-rule:nonzero;"/>
            </g>
            <g transform="matrix(0.999989,0,0,1,0.00248025,0)">
                <path d="M228.1,70.158L228.1,68.194C228.1,67.57 227.728,67.258 226.984,67.258C226.635,67.258 226.284,67.346 225.931,67.521C225.578,67.697 225.402,67.898 225.402,68.123C225.402,68.15 225.405,68.206 225.411,68.29C225.417,68.375 225.419,68.452 225.419,68.519C225.419,68.906 225.356,69.197 225.228,69.394C225.101,69.59 224.858,69.688 224.501,69.688C224.346,69.688 224.217,69.624 224.114,69.497C224.012,69.369 223.96,69.229 223.96,69.077C223.96,68.734 224.168,68.379 224.582,68.011C224.997,67.644 225.507,67.339 226.112,67.097C226.717,66.856 227.271,66.735 227.775,66.735C228.317,66.735 228.734,66.889 229.027,67.198C229.32,67.508 229.467,67.936 229.467,68.484L229.467,73.309C229.467,73.872 229.606,74.153 229.884,74.153C230.127,74.153 230.294,73.949 230.385,73.542L230.675,73.542C230.579,74.453 230.141,74.909 229.361,74.909C229.033,74.909 228.746,74.782 228.5,74.529C228.254,74.275 228.127,73.987 228.118,73.665C227.91,73.826 227.702,73.987 227.494,74.146C227.286,74.306 227.091,74.44 226.909,74.548C226.728,74.657 226.525,74.744 226.303,74.81C226.08,74.876 225.84,74.909 225.582,74.909C225.313,74.909 225.053,74.841 224.802,74.704C224.552,74.568 224.352,74.384 224.202,74.153C224.053,73.921 223.978,73.664 223.978,73.379C223.978,72.916 224.112,72.514 224.38,72.173C224.648,71.832 224.989,71.545 225.402,71.312C225.815,71.079 226.235,70.88 226.661,70.716C227.087,70.552 227.567,70.366 228.1,70.158ZM228.1,73.269L228.1,70.554C227.795,70.677 227.401,70.839 226.916,71.041C226.431,71.244 226.024,71.474 225.696,71.731C225.368,71.989 225.204,72.287 225.204,72.623C225.204,72.998 225.327,73.317 225.573,73.579C225.819,73.842 226.127,73.973 226.496,73.973C226.801,73.973 227.064,73.917 227.285,73.806C227.506,73.694 227.778,73.516 228.1,73.269Z" style="fill:rgb(33,31,31);fill-rule:nonzero;"/>
            </g>
            <g transform="matrix(0.999989,0,0,1,0.00256795,0)">
                <path d="M238.459,72.263L238.732,72.351C238.377,73.186 237.941,73.821 237.424,74.256C236.907,74.691 236.232,74.909 235.4,74.909C234.633,74.909 233.978,74.713 233.436,74.322C232.894,73.931 232.486,73.412 232.212,72.764C231.938,72.117 231.801,71.415 231.801,70.659C231.801,69.962 231.975,69.311 232.322,68.708C232.669,68.104 233.137,67.625 233.726,67.269C234.315,66.913 234.957,66.735 235.651,66.735C236.023,66.735 236.44,66.807 236.903,66.95C237.366,67.094 237.763,67.306 238.092,67.587C238.422,67.869 238.586,68.203 238.586,68.589C238.586,69.082 238.364,69.328 237.919,69.328C237.649,69.328 237.472,69.249 237.389,69.092C237.305,68.936 237.208,68.66 237.097,68.264C236.985,67.869 236.832,67.572 236.638,67.374C236.443,67.176 236.12,67.078 235.669,67.078C235.118,67.078 234.667,67.253 234.315,67.605C233.963,67.957 233.711,68.394 233.559,68.919C233.407,69.443 233.331,69.977 233.331,70.519C233.331,71.436 233.564,72.24 234.029,72.933C234.495,73.626 235.162,73.973 236.029,73.973C236.565,73.973 237.044,73.814 237.466,73.498C237.888,73.182 238.219,72.77 238.459,72.263Z" style="fill:rgb(33,31,31);fill-rule:nonzero;"/>
            </g>
            <g transform="matrix(0.999989,0,0,1,0.00265788,0)">
                <path d="M247.418,69.437L241.389,69.437C241.328,69.807 241.297,70.148 241.297,70.461C241.297,71.088 241.43,71.649 241.697,72.144C241.963,72.64 242.338,73.026 242.822,73.305C243.305,73.583 243.859,73.722 244.483,73.722C245.072,73.722 245.617,73.557 246.12,73.228C246.622,72.898 246.983,72.468 247.203,71.938L247.506,72.03C247.316,72.596 247.048,73.097 246.704,73.533C246.36,73.97 245.945,74.308 245.461,74.548C244.976,74.789 244.434,74.909 243.837,74.909C242.633,74.909 241.681,74.535 240.98,73.788C240.28,73.041 239.93,72.052 239.93,70.822C239.93,70.116 240.097,69.446 240.431,68.811C240.765,68.177 241.226,67.672 241.813,67.297C242.401,66.922 243.056,66.735 243.78,66.735C244.705,66.735 245.493,66.965 246.142,67.425C246.791,67.885 247.216,68.556 247.418,69.437ZM241.512,69.024L245.239,69.024C245.151,67.75 244.604,67.113 243.599,67.113C242.647,67.113 241.952,67.75 241.512,69.024Z" style="fill:rgb(33,31,31);fill-rule:nonzero;"/>
            </g>
            <g transform="matrix(0.999989,0,0,1,0.0027601,0)">
            </g>
            <g transform="matrix(0.999989,0,0,1,0.0028121,0)">
                <path d="M253.972,74.711L253.972,70.949L254.333,70.949C254.4,71.462 254.512,71.932 254.669,72.36C254.826,72.788 255.043,73.169 255.319,73.505C255.596,73.84 255.941,74.104 256.352,74.296C256.764,74.488 257.236,74.583 257.769,74.583C258.499,74.583 259.08,74.439 259.514,74.151C259.948,73.862 260.248,73.518 260.415,73.118C260.582,72.718 260.665,72.336 260.665,71.973C260.665,71.519 260.557,71.143 260.34,70.844C260.123,70.545 259.847,70.308 259.51,70.132C259.173,69.956 258.672,69.759 258.007,69.541C257.342,69.322 256.951,69.191 256.833,69.147C256.054,68.849 255.445,68.449 255.007,67.948C254.569,67.447 254.35,66.713 254.35,65.746C254.35,65.028 254.522,64.395 254.865,63.848C255.207,63.3 255.673,62.876 256.262,62.578C256.851,62.279 257.497,62.129 258.2,62.129C258.73,62.129 259.255,62.217 259.775,62.393C260.295,62.569 260.737,62.822 261.1,63.153L261.641,62.687L261.891,62.687L261.891,66.379L261.566,66.379C261.411,65.805 261.266,65.319 261.131,64.922C260.996,64.525 260.817,64.141 260.593,63.769C260.369,63.396 260.079,63.093 259.725,62.859C259.37,62.624 258.941,62.507 258.437,62.507C257.602,62.507 256.955,62.76 256.495,63.265C256.035,63.771 255.805,64.442 255.805,65.28C255.805,65.682 255.873,66.013 256.009,66.273C256.146,66.534 256.325,66.74 256.548,66.891C256.77,67.042 257.044,67.175 257.367,67.291C257.691,67.406 258.04,67.527 258.415,67.653C259.244,67.943 259.898,68.203 260.375,68.431C260.853,68.66 261.282,69.017 261.663,69.503C262.044,69.99 262.234,70.627 262.234,71.415C262.234,72.036 262.124,72.571 261.902,73.021C261.681,73.471 261.371,73.841 260.973,74.131C260.575,74.421 260.12,74.632 259.611,74.764C259.101,74.895 258.547,74.961 257.95,74.961C256.836,74.961 255.811,74.655 254.873,74.043L254.188,74.711L253.972,74.711Z" style="fill:rgb(33,31,31);fill-rule:nonzero;"/>
            </g>
            <g transform="matrix(0.999989,0,0,1,0.0029255,0)">
                <path d="M270.639,72.263L270.911,72.351C270.557,73.186 270.121,73.821 269.604,74.256C269.087,74.691 268.412,74.909 267.58,74.909C266.813,74.909 266.158,74.713 265.616,74.322C265.074,73.931 264.666,73.412 264.392,72.764C264.118,72.117 263.981,71.415 263.981,70.659C263.981,69.962 264.155,69.311 264.502,68.708C264.849,68.104 265.317,67.625 265.906,67.269C266.495,66.913 267.136,66.735 267.831,66.735C268.203,66.735 268.62,66.807 269.083,66.95C269.546,67.094 269.942,67.306 270.272,67.587C270.601,67.869 270.766,68.203 270.766,68.589C270.766,69.082 270.543,69.328 270.098,69.328C269.829,69.328 269.652,69.249 269.569,69.092C269.485,68.936 269.388,68.66 269.276,68.264C269.165,67.869 269.012,67.572 268.817,67.374C268.622,67.176 268.299,67.078 267.848,67.078C267.297,67.078 266.846,67.253 266.495,67.605C266.143,67.957 265.891,68.394 265.739,68.919C265.586,69.443 265.51,69.977 265.51,70.519C265.51,71.436 265.743,72.24 266.209,72.933C266.675,73.626 267.341,73.973 268.209,73.973C268.745,73.973 269.224,73.814 269.646,73.498C270.067,73.182 270.398,72.77 270.639,72.263Z" style="fill:rgb(33,31,31);fill-rule:nonzero;"/>
            </g>
            <g transform="matrix(0.999989,0,0,1,0.00301432,0)">
                <path d="M275.521,74.711L272.062,74.711L272.062,74.368C272.511,74.339 272.797,74.277 272.922,74.181C273.046,74.086 273.108,73.819 273.108,73.379L273.108,69.06C273.108,68.588 273.046,68.27 272.922,68.106C272.797,67.942 272.536,67.833 272.137,67.781L272.137,67.601C272.872,67.29 273.669,66.972 274.528,66.647L274.528,73.379C274.528,73.684 274.557,73.903 274.616,74.036C274.674,74.17 274.766,74.253 274.89,74.287C275.015,74.321 275.225,74.348 275.521,74.368L275.521,74.711ZM273.737,62.129C273.971,62.129 274.174,62.224 274.345,62.413C274.517,62.602 274.602,62.813 274.602,63.048C274.602,63.291 274.519,63.508 274.352,63.698C274.185,63.889 273.98,63.984 273.737,63.984C273.485,63.984 273.266,63.889 273.08,63.7C272.894,63.511 272.801,63.294 272.801,63.048C272.801,62.799 272.893,62.583 273.078,62.402C273.262,62.22 273.482,62.129 273.737,62.129Z" style="fill:rgb(33,31,31);fill-rule:nonzero;"/>
                <path d="M284.303,69.437L278.274,69.437C278.213,69.807 278.182,70.148 278.182,70.461C278.182,71.088 278.315,71.649 278.582,72.144C278.848,72.64 279.223,73.026 279.707,73.305C280.19,73.583 280.744,73.722 281.368,73.722C281.957,73.722 282.502,73.557 283.005,73.228C283.507,72.898 283.868,72.468 284.088,71.938L284.391,72.03C284.201,72.596 283.933,73.097 283.589,73.533C283.245,73.97 282.83,74.308 282.346,74.548C281.861,74.789 281.319,74.909 280.722,74.909C279.518,74.909 278.566,74.535 277.865,73.788C277.165,73.041 276.815,72.052 276.815,70.822C276.815,70.116 276.982,69.446 277.316,68.811C277.65,68.177 278.111,67.672 278.698,67.297C279.286,66.922 279.941,66.735 280.665,66.735C281.59,66.735 282.378,66.965 283.027,67.425C283.676,67.885 284.101,68.556 284.303,69.437ZM278.397,69.024L282.124,69.024C282.036,67.75 281.489,67.113 280.484,67.113C279.532,67.113 278.837,67.75 278.397,69.024Z" style="fill:rgb(33,31,31);fill-rule:nonzero;"/>
            </g>
            <g transform="matrix(0.999989,0,0,1,0.00316549,0)">
                <path d="M289.104,74.711L285.632,74.711L285.632,74.368C286.081,74.339 286.367,74.277 286.492,74.181C286.616,74.086 286.678,73.819 286.678,73.379L286.678,68.915C286.678,68.578 286.612,68.326 286.478,68.161C286.345,67.995 286.117,67.869 285.795,67.781L285.795,67.583C286.032,67.513 286.272,67.434 286.514,67.346C286.755,67.258 287.001,67.165 287.25,67.067C287.499,66.968 287.781,66.858 288.098,66.735L288.098,68.106C288.449,67.748 288.72,67.488 288.911,67.324C289.101,67.16 289.333,67.02 289.605,66.906C289.878,66.792 290.191,66.735 290.546,66.735C290.976,66.735 291.395,66.84 291.802,67.051C292.21,67.262 292.54,67.549 292.793,67.913C293.047,68.276 293.174,68.676 293.174,69.112L293.174,73.379C293.174,73.798 293.256,74.059 293.422,74.162C293.587,74.264 293.871,74.333 294.272,74.368L294.272,74.711L290.708,74.711L290.708,74.368C291.156,74.339 291.443,74.277 291.567,74.181C291.692,74.086 291.754,73.819 291.754,73.379L291.754,69.42C291.754,68.84 291.597,68.38 291.284,68.04C290.97,67.7 290.527,67.53 289.952,67.53C289.695,67.53 289.42,67.606 289.128,67.757C288.837,67.907 288.592,68.105 288.394,68.35C288.197,68.594 288.098,68.849 288.098,69.112L288.098,73.379C288.098,73.819 288.159,74.086 288.28,74.181C288.402,74.277 288.676,74.339 289.104,74.368L289.104,74.711Z" style="fill:rgb(33,31,31);fill-rule:nonzero;"/>
            </g>
            <g transform="matrix(0.999989,0,0,1,0.00327556,0)">
                <path d="M302.144,72.263L302.416,72.351C302.062,73.186 301.626,73.821 301.109,74.256C300.592,74.691 299.917,74.909 299.085,74.909C298.318,74.909 297.663,74.713 297.121,74.322C296.579,73.931 296.171,73.412 295.897,72.764C295.623,72.117 295.486,71.415 295.486,70.659C295.486,69.962 295.66,69.311 296.007,68.708C296.354,68.104 296.822,67.625 297.411,67.269C298,66.913 298.641,66.735 299.336,66.735C299.708,66.735 300.125,66.807 300.588,66.95C301.051,67.094 301.447,67.306 301.777,67.587C302.106,67.869 302.271,68.203 302.271,68.589C302.271,69.082 302.048,69.328 301.603,69.328C301.334,69.328 301.157,69.249 301.074,69.092C300.99,68.936 300.893,68.66 300.781,68.264C300.67,67.869 300.517,67.572 300.322,67.374C300.127,67.176 299.804,67.078 299.353,67.078C298.802,67.078 298.351,67.253 298,67.605C297.648,67.957 297.396,68.394 297.244,68.919C297.091,69.443 297.015,69.977 297.015,70.519C297.015,71.436 297.248,72.24 297.714,72.933C298.18,73.626 298.846,73.973 299.714,73.973C300.25,73.973 300.729,73.814 301.151,73.498C301.572,73.182 301.903,72.77 302.144,72.263Z" style="fill:rgb(33,31,31);fill-rule:nonzero;"/>
                <path d="M311.103,69.437L305.074,69.437C305.012,69.807 304.981,70.148 304.981,70.461C304.981,71.088 305.115,71.649 305.381,72.144C305.648,72.64 306.023,73.026 306.506,73.305C306.99,73.583 307.544,73.722 308.168,73.722C308.756,73.722 309.302,73.557 309.804,73.228C310.307,72.898 310.668,72.468 310.888,71.938L311.191,72.03C311.001,72.596 310.733,73.097 310.389,73.533C310.045,73.97 309.63,74.308 309.145,74.548C308.66,74.789 308.119,74.909 307.522,74.909C306.317,74.909 305.365,74.535 304.665,73.788C303.965,73.041 303.615,72.052 303.615,70.822C303.615,70.116 303.782,69.446 304.116,68.811C304.45,68.177 304.91,67.672 305.498,67.297C306.085,66.922 306.741,66.735 307.464,66.735C308.39,66.735 309.178,66.965 309.826,67.425C310.475,67.885 310.901,68.556 311.103,69.437ZM305.197,69.024L308.923,69.024C308.836,67.75 308.289,67.113 307.284,67.113C306.332,67.113 305.636,67.75 305.197,69.024Z" style="fill:rgb(33,31,31);fill-rule:nonzero;"/>
                <path d="M312.895,74.333L312.895,72.21L313.11,72.21C313.277,72.744 313.425,73.157 313.552,73.45C313.679,73.743 313.876,74.002 314.141,74.228C314.406,74.453 314.747,74.566 315.163,74.566C315.678,74.566 316.068,74.425 316.331,74.144C316.595,73.863 316.727,73.464 316.727,72.949C316.727,72.515 316.577,72.177 316.277,71.934C315.976,71.69 315.503,71.401 314.857,71.066C314.211,70.73 313.726,70.402 313.4,70.081C313.075,69.76 312.913,69.323 312.913,68.769C312.913,68.137 313.157,67.639 313.646,67.278C314.136,66.916 314.707,66.735 315.36,66.735C315.727,66.735 316.092,66.785 316.457,66.884C316.821,66.984 317.243,67.12 317.72,67.293L317.72,69.205L317.43,69.205C317.357,68.83 317.227,68.48 317.039,68.156C316.852,67.833 316.609,67.572 316.312,67.374C316.014,67.176 315.674,67.078 315.29,67.078C314.915,67.078 314.614,67.197 314.387,67.436C314.16,67.675 314.046,67.981 314.046,68.356C314.046,68.69 314.18,68.947 314.446,69.125C314.713,69.304 315.206,69.574 315.927,69.934C316.648,70.294 317.19,70.66 317.553,71.03C317.916,71.401 318.098,71.884 318.098,72.478C318.098,72.997 317.964,73.44 317.696,73.808C317.428,74.175 317.072,74.451 316.628,74.634C316.184,74.817 315.707,74.909 315.198,74.909C314.333,74.909 313.566,74.717 312.895,74.333Z" style="fill:rgb(33,31,31);fill-rule:nonzero;"/>
            </g>
        </g>
        <path d="M35.695,39.115C35.607,38.451 35.65,37.485 35.65,37.014L36.65,25.675L40.365,25.675L39.345,37.116C39.127,39.594 40.097,41.361 42.57,41.361C45.099,41.361 46.433,39.563 46.654,37.368L47.709,25.675L51.422,25.675L50.396,37.217C49.978,41.664 47.031,44.996 42.261,44.996C38.545,44.996 36.148,42.59 35.695,39.115" style="fill:rgb(44,129,188);fill-rule:nonzero;"/>
        <path d="M52.93,35.276C53.414,29.828 57.088,25.313 63.436,25.313C65.106,25.313 66.709,25.694 68.313,26.722L67.887,31.223C66.424,29.297 64.686,28.985 63.08,28.985C59.131,28.985 56.965,31.727 56.657,35.201C56.356,38.582 58.102,41.33 61.926,41.33C63.596,41.33 65.366,40.846 67.223,38.992L66.811,43.612C65.006,44.59 63.326,45.039 61.633,45.039C55.354,45.039 52.477,40.371 52.93,35.276" style="fill:rgb(44,129,188);fill-rule:nonzero;"/>
        <path d="M71.275,25.675L74.98,25.675L73.629,41.078L78.937,41.078C79.308,41.078 80.574,41.059 80.92,41.037C80.898,41.227 80.578,44.596 80.578,44.596L69.595,44.596L71.275,25.675Z" style="fill:rgb(44,129,188);fill-rule:nonzero;"/>
        <path d="M91.523,24.805L91.267,24.807L81.123,44.596L85.062,44.596L86.484,41.596L93.628,41.596L94.521,44.601L98.449,44.596L91.523,24.805ZM90.574,32.74C90.695,32.468 90.804,32.137 90.845,31.943C90.847,31.942 90.908,31.942 90.908,31.942C90.925,32.179 90.968,32.464 91.046,32.743C91.25,33.603 92.695,38.398 92.695,38.398L88.015,38.395C88.015,38.395 90.521,32.861 90.574,32.74" style="fill:rgb(44,129,188);fill-rule:nonzero;"/>
        <path d="M35.641,53.819L317.614,53.819" style="fill:none;stroke-width:1px;stroke:rgb(44,129,188);"/>
    </g>
</svg>
