<?xml version="1.0" standalone="no"?>
<!DOCTYPE svg PUBLIC "-//W3C//DTD SVG 1.1//EN" "http://www.w3.org/Graphics/SVG/1.1/DTD/svg11.dtd">
<svg width="100%" height="100%" viewBox="0 0 973 417" version="1.1" xmlns="http://www.w3.org/2000/svg" xmlns:xlink="http://www.w3.org/1999/xlink" xml:space="preserve" style="fill-rule:evenodd;clip-rule:evenodd;stroke-miterlimit:10;">
    <g id="Layer 1" transform="matrix(4.16667,0,0,4.16667,0,0)">
        <g>
            <g transform="matrix(0.999989,0,0,1,0.00117738,0)">
                <path d="M117.017,33.345L117.592,32.571L117.882,32.571L117.882,36.764L117.557,36.764C117.455,35.976 117.214,35.248 116.836,34.582C116.459,33.915 115.957,33.386 115.331,32.995C114.706,32.604 113.989,32.409 113.18,32.409C112.383,32.409 111.644,32.659 110.963,33.16C110.282,33.661 109.755,34.292 109.383,35.054C108.941,35.977 108.72,37.171 108.72,38.636C108.72,39.526 108.884,40.425 109.212,41.332C109.54,42.239 110.034,42.991 110.693,43.588C111.352,44.186 112.146,44.485 113.075,44.485C114.276,44.485 115.272,44.097 116.063,43.323C116.854,42.548 117.364,41.567 117.592,40.38L117.935,40.38L117.935,44.397L117.557,44.397L117.052,43.549C115.754,44.425 114.411,44.863 113.022,44.863C112.061,44.863 111.188,44.717 110.403,44.426C109.618,44.134 108.949,43.711 108.397,43.158C107.845,42.604 107.424,41.937 107.136,41.158C106.847,40.379 106.703,39.503 106.703,38.53C106.703,37.297 106.98,36.184 107.533,35.19C108.087,34.197 108.857,33.422 109.845,32.866C110.832,32.309 111.944,32.031 113.18,32.031C113.863,32.031 114.504,32.141 115.105,32.363C115.706,32.584 116.343,32.911 117.017,33.345Z" style="fill:rgb(31,21,22);fill-rule:nonzero;"/>
            </g>
            <g transform="matrix(0.999989,0,0,1,0.00131898,0)">
                <path d="M119.394,40.67C119.394,40.131 119.485,39.616 119.669,39.124C119.852,38.631 120.11,38.199 120.444,37.827C120.778,37.455 121.176,37.164 121.637,36.953C122.099,36.742 122.605,36.636 123.156,36.636C123.73,36.636 124.258,36.74 124.74,36.948C125.222,37.156 125.631,37.447 125.968,37.821C126.305,38.194 126.565,38.63 126.748,39.128C126.931,39.626 127.023,40.164 127.023,40.741C127.023,41.52 126.866,42.219 126.553,42.837C126.239,43.455 125.791,43.938 125.208,44.287C124.625,44.636 123.947,44.81 123.173,44.81C122.4,44.81 121.726,44.627 121.152,44.261C120.578,43.895 120.141,43.397 119.842,42.769C119.543,42.14 119.394,41.441 119.394,40.67ZM120.923,40.741C120.923,41.637 121.104,42.482 121.466,43.276C121.828,44.07 122.403,44.467 123.191,44.467C123.721,44.467 124.16,44.301 124.507,43.969C124.854,43.636 125.105,43.217 125.261,42.712C125.416,42.206 125.494,41.694 125.494,41.176C125.494,38.378 124.732,36.979 123.208,36.979C122.669,36.979 122.228,37.185 121.883,37.596C121.539,38.008 121.293,38.503 121.145,39.082C120.997,39.66 120.923,40.213 120.923,40.741Z" style="fill:rgb(31,21,22);fill-rule:nonzero;"/>
            </g>
            <g transform="matrix(0.999989,0,0,1,0.00141454,0)">
                <path d="M130.547,32.031L130.547,43.281C130.547,43.585 130.576,43.804 130.635,43.938C130.694,44.071 130.785,44.155 130.91,44.188C131.034,44.222 131.244,44.249 131.54,44.27L131.54,44.612L128.082,44.612L128.082,44.27C128.53,44.24 128.816,44.178 128.941,44.083C129.065,43.988 129.128,43.72 129.128,43.281L129.128,34.479C129.128,34.01 129.069,33.666 128.952,33.448C128.835,33.23 128.55,33.104 128.099,33.072L128.099,32.857C128.454,32.766 128.908,32.619 129.462,32.415C130.015,32.212 130.377,32.083 130.547,32.031Z" style="fill:rgb(31,21,22);fill-rule:nonzero;"/>
            </g>
            <g transform="matrix(0.999989,0,0,1,0.00147015,0)">
                <path d="M135.552,32.031L135.552,43.281C135.552,43.585 135.582,43.804 135.64,43.938C135.699,44.071 135.79,44.155 135.915,44.188C136.039,44.222 136.25,44.249 136.546,44.27L136.546,44.612L133.087,44.612L133.087,44.27C133.535,44.24 133.822,44.178 133.946,44.083C134.071,43.988 134.133,43.72 134.133,43.281L134.133,34.479C134.133,34.01 134.074,33.666 133.957,33.448C133.84,33.23 133.556,33.104 133.105,33.072L133.105,32.857C133.459,32.766 133.913,32.619 134.467,32.415C135.021,32.212 135.382,32.083 135.552,32.031Z" style="fill:rgb(31,21,22);fill-rule:nonzero;"/>
                <path d="M145.128,39.339L139.099,39.339C139.037,39.708 139.006,40.049 139.006,40.363C139.006,40.99 139.14,41.551 139.406,42.046C139.673,42.541 140.048,42.928 140.531,43.206C141.015,43.484 141.568,43.624 142.192,43.624C142.781,43.624 143.327,43.459 143.829,43.129C144.332,42.8 144.693,42.37 144.913,41.839L145.216,41.932C145.025,42.497 144.758,42.998 144.414,43.435C144.07,43.871 143.655,44.209 143.17,44.45C142.685,44.69 142.144,44.81 141.546,44.81C140.342,44.81 139.39,44.437 138.69,43.689C137.99,42.942 137.64,41.954 137.64,40.723C137.64,40.017 137.807,39.347 138.141,38.713C138.475,38.078 138.935,37.574 139.523,37.199C140.11,36.824 140.766,36.636 141.489,36.636C142.415,36.636 143.202,36.866 143.851,37.326C144.5,37.786 144.926,38.457 145.128,39.339ZM139.222,38.926L142.948,38.926C142.86,37.651 142.314,37.014 141.309,37.014C140.357,37.014 139.661,37.651 139.222,38.926Z" style="fill:rgb(31,21,22);fill-rule:nonzero;"/>
                <path d="M149.751,36.636C150.527,36.636 151.283,36.876 152.019,37.357C152.185,37.26 152.352,37.164 152.519,37.069C152.686,36.974 152.851,36.893 153.012,36.827C153.173,36.761 153.327,36.729 153.473,36.729C153.684,36.729 153.854,36.793 153.983,36.922C154.112,37.051 154.176,37.221 154.176,37.432C154.176,37.593 154.125,37.726 154.022,37.832C153.92,37.937 153.785,37.99 153.618,37.99C153.486,37.99 153.311,37.911 153.093,37.755C152.875,37.598 152.703,37.52 152.577,37.52C152.477,37.52 152.369,37.562 152.251,37.647C152.459,37.911 152.607,38.154 152.695,38.376C152.783,38.599 152.827,38.872 152.827,39.194C152.827,40.046 152.539,40.713 151.961,41.193C151.384,41.674 150.659,41.914 149.786,41.914C149.566,41.914 149.146,41.848 148.525,41.716C148.241,41.898 148.025,42.064 147.879,42.215C147.732,42.366 147.659,42.564 147.659,42.811C147.659,43.212 147.846,43.489 148.219,43.643C148.593,43.797 149.139,43.874 149.856,43.874C150.937,43.874 151.94,44.007 152.864,44.274C153.789,44.541 154.251,45.151 154.251,46.106C154.251,46.783 154.02,47.297 153.559,47.649C153.097,48 152.555,48.228 151.931,48.33C151.307,48.433 150.627,48.484 149.892,48.484C149.352,48.484 148.809,48.447 148.261,48.372C147.713,48.297 147.227,48.135 146.802,47.886C146.377,47.637 146.165,47.272 146.165,46.792C146.165,46.344 146.318,45.949 146.624,45.608C146.93,45.266 147.312,45.006 147.769,44.828C147.157,44.453 146.851,43.955 146.851,43.333C146.851,42.888 146.959,42.537 147.176,42.279C147.393,42.021 147.728,41.773 148.182,41.536C147.318,41.076 146.886,40.307 146.886,39.229C146.886,38.728 147.019,38.28 147.286,37.884C147.552,37.489 147.907,37.182 148.349,36.964C148.791,36.745 149.259,36.636 149.751,36.636ZM148.31,39.339C148.31,39.919 148.43,40.427 148.67,40.862C148.91,41.297 149.3,41.514 149.839,41.514C150.387,41.514 150.787,41.295 151.041,40.857C151.294,40.419 151.421,39.901 151.421,39.304C151.421,38.686 151.3,38.149 151.058,37.695C150.817,37.241 150.416,37.014 149.856,37.014C149.306,37.014 148.91,37.248 148.67,37.715C148.43,38.182 148.31,38.724 148.31,39.339ZM147.158,46.484C147.158,46.994 147.32,47.374 147.644,47.625C147.967,47.875 148.341,48.03 148.764,48.088C149.188,48.147 149.695,48.176 150.287,48.176C151.072,48.176 151.767,48.063 152.37,47.838C152.974,47.612 153.275,47.179 153.275,46.537C153.275,46.127 153.159,45.827 152.926,45.636C152.693,45.446 152.404,45.329 152.058,45.287C151.712,45.244 151.242,45.223 150.647,45.223C149.411,45.223 148.566,45.146 148.112,44.99C147.883,45.081 147.667,45.285 147.464,45.601C147.26,45.917 147.158,46.212 147.158,46.484Z" style="fill:rgb(31,21,22);fill-rule:nonzero;"/>
                <path d="M162.328,39.339L156.299,39.339C156.237,39.708 156.206,40.049 156.206,40.363C156.206,40.99 156.34,41.551 156.606,42.046C156.873,42.541 157.248,42.928 157.731,43.206C158.215,43.484 158.768,43.624 159.392,43.624C159.981,43.624 160.527,43.459 161.029,43.129C161.532,42.8 161.893,42.37 162.113,41.839L162.416,41.932C162.225,42.497 161.958,42.998 161.614,43.435C161.27,43.871 160.855,44.209 160.37,44.45C159.885,44.69 159.344,44.81 158.746,44.81C157.542,44.81 156.59,44.437 155.89,43.689C155.19,42.942 154.84,41.954 154.84,40.723C154.84,40.017 155.007,39.347 155.341,38.713C155.675,38.078 156.135,37.574 156.723,37.199C157.31,36.824 157.966,36.636 158.689,36.636C159.615,36.636 160.402,36.866 161.051,37.326C161.7,37.786 162.126,38.457 162.328,39.339ZM156.422,38.926L160.148,38.926C160.06,37.651 159.514,37.014 158.509,37.014C157.557,37.014 156.861,37.651 156.422,38.926Z" style="fill:rgb(31,21,22);fill-rule:nonzero;"/>
            </g>
            <g transform="matrix(0.999989,0,0,1,0.000396007,0)">
                <path d="M36.704,62.67L36.704,62.292C37.832,62.269 39.559,62.257 41.885,62.257C42.7,62.257 43.435,62.39 44.091,62.657C44.748,62.923 45.27,63.336 45.66,63.896C46.05,64.456 46.245,65.144 46.245,65.961C46.245,66.82 45.994,67.508 45.493,68.027C44.992,68.545 44.39,68.907 43.687,69.112C42.984,69.317 42.294,69.42 41.617,69.42L39.851,69.42L39.851,73.327C39.851,73.748 39.978,74.022 40.233,74.146C40.488,74.271 40.889,74.333 41.437,74.333L41.437,74.711L36.739,74.711L36.739,74.333C37.103,74.333 37.371,74.312 37.543,74.269C37.716,74.227 37.842,74.134 37.919,73.992C37.997,73.85 38.036,73.628 38.036,73.327L38.036,63.676C38.036,63.248 37.938,62.974 37.743,62.852C37.549,62.731 37.202,62.67 36.704,62.67ZM39.851,63.676L39.851,69.042L41.077,69.042C41.824,69.042 42.426,68.953 42.883,68.776C43.34,68.599 43.687,68.271 43.924,67.794C44.162,67.316 44.28,66.64 44.28,65.764C44.28,65.131 44.182,64.58 43.986,64.111C43.79,63.643 43.481,63.279 43.061,63.021C42.64,62.764 42.111,62.635 41.472,62.635C41.015,62.635 40.68,62.653 40.468,62.69C40.256,62.726 40.1,62.817 40,62.962C39.9,63.107 39.851,63.345 39.851,63.676Z" style="fill:rgb(33,31,31);fill-rule:nonzero;"/>
                <path d="M50.797,74.711L47.343,74.711L47.343,74.368C47.789,74.339 48.073,74.277 48.198,74.181C48.322,74.086 48.385,73.819 48.385,73.379L48.385,64.019C48.385,63.764 48.304,63.579 48.143,63.463C47.982,63.347 47.756,63.257 47.466,63.193L47.466,63.048C47.815,62.904 48.228,62.741 48.706,62.558C49.183,62.375 49.551,62.232 49.809,62.129L49.809,68.014C50.28,67.574 50.699,67.251 51.065,67.045C51.432,66.838 51.865,66.735 52.366,66.735C52.929,66.735 53.395,66.875 53.766,67.157C54.136,67.438 54.407,67.807 54.577,68.264C54.747,68.721 54.832,69.221 54.832,69.763L54.832,73.379C54.832,73.684 54.861,73.902 54.919,74.034C54.978,74.166 55.071,74.249 55.198,74.285C55.326,74.32 55.545,74.348 55.855,74.368L55.855,74.711L52.436,74.711L52.436,74.368C52.847,74.339 53.111,74.277 53.23,74.181C53.348,74.086 53.408,73.819 53.408,73.379L53.408,69.763C53.408,69.139 53.271,68.601 52.999,68.15C52.727,67.699 52.293,67.473 51.698,67.473C51.379,67.473 51.112,67.527 50.896,67.634C50.681,67.74 50.486,67.885 50.312,68.069C50.137,68.252 49.97,68.431 49.809,68.607L49.809,73.379C49.809,73.819 49.869,74.086 49.989,74.181C50.109,74.277 50.378,74.339 50.797,74.368L50.797,74.711Z" style="fill:rgb(33,31,31);fill-rule:nonzero;"/>
            </g>
            <g transform="matrix(0.999989,0,0,1,0.000614608,0)">
                <path d="M55.46,67.275L55.46,66.937L59.366,66.937L59.366,67.275C58.476,67.275 58.031,67.444 58.031,67.781C58.031,67.866 58.104,68.046 58.25,68.321L60.716,72.909L62.153,68.752C62.287,68.333 62.355,68.04 62.355,67.873C62.355,67.615 62.243,67.455 62.019,67.392C61.794,67.329 61.48,67.29 61.076,67.275L61.076,66.937L64.117,66.937L64.117,67.275C63.701,67.275 63.406,67.352 63.231,67.506C63.057,67.66 62.897,67.949 62.75,68.374L59.85,76.693C59.642,77.279 59.418,77.74 59.177,78.077C58.937,78.414 58.592,78.582 58.14,78.582C57.95,78.582 57.788,78.51 57.655,78.365C57.521,78.22 57.455,78.052 57.455,77.862C57.455,77.645 57.516,77.47 57.637,77.337C57.759,77.203 57.927,77.132 58.14,77.123C58.202,77.129 58.296,77.147 58.422,77.176C58.548,77.206 58.646,77.223 58.716,77.229C58.945,77.229 59.121,77.151 59.246,76.994C59.37,76.837 59.476,76.628 59.564,76.368L60.122,74.583L56.629,68.211C56.544,68.059 56.463,67.915 56.387,67.781C56.311,67.646 56.244,67.553 56.187,67.502C56.13,67.45 56.053,67.409 55.956,67.379C55.86,67.348 55.694,67.313 55.46,67.275Z" style="fill:rgb(33,31,31);fill-rule:nonzero;"/>
            </g>
            <g transform="matrix(0.999989,0,0,1,0.00071771,0)">
                <path d="M65.495,74.333L65.495,72.21L65.71,72.21C65.877,72.744 66.024,73.157 66.152,73.45C66.279,73.743 66.475,74.002 66.741,74.228C67.006,74.453 67.346,74.566 67.762,74.566C68.278,74.566 68.668,74.425 68.931,74.144C69.195,73.863 69.327,73.464 69.327,72.949C69.327,72.515 69.177,72.177 68.876,71.934C68.576,71.69 68.103,71.401 67.457,71.066C66.811,70.73 66.325,70.402 66,70.081C65.675,69.76 65.512,69.323 65.512,68.769C65.512,68.137 65.757,67.639 66.246,67.278C66.735,66.916 67.307,66.735 67.96,66.735C68.326,66.735 68.692,66.785 69.057,66.884C69.421,66.984 69.842,67.12 70.32,67.293L70.32,69.205L70.03,69.205C69.957,68.83 69.826,68.48 69.639,68.156C69.451,67.833 69.209,67.572 68.912,67.374C68.614,67.176 68.274,67.078 67.89,67.078C67.515,67.078 67.214,67.197 66.987,67.436C66.76,67.675 66.646,67.981 66.646,68.356C66.646,68.69 66.779,68.947 67.046,69.125C67.313,69.304 67.806,69.574 68.527,69.934C69.248,70.294 69.79,70.66 70.153,71.03C70.516,71.401 70.698,71.884 70.698,72.478C70.698,72.997 70.564,73.44 70.296,73.808C70.028,74.175 69.672,74.451 69.228,74.634C68.784,74.817 68.307,74.909 67.798,74.909C66.933,74.909 66.166,74.717 65.495,74.333Z" style="fill:rgb(33,31,31);fill-rule:nonzero;"/>
            </g>
            <g transform="matrix(0.999989,0,0,1,0.00079327,0)">
                <path d="M75.626,74.711L72.168,74.711L72.168,74.368C72.616,74.339 72.902,74.277 73.027,74.181C73.151,74.086 73.214,73.819 73.214,73.379L73.214,69.06C73.214,68.588 73.151,68.27 73.027,68.106C72.902,67.942 72.641,67.833 72.242,67.781L72.242,67.601C72.978,67.29 73.775,66.972 74.633,66.647L74.633,73.379C74.633,73.684 74.662,73.903 74.721,74.036C74.78,74.17 74.871,74.253 74.996,74.287C75.12,74.321 75.33,74.348 75.626,74.368L75.626,74.711ZM73.842,62.129C74.076,62.129 74.279,62.224 74.451,62.413C74.622,62.602 74.708,62.813 74.708,63.048C74.708,63.291 74.624,63.508 74.457,63.698C74.29,63.889 74.085,63.984 73.842,63.984C73.59,63.984 73.371,63.889 73.185,63.7C72.999,63.511 72.906,63.294 72.906,63.048C72.906,62.799 72.998,62.583 73.183,62.402C73.367,62.22 73.587,62.129 73.842,62.129Z" style="fill:rgb(33,31,31);fill-rule:nonzero;"/>
                <path d="M83.743,72.263L84.015,72.351C83.661,73.186 83.225,73.821 82.708,74.256C82.191,74.691 81.516,74.909 80.684,74.909C79.917,74.909 79.262,74.713 78.72,74.322C78.178,73.931 77.77,73.412 77.496,72.764C77.222,72.117 77.085,71.415 77.085,70.659C77.085,69.962 77.259,69.311 77.606,68.708C77.953,68.104 78.421,67.625 79.01,67.269C79.599,66.913 80.24,66.735 80.935,66.735C81.307,66.735 81.724,66.807 82.187,66.95C82.65,67.094 83.046,67.306 83.376,67.587C83.706,67.869 83.87,68.203 83.87,68.589C83.87,69.082 83.648,69.328 83.202,69.328C82.933,69.328 82.756,69.249 82.673,69.092C82.589,68.936 82.492,68.66 82.381,68.264C82.269,67.869 82.116,67.572 81.921,67.374C81.727,67.176 81.404,67.078 80.952,67.078C80.402,67.078 79.95,67.253 79.599,67.605C79.247,67.957 78.995,68.394 78.843,68.919C78.691,69.443 78.615,69.977 78.615,70.519C78.615,71.436 78.847,72.24 79.313,72.933C79.779,73.626 80.446,73.973 81.313,73.973C81.849,73.973 82.328,73.814 82.75,73.498C83.172,73.182 83.503,72.77 83.743,72.263Z" style="fill:rgb(33,31,31);fill-rule:nonzero;"/>
            </g>
            <g transform="matrix(0.999989,0,0,1,0.000937702,0)">
                <path d="M85.294,74.333L85.294,72.21L85.509,72.21C85.676,72.744 85.824,73.157 85.951,73.45C86.078,73.743 86.275,74.002 86.54,74.228C86.805,74.453 87.146,74.566 87.562,74.566C88.077,74.566 88.467,74.425 88.731,74.144C88.994,73.863 89.126,73.464 89.126,72.949C89.126,72.515 88.976,72.177 88.676,71.934C88.375,71.69 87.902,71.401 87.256,71.066C86.61,70.73 86.125,70.402 85.799,70.081C85.474,69.76 85.312,69.323 85.312,68.769C85.312,68.137 85.556,67.639 86.046,67.278C86.535,66.916 87.106,66.735 87.759,66.735C88.126,66.735 88.491,66.785 88.856,66.884C89.221,66.984 89.642,67.12 90.119,67.293L90.119,69.205L89.829,69.205C89.756,68.83 89.626,68.48 89.438,68.156C89.251,67.833 89.008,67.572 88.711,67.374C88.413,67.176 88.073,67.078 87.689,67.078C87.314,67.078 87.013,67.197 86.786,67.436C86.559,67.675 86.445,67.981 86.445,68.356C86.445,68.69 86.579,68.947 86.845,69.125C87.112,69.304 87.606,69.574 88.326,69.934C89.047,70.294 89.589,70.66 89.952,71.03C90.316,71.401 90.497,71.884 90.497,72.478C90.497,72.997 90.363,73.44 90.095,73.808C89.827,74.175 89.471,74.451 89.027,74.634C88.583,74.817 88.107,74.909 87.597,74.909C86.733,74.909 85.965,74.717 85.294,74.333Z" style="fill:rgb(33,31,31);fill-rule:nonzero;"/>
            </g>
            <g transform="matrix(0.999989,0,0,1,0.00101771,0)">
            </g>
            <g transform="matrix(0.999989,0,0,1,0.00106771,0)">
                <path d="M106.623,66.304L106.623,65.926L110.617,65.926L110.617,66.304C110.011,66.363 109.517,66.52 109.137,66.777C108.756,67.033 108.362,67.434 107.954,67.978L106.03,70.519C106.135,70.644 106.36,70.959 106.704,71.463C107.048,71.967 107.353,72.396 107.618,72.751C107.883,73.105 108.164,73.416 108.46,73.683C108.756,73.949 109.031,74.082 109.286,74.082C109.766,74.082 110.133,73.877 110.385,73.467L110.745,73.665C110.165,74.529 109.451,74.961 108.605,74.961C108.171,74.961 107.782,74.87 107.438,74.687C107.094,74.504 106.794,74.269 106.539,73.984C106.284,73.698 105.997,73.324 105.678,72.861C105.359,72.398 105.121,72.073 104.966,71.885C104.404,72.591 103.923,73.147 103.525,73.553C103.126,73.959 102.66,74.295 102.125,74.561C101.59,74.828 100.971,74.961 100.268,74.961C99.63,74.961 99.053,74.811 98.537,74.511C98.021,74.211 97.617,73.798 97.324,73.272C97.031,72.746 96.885,72.164 96.885,71.525C96.885,70.81 97.035,70.18 97.337,69.635C97.639,69.09 98.045,68.624 98.557,68.238C99.068,67.851 99.669,67.501 100.361,67.187C99.461,66.481 99.012,65.821 99.012,65.206C99.012,64.851 99.127,64.489 99.359,64.12C99.59,63.751 99.887,63.415 100.251,63.114C100.614,62.812 100.992,62.572 101.385,62.395C101.777,62.218 102.126,62.129 102.43,62.129C102.8,62.129 103.162,62.206 103.518,62.36C103.874,62.514 104.163,62.737 104.384,63.03C104.605,63.323 104.716,63.659 104.716,64.037C104.716,64.338 104.637,64.614 104.481,64.865C104.324,65.115 104.13,65.337 103.898,65.531C103.667,65.724 103.369,65.938 103.006,66.172C102.643,66.407 102.397,66.571 102.268,66.665C102.666,67.048 103.089,67.456 103.536,67.888C103.982,68.321 104.383,68.719 104.738,69.084C105.092,69.448 105.433,69.83 105.762,70.228C105.876,70.035 106.14,69.675 106.555,69.15C106.969,68.624 107.294,68.18 107.53,67.818C107.766,67.456 107.884,67.155 107.884,66.915C107.884,66.684 107.767,66.533 107.533,66.462C107.298,66.392 106.995,66.339 106.623,66.304ZM101.925,66.357C103.03,65.812 103.582,65.207 103.582,64.542C103.582,64.234 103.499,63.945 103.334,63.674C103.168,63.403 102.946,63.186 102.668,63.021C102.389,62.857 102.099,62.775 101.798,62.775C101.358,62.775 100.996,62.92 100.712,63.21C100.428,63.5 100.286,63.867 100.286,64.309C100.286,64.587 100.369,64.841 100.536,65.069C100.703,65.298 100.959,65.553 101.303,65.834C101.647,66.115 101.855,66.29 101.925,66.357ZM100.681,67.473C99.978,67.798 99.428,68.185 99.029,68.633C98.631,69.082 98.431,69.644 98.431,70.321C98.431,70.874 98.537,71.396 98.748,71.885C98.959,72.374 99.269,72.77 99.677,73.072C100.086,73.373 100.572,73.524 101.134,73.524C101.858,73.524 102.493,73.356 103.039,73.019C103.585,72.682 104.144,72.196 104.716,71.56C104.467,71.179 104.181,70.806 103.859,70.439C103.536,70.073 103.219,69.742 102.907,69.446C102.595,69.15 102.23,68.82 101.811,68.455C101.392,68.091 101.015,67.763 100.681,67.473Z" style="fill:rgb(33,31,31);fill-rule:nonzero;"/>
            </g>
            <g transform="matrix(0.999989,0,0,1,0.00123653,0)">
                <path d="M119.242,74.711L115.985,74.711L115.985,74.333C116.243,74.315 116.477,74.228 116.686,74.071C116.896,73.915 117.046,73.713 117.137,73.467L120.81,63.892L120.485,63.351C120.869,63.131 121.355,62.664 121.944,61.949L126.154,72.676C126.312,73.086 126.446,73.39 126.556,73.588C126.666,73.786 126.812,73.948 126.994,74.074C127.175,74.2 127.424,74.286 127.741,74.333L127.741,74.711L123.043,74.711L123.043,74.333C123.476,74.333 123.837,74.292 124.124,74.21C124.411,74.128 124.555,73.929 124.555,73.612C124.555,73.401 124.359,72.785 123.968,71.764C123.577,70.743 123.358,70.154 123.311,69.996L119.009,69.996C118.962,70.16 118.815,70.565 118.569,71.213C118.323,71.86 118.131,72.377 117.994,72.764C117.856,73.151 117.787,73.416 117.787,73.56C117.787,73.721 117.836,73.852 117.934,73.953C118.032,74.054 118.15,74.126 118.288,74.17C118.426,74.214 118.585,74.248 118.765,74.271C118.945,74.295 119.104,74.315 119.242,74.333L119.242,74.711ZM121.079,64.415L119.206,69.508L123.113,69.508L121.079,64.415Z" style="fill:rgb(33,31,31);fill-rule:nonzero;"/>
                <path d="M128.694,74.333L128.694,72.21L128.91,72.21C129.077,72.744 129.224,73.157 129.351,73.45C129.479,73.743 129.675,74.002 129.94,74.228C130.205,74.453 130.546,74.566 130.962,74.566C131.477,74.566 131.867,74.425 132.131,74.144C132.394,73.863 132.526,73.464 132.526,72.949C132.526,72.515 132.376,72.177 132.076,71.934C131.776,71.69 131.302,71.401 130.656,71.066C130.01,70.73 129.525,70.402 129.2,70.081C128.874,69.76 128.712,69.323 128.712,68.769C128.712,68.137 128.956,67.639 129.446,67.278C129.935,66.916 130.506,66.735 131.16,66.735C131.526,66.735 131.891,66.785 132.256,66.884C132.621,66.984 133.042,67.12 133.519,67.293L133.519,69.205L133.229,69.205C133.156,68.83 133.026,68.48 132.838,68.156C132.651,67.833 132.408,67.572 132.111,67.374C131.814,67.176 131.473,67.078 131.089,67.078C130.714,67.078 130.413,67.197 130.186,67.436C129.959,67.675 129.846,67.981 129.846,68.356C129.846,68.69 129.979,68.947 130.246,69.125C130.512,69.304 131.006,69.574 131.726,69.934C132.447,70.294 132.989,70.66 133.352,71.03C133.716,71.401 133.897,71.884 133.897,72.478C133.897,72.997 133.763,73.44 133.495,73.808C133.227,74.175 132.871,74.451 132.427,74.634C131.984,74.817 131.507,74.909 130.997,74.909C130.133,74.909 129.365,74.717 128.694,74.333Z" style="fill:rgb(33,31,31);fill-rule:nonzero;"/>
                <path d="M139.997,67.833L137.8,67.833L137.8,72.588C137.8,73.078 137.884,73.436 138.052,73.665C138.221,73.894 138.538,74.008 139.004,74.008C139.297,74.008 139.783,73.792 140.463,73.362C140.559,73.409 140.608,73.469 140.608,73.542C140.608,73.592 140.588,73.642 140.548,73.691C140.509,73.741 140.455,73.795 140.386,73.852C140.317,73.909 140.271,73.949 140.247,73.973C140.004,74.263 139.697,74.491 139.327,74.658C138.956,74.825 138.585,74.909 138.213,74.909C137.598,74.909 137.138,74.709 136.833,74.309C136.528,73.909 136.376,73.395 136.376,72.769L136.376,67.833L135.44,67.833L135.44,67.671C135.484,67.627 135.805,67.331 136.402,66.783C137,66.235 137.442,65.8 137.729,65.478L137.765,65.478L137.765,66.937L140.428,66.937L139.997,67.833Z" style="fill:rgb(33,31,31);fill-rule:nonzero;"/>
                <path d="M145.038,74.711L141.456,74.711L141.456,74.368C141.884,74.339 142.158,74.277 142.28,74.181C142.402,74.086 142.462,73.819 142.462,73.379L142.462,68.827C142.462,68.601 142.438,68.432 142.39,68.319C142.341,68.206 142.272,68.122 142.181,68.066C142.09,68.011 141.909,67.915 141.636,67.781L141.636,67.601C141.955,67.492 142.356,67.331 142.838,67.117C143.32,66.903 143.656,66.758 143.847,66.682L143.847,67.978C143.911,67.905 144.029,67.766 144.2,67.561C144.372,67.356 144.525,67.191 144.66,67.067C144.794,66.942 144.947,66.835 145.119,66.746C145.29,66.656 145.467,66.612 145.648,66.612C145.927,66.612 146.155,66.682 146.334,66.823C146.513,66.963 146.602,67.168 146.602,67.438C146.602,67.637 146.535,67.801 146.4,67.93C146.265,68.059 146.104,68.123 145.916,68.123C145.843,68.123 145.692,68.072 145.464,67.97C145.235,67.867 145.033,67.816 144.857,67.816C144.702,67.816 144.501,67.913 144.255,68.106C144.009,68.299 143.886,68.466 143.886,68.607L143.886,73.379C143.886,73.687 143.918,73.907 143.981,74.039C144.044,74.17 144.146,74.253 144.288,74.287C144.43,74.321 144.68,74.348 145.038,74.368L145.038,74.711Z" style="fill:rgb(33,31,31);fill-rule:nonzero;"/>
            </g>
            <g transform="matrix(0.999989,0,0,1,0.00162612,0)">
                <path d="M147.037,70.769C147.037,70.23 147.128,69.714 147.311,69.222C147.494,68.73 147.753,68.298 148.087,67.926C148.421,67.554 148.819,67.262 149.28,67.051C149.741,66.84 150.248,66.735 150.798,66.735C151.373,66.735 151.901,66.839 152.383,67.047C152.865,67.255 153.274,67.546 153.611,67.919C153.948,68.293 154.208,68.728 154.391,69.227C154.574,69.725 154.666,70.262 154.666,70.839C154.666,71.619 154.509,72.317 154.195,72.936C153.882,73.554 153.434,74.037 152.851,74.386C152.268,74.734 151.589,74.909 150.816,74.909C150.042,74.909 149.369,74.726 148.794,74.359C148.22,73.993 147.784,73.496 147.485,72.867C147.186,72.239 147.037,71.54 147.037,70.769ZM148.566,70.839C148.566,71.736 148.747,72.581 149.109,73.375C149.47,74.169 150.045,74.566 150.834,74.566C151.364,74.566 151.803,74.4 152.15,74.067C152.497,73.735 152.748,73.316 152.903,72.81C153.059,72.305 153.136,71.793 153.136,71.274C153.136,68.477 152.375,67.078 150.851,67.078C150.312,67.078 149.87,67.283 149.526,67.695C149.182,68.107 148.936,68.602 148.788,69.18C148.64,69.759 148.566,70.312 148.566,70.839Z" style="fill:rgb(33,31,31);fill-rule:nonzero;"/>
                <path d="M159.361,74.711L155.889,74.711L155.889,74.368C156.338,74.339 156.624,74.277 156.749,74.181C156.873,74.086 156.935,73.819 156.935,73.379L156.935,68.915C156.935,68.578 156.869,68.326 156.735,68.161C156.602,67.995 156.374,67.869 156.052,67.781L156.052,67.583C156.289,67.513 156.529,67.434 156.77,67.346C157.012,67.258 157.258,67.165 157.507,67.067C157.756,66.968 158.038,66.858 158.355,66.735L158.355,68.106C158.706,67.748 158.977,67.488 159.168,67.324C159.358,67.16 159.59,67.02 159.862,66.906C160.134,66.792 160.448,66.735 160.802,66.735C161.233,66.735 161.652,66.84 162.059,67.051C162.467,67.262 162.797,67.549 163.05,67.913C163.304,68.276 163.43,68.676 163.43,69.112L163.43,73.379C163.43,73.798 163.513,74.059 163.679,74.162C163.844,74.264 164.128,74.333 164.529,74.368L164.529,74.711L160.965,74.711L160.965,74.368C161.413,74.339 161.7,74.277 161.824,74.181C161.949,74.086 162.011,73.819 162.011,73.379L162.011,69.42C162.011,68.84 161.854,68.38 161.541,68.04C161.227,67.7 160.783,67.53 160.209,67.53C159.951,67.53 159.677,67.606 159.385,67.757C159.094,67.907 158.849,68.105 158.651,68.35C158.454,68.594 158.355,68.849 158.355,69.112L158.355,73.379C158.355,73.819 158.415,74.086 158.537,74.181C158.659,74.277 158.933,74.339 159.361,74.368L159.361,74.711Z" style="fill:rgb(33,31,31);fill-rule:nonzero;"/>
                <path d="M165.643,70.769C165.643,70.23 165.735,69.714 165.918,69.222C166.101,68.73 166.359,68.298 166.693,67.926C167.027,67.554 167.425,67.262 167.886,67.051C168.348,66.84 168.854,66.735 169.405,66.735C169.979,66.735 170.507,66.839 170.989,67.047C171.471,67.255 171.88,67.546 172.217,67.919C172.554,68.293 172.814,68.728 172.997,69.227C173.18,69.725 173.272,70.262 173.272,70.839C173.272,71.619 173.115,72.317 172.802,72.936C172.488,73.554 172.04,74.037 171.457,74.386C170.874,74.734 170.196,74.909 169.422,74.909C168.649,74.909 167.975,74.726 167.401,74.359C166.827,73.993 166.39,73.496 166.091,72.867C165.792,72.239 165.643,71.54 165.643,70.769ZM167.172,70.839C167.172,71.736 167.353,72.581 167.715,73.375C168.077,74.169 168.652,74.566 169.44,74.566C169.97,74.566 170.409,74.4 170.756,74.067C171.103,73.735 171.354,73.316 171.51,72.81C171.665,72.305 171.743,71.793 171.743,71.274C171.743,68.477 170.981,67.078 169.457,67.078C168.918,67.078 168.477,67.283 168.132,67.695C167.788,68.107 167.542,68.602 167.394,69.18C167.246,69.759 167.172,70.312 167.172,70.839Z" style="fill:rgb(33,31,31);fill-rule:nonzero;"/>
            </g>
            <g transform="matrix(0.999989,0,0,1,0.00193063,0)">
                <path d="M177.879,74.711L174.495,74.711L174.495,74.368C174.923,74.339 175.198,74.277 175.319,74.181C175.441,74.086 175.502,73.819 175.502,73.379L175.502,68.769C175.502,68.485 175.431,68.274 175.291,68.137C175.15,67.999 174.928,67.863 174.623,67.728L174.623,67.583C174.884,67.533 175.13,67.464 175.363,67.376C175.596,67.289 175.856,67.18 176.143,67.051C176.43,66.922 176.679,66.817 176.89,66.735L176.89,68.194C177.221,67.836 177.501,67.562 177.728,67.372C177.955,67.182 178.216,67.028 178.512,66.911C178.808,66.793 179.149,66.735 179.536,66.735C180.553,66.735 181.314,67.264 181.821,68.321C182.246,67.823 182.662,67.434 183.069,67.155C183.476,66.875 183.936,66.735 184.449,66.735C184.965,66.735 185.422,66.881 185.82,67.174C186.219,67.467 186.528,67.839 186.747,68.29C186.967,68.742 187.077,69.19 187.077,69.635L187.077,73.647C187.077,73.873 187.103,74.031 187.156,74.122C187.209,74.213 187.301,74.271 187.433,74.298C187.565,74.324 187.806,74.348 188.158,74.368L188.158,74.711L184.647,74.711L184.647,74.368C184.978,74.348 185.206,74.321 185.33,74.287C185.455,74.253 185.54,74.174 185.585,74.05C185.63,73.925 185.653,73.702 185.653,73.379L185.653,69.565C185.653,68.941 185.496,68.446 185.183,68.08C184.869,67.713 184.409,67.53 183.803,67.53C183.539,67.53 183.265,67.603 182.981,67.75C182.697,67.896 182.463,68.093 182.278,68.339C182.094,68.585 182.001,68.843 182.001,69.112L182.001,73.379C182.001,73.672 182.036,73.888 182.107,74.025C182.177,74.163 182.274,74.249 182.399,74.285C182.523,74.32 182.721,74.348 182.99,74.368L182.99,74.711L179.571,74.711L179.571,74.368C179.92,74.348 180.156,74.319 180.279,74.282C180.402,74.246 180.482,74.165 180.52,74.039C180.558,73.913 180.577,73.687 180.577,73.362L180.577,69.455C180.577,68.172 180.008,67.53 178.868,67.53C178.478,67.53 178.137,67.617 177.844,67.792C177.551,67.966 177.325,68.167 177.165,68.396C177.005,68.624 176.926,68.803 176.926,68.932L176.926,73.379C176.926,73.801 176.992,74.063 177.123,74.166C177.255,74.269 177.507,74.336 177.879,74.368L177.879,74.711Z" style="fill:rgb(33,31,31);fill-rule:nonzero;"/>
            </g>
            <g transform="matrix(0.999989,0,0,1,0.00209145,0)">
                <path d="M188.375,67.275L188.375,66.937L192.282,66.937L192.282,67.275C191.392,67.275 190.946,67.444 190.946,67.781C190.946,67.866 191.019,68.046 191.166,68.321L193.631,72.909L195.068,68.752C195.203,68.333 195.27,68.04 195.27,67.873C195.27,67.615 195.158,67.455 194.934,67.392C194.71,67.329 194.396,67.29 193.992,67.275L193.992,66.937L197.033,66.937L197.033,67.275C196.617,67.275 196.321,67.352 196.147,67.506C195.973,67.66 195.812,67.949 195.666,68.374L192.766,76.693C192.558,77.279 192.333,77.74 192.093,78.077C191.853,78.414 191.507,78.582 191.056,78.582C190.866,78.582 190.704,78.51 190.57,78.365C190.437,78.22 190.371,78.052 190.371,77.862C190.371,77.645 190.431,77.47 190.553,77.337C190.675,77.203 190.842,77.132 191.056,77.123C191.118,77.129 191.211,77.147 191.337,77.176C191.463,77.206 191.561,77.223 191.632,77.229C191.86,77.229 192.037,77.151 192.161,76.994C192.286,76.837 192.392,76.628 192.48,76.368L193.038,74.583L189.544,68.211C189.459,68.059 189.379,67.915 189.303,67.781C189.227,67.646 189.16,67.553 189.103,67.502C189.046,67.45 188.969,67.409 188.872,67.379C188.775,67.348 188.61,67.313 188.375,67.275Z" style="fill:rgb(33,31,31);fill-rule:nonzero;"/>
            </g>
        </g>
        <path d="M35.695,39.115C35.607,38.451 35.65,37.485 35.65,37.014L36.65,25.675L40.365,25.675L39.345,37.116C39.127,39.594 40.097,41.361 42.57,41.361C45.099,41.361 46.433,39.563 46.654,37.368L47.709,25.675L51.422,25.675L50.396,37.217C49.978,41.664 47.031,44.996 42.261,44.996C38.545,44.996 36.148,42.59 35.695,39.115" style="fill:rgb(44,129,188);fill-rule:nonzero;"/>
        <path d="M52.93,35.276C53.414,29.828 57.088,25.313 63.436,25.313C65.106,25.313 66.709,25.694 68.313,26.722L67.887,31.223C66.424,29.297 64.686,28.985 63.08,28.985C59.131,28.985 56.965,31.727 56.657,35.201C56.356,38.582 58.102,41.33 61.926,41.33C63.596,41.33 65.366,40.846 67.223,38.992L66.811,43.612C65.006,44.59 63.326,45.039 61.633,45.039C55.354,45.039 52.477,40.371 52.93,35.276" style="fill:rgb(44,129,188);fill-rule:nonzero;"/>
        <path d="M71.275,25.675L74.98,25.675L73.629,41.078L78.937,41.078C79.308,41.078 80.574,41.059 80.92,41.037C80.898,41.227 80.578,44.596 80.578,44.596L69.595,44.596L71.275,25.675Z" style="fill:rgb(44,129,188);fill-rule:nonzero;"/>
        <path d="M91.523,24.805L91.267,24.807L81.123,44.596L85.062,44.596L86.484,41.596L93.628,41.596L94.521,44.601L98.449,44.596L91.523,24.805ZM90.574,32.74C90.695,32.468 90.804,32.137 90.845,31.943C90.847,31.942 90.908,31.942 90.908,31.942C90.925,32.179 90.968,32.464 91.046,32.743C91.25,33.603 92.695,38.398 92.695,38.398L88.015,38.395C88.015,38.395 90.521,32.861 90.574,32.74" style="fill:rgb(44,129,188);fill-rule:nonzero;"/>
        <path d="M35.641,53.819L198.999,53.819" style="fill:none;stroke-width:1px;stroke:rgb(44,129,188);"/>
    </g>
</svg>
