<?xml version="1.0" standalone="no"?>
<!DOCTYPE svg PUBLIC "-//W3C//DTD SVG 1.1//EN" "http://www.w3.org/Graphics/SVG/1.1/DTD/svg11.dtd">
<svg width="100%" height="100%" viewBox="0 0 1000 1000" version="1.1" xmlns="http://www.w3.org/2000/svg" xmlns:xlink="http://www.w3.org/1999/xlink" xml:space="preserve" style="fill-rule:evenodd;clip-rule:evenodd;stroke-linecap:round;stroke-linejoin:round;stroke-miterlimit:1.41421;">
    <g id="Layer1">
        <g>
            <g transform="matrix(0.939693,-0.34202,0.34202,0.939693,-112.968,407.844)">
                <path d="M352.47,323.706L322.806,202.17L370.614,202.17L376.662,243.642C377.814,250.938 378.87,257.802 379.83,264.234C380.79,270.666 381.846,277.626 382.998,285.114L384.15,285.114C387.99,277.626 391.59,270.57 394.95,263.946C398.31,257.322 402.006,250.362 406.038,243.066L428.502,202.17L478.038,202.17L398.55,323.706L385.302,389.37L339.51,389.37L352.47,323.706Z" style="fill:rgb(0,115,197);fill-rule:nonzero;"/>
                <path d="M492.15,391.884C484.33,391.884 477.174,390.592 470.681,388.009C464.188,385.425 458.637,381.69 454.029,376.803C449.421,371.916 445.825,365.876 443.242,358.685C440.659,351.494 439.367,343.29 439.367,334.074C439.367,321.367 441.357,309.882 445.337,299.619C449.316,289.356 454.553,280.593 461.046,273.332C467.539,266.071 475.009,260.486 483.457,256.576C491.905,252.666 500.668,250.711 509.744,250.711C517.564,250.711 524.72,252.003 531.213,254.586C537.706,257.169 543.257,260.905 547.865,265.792C552.473,270.679 556.068,276.718 558.652,283.91C561.235,291.101 562.526,299.305 562.526,308.521C562.526,321.228 560.537,332.713 556.557,342.976C552.577,353.239 547.341,362.001 540.848,369.262C534.355,376.524 526.849,382.109 518.332,386.019C509.814,389.929 501.086,391.884 492.15,391.884ZM508.068,279.616C504.158,279.616 500.179,280.873 496.129,283.386C492.08,285.9 488.38,289.46 485.028,294.068C481.677,298.676 478.954,304.192 476.86,310.615C474.765,317.038 473.718,324.16 473.718,331.98C473.718,341.894 475.498,349.539 479.059,354.915C482.62,360.291 487.542,362.979 493.825,362.979C497.735,362.979 501.715,361.722 505.764,359.209C509.814,356.695 513.514,353.134 516.865,348.526C520.217,343.918 522.94,338.403 525.034,331.98C527.129,325.556 528.176,318.435 528.176,310.615C528.176,300.701 526.396,293.056 522.835,287.68C519.274,282.304 514.352,279.616 508.068,279.616Z" style="fill:rgb(0,115,197);fill-rule:nonzero;"/>
                <path d="M586.195,253.225L619.708,253.225L605.046,326.534C604.627,329.326 604.243,331.98 603.894,334.493C603.545,337.006 603.37,339.52 603.37,342.033C603.37,349.015 604.627,354.252 607.14,357.742C609.654,361.233 614.401,362.979 621.383,362.979C627.388,362.979 632.205,360.465 635.836,355.438C639.466,350.412 642.468,342.033 644.842,330.304L660.342,253.225L693.017,253.225L677.517,329.466C673.328,350.97 666.695,366.749 657.619,376.803C648.542,386.857 636.185,391.884 620.545,391.884C603.51,391.884 590.803,387.939 582.425,380.049C574.046,372.16 569.857,359.767 569.857,342.871C569.857,339.66 570.172,335.924 570.8,331.665C571.428,327.406 572.092,323.462 572.79,319.831L586.195,253.225Z" style="fill:rgb(0,115,197);fill-rule:nonzero;"/>
                <path d="M730.3,316.061L742.448,316.061C751.524,316.061 758.262,314.071 762.66,310.092C767.059,306.112 769.258,300.841 769.258,294.278C769.258,289.251 767.548,285.55 764.126,283.177C760.705,280.803 755.853,279.616 749.569,279.616L737.421,279.616L730.3,316.061ZM754.177,253.225C761.02,253.225 767.373,253.853 773.238,255.11C779.102,256.366 784.199,258.426 788.528,261.289C792.857,264.151 796.243,267.886 798.686,272.494C801.13,277.102 802.352,282.688 802.352,289.251C802.352,295.534 801.549,301.225 799.943,306.321C798.337,311.418 796.068,315.956 793.136,319.936C790.204,323.916 786.713,327.337 782.663,330.199C778.614,333.062 774.215,335.401 769.468,337.216L789.785,389.37L754.596,389.37L738.887,342.452L724.854,342.452L715.638,389.37L682.125,389.37L709.354,253.225L754.177,253.225Z" style="fill:rgb(0,115,197);fill-rule:nonzero;"/>
            </g>
            <g transform="matrix(0.939693,-0.34202,0.34202,0.939693,-228.905,220.173)">
                <path d="M334.374,246.37L421.494,246.37L415.774,275.85L363.414,275.85L358.574,300.93L403.014,300.93L397.294,330.41L352.854,330.41L346.694,359.89L400.814,359.89L395.094,389.37L305.774,389.37L334.374,246.37Z" style="fill:rgb(0,115,197);fill-rule:nonzero;"/>
                <path d="M443.694,335.93L428.014,285.37L456.494,285.37L460.334,303.61C460.867,306.063 461.4,308.677 461.934,311.45C462.467,314.223 463.107,317.263 463.854,320.57L464.494,320.57C466.307,317.263 468.014,314.223 469.614,311.45C471.214,308.677 472.707,306.063 474.094,303.61L484.334,285.37L511.534,285.37L475.374,336.89L492.334,389.37L463.854,389.37L459.374,369.21C458.734,366.437 458.094,363.69 457.454,360.97C456.814,358.25 456.174,355.343 455.534,352.25L454.894,352.25C453.08,355.343 451.374,358.25 449.774,360.97C448.174,363.69 446.574,366.437 444.974,369.21L432.814,389.37L405.614,389.37L443.694,335.93Z" style="fill:rgb(0,115,197);fill-rule:nonzero;"/>
                <path d="M523.694,285.37L557.934,285.37C563.054,285.37 567.854,285.877 572.334,286.89C576.814,287.903 580.707,289.53 584.014,291.77C587.32,294.01 589.934,296.943 591.854,300.57C593.774,304.197 594.734,308.623 594.734,313.85C594.734,321.423 593.4,327.85 590.734,333.13C588.067,338.41 584.494,342.703 580.014,346.01C575.534,349.317 570.334,351.717 564.414,353.21C558.494,354.703 552.28,355.45 545.774,355.45L535.214,355.45L528.494,389.37L502.894,389.37L523.694,285.37ZM548.814,335.29C555.427,335.29 560.52,333.797 564.094,330.81C567.667,327.823 569.454,323.45 569.454,317.69C569.454,313.53 568.147,310.463 565.534,308.49C562.92,306.517 559.214,305.53 554.414,305.53L545.134,305.53L539.374,335.29L548.814,335.29Z" style="fill:rgb(0,115,197);fill-rule:nonzero;"/>
                <path d="M614.254,285.37L639.854,285.37L623.214,367.93L660.974,367.93L656.814,389.37L593.454,389.37L614.254,285.37Z" style="fill:rgb(0,115,197);fill-rule:nonzero;"/>
                <path d="M703.814,391.29C697.84,391.29 692.374,390.303 687.414,388.33C682.454,386.357 678.214,383.503 674.694,379.77C671.174,376.037 668.427,371.423 666.454,365.93C664.48,360.437 663.494,354.17 663.494,347.13C663.494,337.423 665.014,328.65 668.054,320.81C671.094,312.97 675.094,306.277 680.054,300.73C685.014,295.183 690.72,290.917 697.174,287.93C703.627,284.943 710.32,283.45 717.254,283.45C723.227,283.45 728.694,284.437 733.654,286.41C738.614,288.383 742.854,291.237 746.374,294.97C749.894,298.703 752.64,303.317 754.614,308.81C756.587,314.303 757.574,320.57 757.574,327.61C757.574,337.317 756.054,346.09 753.014,353.93C749.974,361.77 745.974,368.463 741.014,374.01C736.054,379.557 730.32,383.823 723.814,386.81C717.307,389.797 710.64,391.29 703.814,391.29ZM715.974,305.53C712.987,305.53 709.947,306.49 706.854,308.41C703.76,310.33 700.934,313.05 698.374,316.57C695.814,320.09 693.734,324.303 692.134,329.21C690.534,334.117 689.734,339.557 689.734,345.53C689.734,353.103 691.094,358.943 693.814,363.05C696.534,367.157 700.294,369.21 705.094,369.21C708.08,369.21 711.12,368.25 714.214,366.33C717.307,364.41 720.134,361.69 722.694,358.17C725.254,354.65 727.334,350.437 728.934,345.53C730.534,340.623 731.334,335.183 731.334,329.21C731.334,321.637 729.974,315.797 727.254,311.69C724.534,307.583 720.774,305.53 715.974,305.53Z" style="fill:rgb(0,115,197);fill-rule:nonzero;"/>
                <path d="M796.294,333.37L805.574,333.37C812.507,333.37 817.654,331.85 821.014,328.81C824.374,325.77 826.054,321.743 826.054,316.73C826.054,312.89 824.747,310.063 822.134,308.25C819.52,306.437 815.814,305.53 811.014,305.53L801.734,305.53L796.294,333.37ZM814.534,285.37C819.76,285.37 824.614,285.85 829.094,286.81C833.574,287.77 837.467,289.343 840.774,291.53C844.08,293.717 846.667,296.57 848.534,300.09C850.4,303.61 851.334,307.877 851.334,312.89C851.334,317.69 850.72,322.037 849.494,325.93C848.267,329.823 846.534,333.29 844.294,336.33C842.054,339.37 839.387,341.983 836.294,344.17C833.2,346.357 829.84,348.143 826.214,349.53L841.734,389.37L814.854,389.37L802.854,353.53L792.134,353.53L785.094,389.37L759.494,389.37L780.294,285.37L814.534,285.37Z" style="fill:rgb(0,115,197);fill-rule:nonzero;"/>
                <path d="M873.414,285.37L899.014,285.37L878.214,389.37L852.614,389.37L873.414,285.37Z" style="fill:rgb(0,115,197);fill-rule:nonzero;"/>
                <path d="M918.214,285.37L942.854,285.37L957.254,334.65L962.374,358.01L963.014,358.01C963.227,355.237 963.44,352.197 963.654,348.89C963.867,345.583 964.134,342.223 964.454,338.81C964.774,335.397 965.147,331.957 965.574,328.49C966,325.023 966.534,321.743 967.174,318.65L973.894,285.37L998.214,285.37L977.414,389.37L952.774,389.37L938.374,340.09L933.574,316.73L932.934,316.73C932.4,322.703 931.84,329.13 931.254,336.01C930.667,342.89 929.734,349.477 928.454,355.77L921.734,389.37L897.414,389.37L918.214,285.37Z" style="fill:rgb(0,115,197);fill-rule:nonzero;"/>
                <path d="M1001.73,347.13C1001.73,337.85 1003.23,329.317 1006.21,321.53C1009.2,313.743 1013.28,307.023 1018.45,301.37C1023.63,295.717 1029.71,291.317 1036.69,288.17C1043.68,285.023 1051.23,283.45 1059.33,283.45C1066.27,283.45 1072.24,284.917 1077.25,287.85C1082.27,290.783 1086.32,294.97 1089.41,300.41L1072.13,313.85C1070.21,310.97 1068.16,308.863 1065.97,307.53C1063.79,306.197 1061.15,305.53 1058.05,305.53C1053.89,305.53 1049.97,306.57 1046.29,308.65C1042.61,310.73 1039.41,313.557 1036.69,317.13C1033.97,320.703 1031.84,324.943 1030.29,329.85C1028.75,334.757 1027.97,339.983 1027.97,345.53C1027.97,353.103 1029.55,358.997 1032.69,363.21C1035.84,367.423 1041.09,369.53 1048.45,369.53C1049.95,369.53 1051.52,369.317 1053.17,368.89C1054.83,368.463 1056.24,367.823 1057.41,366.97L1061.25,349.69L1045.89,349.69L1049.73,328.89L1087.49,328.89L1077.57,380.41C1073.52,383.503 1068.59,386.09 1062.77,388.17C1056.96,390.25 1050.69,391.29 1043.97,391.29C1037.47,391.29 1031.63,390.303 1026.45,388.33C1021.28,386.357 1016.85,383.503 1013.17,379.77C1009.49,376.037 1006.67,371.423 1004.69,365.93C1002.72,360.437 1001.73,354.17 1001.73,347.13Z" style="fill:rgb(0,115,197);fill-rule:nonzero;"/>
            </g>
            <g transform="matrix(0.939693,-0.34202,0.34202,0.939693,-224.581,612.008)">
                <path d="M333.494,246.37L368.694,246.37L353.294,323.37C352.854,326.303 352.45,329.09 352.084,331.73C351.717,334.37 351.534,337.01 351.534,339.65C351.534,346.983 352.854,352.483 355.494,356.15C358.134,359.817 363.12,361.65 370.454,361.65C376.76,361.65 381.82,359.01 385.634,353.73C389.447,348.45 392.6,339.65 395.094,327.33L411.374,246.37L445.694,246.37L429.414,326.45C425.014,349.037 418.047,365.61 408.514,376.17C398.98,386.73 386,392.01 369.574,392.01C351.68,392.01 338.334,387.867 329.534,379.58C320.734,371.293 316.334,358.277 316.334,340.53C316.334,337.157 316.664,333.233 317.324,328.76C317.984,324.287 318.68,320.143 319.414,316.33L333.494,246.37Z" style="fill:rgb(0,115,197);fill-rule:nonzero;"/>
                <path d="M462.294,285.37L486.934,285.37L501.334,334.65L506.454,358.01L507.094,358.01C507.307,355.237 507.52,352.197 507.734,348.89C507.947,345.583 508.214,342.223 508.534,338.81C508.854,335.397 509.227,331.957 509.654,328.49C510.08,325.023 510.614,321.743 511.254,318.65L517.974,285.37L542.294,285.37L521.494,389.37L496.854,389.37L482.454,340.09L477.654,316.73L477.014,316.73C476.48,322.703 475.92,329.13 475.334,336.01C474.747,342.89 473.814,349.477 472.534,355.77L465.814,389.37L441.494,389.37L462.294,285.37Z" style="fill:rgb(0,115,197);fill-rule:nonzero;"/>
                <path d="M561.814,285.37L587.414,285.37L566.614,389.37L541.014,389.37L561.814,285.37Z" style="fill:rgb(0,115,197);fill-rule:nonzero;"/>
                <path d="M594.134,285.37L621.014,285.37L622.934,334.01C623.147,339.45 623.307,344.917 623.414,350.41C623.52,355.903 623.574,361.423 623.574,366.97L624.214,366.97C626.56,361.423 628.854,355.93 631.094,350.49C633.334,345.05 635.627,339.557 637.974,334.01L659.094,285.37L687.254,285.37L633.814,389.37L602.774,389.37L594.134,285.37Z" style="fill:rgb(0,115,197);fill-rule:nonzero;"/>
                <path d="M693.974,285.37L757.334,285.37L753.174,306.81L715.094,306.81L711.574,325.05L743.894,325.05L739.734,346.49L707.414,346.49L702.934,367.93L742.294,367.93L738.134,389.37L673.174,389.37L693.974,285.37Z" style="fill:rgb(0,115,197);fill-rule:nonzero;"/>
                <path d="M790.934,333.37L800.214,333.37C807.147,333.37 812.294,331.85 815.654,328.81C819.014,325.77 820.694,321.743 820.694,316.73C820.694,312.89 819.387,310.063 816.774,308.25C814.16,306.437 810.454,305.53 805.654,305.53L796.374,305.53L790.934,333.37ZM809.174,285.37C814.4,285.37 819.254,285.85 823.734,286.81C828.214,287.77 832.107,289.343 835.414,291.53C838.72,293.717 841.307,296.57 843.174,300.09C845.04,303.61 845.974,307.877 845.974,312.89C845.974,317.69 845.36,322.037 844.134,325.93C842.907,329.823 841.174,333.29 838.934,336.33C836.694,339.37 834.027,341.983 830.934,344.17C827.84,346.357 824.48,348.143 820.854,349.53L836.374,389.37L809.494,389.37L797.494,353.53L786.774,353.53L779.734,389.37L754.134,389.37L774.934,285.37L809.174,285.37Z" style="fill:rgb(0,115,197);fill-rule:nonzero;"/>
                <path d="M858.574,356.89C861.347,360.623 864.654,363.663 868.494,366.01C872.334,368.357 876.28,369.53 880.334,369.53C884.067,369.53 887.027,368.73 889.214,367.13C891.4,365.53 892.494,363.29 892.494,360.41C892.494,358.063 891.427,356.17 889.294,354.73C887.16,353.29 884.28,351.45 880.654,349.21L871.694,343.61C866.894,340.517 863.134,336.943 860.414,332.89C857.694,328.837 856.334,323.557 856.334,317.05C856.334,312.357 857.347,307.983 859.374,303.93C861.4,299.877 864.12,296.33 867.534,293.29C870.947,290.25 874.974,287.85 879.614,286.09C884.254,284.33 889.24,283.45 894.574,283.45C900.654,283.45 906.494,284.863 912.094,287.69C917.694,290.517 922.627,294.49 926.894,299.61L910.894,314.65C908.227,311.983 905.534,309.797 902.814,308.09C900.094,306.383 897.027,305.53 893.614,305.53C889.88,305.53 887.107,306.41 885.294,308.17C883.48,309.93 882.574,312.037 882.574,314.49C882.574,316.623 883.667,318.41 885.854,319.85C888.04,321.29 891.214,323.343 895.374,326.01L904.974,331.93C909.987,335.023 913.587,338.41 915.774,342.09C917.96,345.77 919.054,350.65 919.054,356.73C919.054,361.53 918.094,366.01 916.174,370.17C914.254,374.33 911.534,377.983 908.014,381.13C904.494,384.277 900.227,386.757 895.214,388.57C890.2,390.383 884.6,391.29 878.414,391.29C871.8,391.29 865.16,389.77 858.494,386.73C851.827,383.69 845.774,378.543 840.334,371.29L858.574,356.89Z" style="fill:rgb(0,115,197);fill-rule:nonzero;"/>
                <path d="M946.254,285.37L1009.61,285.37L1005.45,306.81L967.374,306.81L963.854,325.05L996.174,325.05L992.014,346.49L959.694,346.49L955.214,367.93L994.574,367.93L990.414,389.37L925.454,389.37L946.254,285.37Z" style="fill:rgb(0,115,197);fill-rule:nonzero;"/>
            </g>
        </g>
        <g>
            <g transform="matrix(1.12705,0,0,1.12705,-90.3543,-146.52)">
                <path d="M701.261,266.279C647.308,235.13 586.106,218.73 523.806,218.73C327.926,218.73 168.896,377.76 168.896,573.64C168.896,638.153 186.481,701.446 219.759,756.714C186.481,701.446 168.896,638.153 168.896,573.64C168.896,377.76 327.926,218.73 523.806,218.73C586.106,218.73 647.308,235.13 701.261,266.279Z" style="fill:rgb(235,235,235);stroke-width:17.75px;stroke:rgb(249,113,24);"/>
            </g>
            <g transform="matrix(1.12705,0,0,1.12705,-90.3543,-146.52)">
                <path d="M363.606,890.337C413.271,915.46 468.149,928.55 523.806,928.55C719.686,928.55 878.716,769.52 878.716,573.64C878.716,505.134 858.889,438.091 821.628,380.604C858.889,438.091 878.716,505.134 878.716,573.64C878.716,769.52 719.686,928.55 523.806,928.55C468.149,928.55 413.271,915.46 363.606,890.337Z" style="fill:rgb(235,235,235);stroke-width:17.75px;stroke:rgb(249,113,24);"/>
            </g>
        </g>
    </g>
</svg>
