<?xml version="1.0" encoding="UTF-8" standalone="no"?>
<!DOCTYPE svg PUBLIC "-//W3C//DTD SVG 1.1//EN" "http://www.w3.org/Graphics/SVG/1.1/DTD/svg11.dtd">
<svg width="100%" height="100%" viewBox="0 0 1000 1000" version="1.1" xmlns="http://www.w3.org/2000/svg" xmlns:xlink="http://www.w3.org/1999/xlink" xml:space="preserve" style="fill-rule:evenodd;clip-rule:evenodd;stroke-linecap:round;stroke-linejoin:round;stroke-miterlimit:1.41421;">
    <g id="Logo">
        <g>
            <g transform="matrix(1.12705,0,0,1.12705,-90.3543,-146.52)">
                <path d="M701.261,266.279C647.308,235.13 586.106,218.73 523.806,218.73C327.926,218.73 168.896,377.76 168.896,573.64C168.896,635.94 185.296,697.142 216.445,751.095C185.296,697.142 168.896,635.94 168.896,573.64C168.896,377.76 327.926,218.73 523.806,218.73C586.106,218.73 647.308,235.13 701.261,266.279Z" style="fill:rgb(235,235,235);stroke-width:17.75px;stroke:rgb(249,113,24);"/>
            </g>
            <g transform="matrix(1.12705,0,0,1.12705,-90.3543,-146.52)">
                <path d="M371.014,893.976C418.734,916.738 470.936,928.55 523.806,928.55C719.686,928.55 878.716,769.52 878.716,573.64C878.716,507.134 860.029,441.967 824.787,385.567C860.029,441.967 878.716,507.134 878.716,573.64C878.716,769.52 719.686,928.55 523.806,928.55C470.936,928.55 418.734,916.738 371.014,893.976Z" style="fill:rgb(235,235,235);stroke-width:17.75px;stroke:rgb(249,113,24);"/>
            </g>
        </g>
        <g>
            <g transform="matrix(0.939693,-0.34202,0.34202,0.939693,-121.968,416.844)">
                <text x="300.054px" y="389.37px" style="font-family:'SourceSansPro-BlackIt', 'Source Sans Pro', sans-serif;font-weight:900;font-style:italic;font-size:288px;fill:rgb(0,115,197);">Y</text>
                <text x="427.638px" y="389.37px" style="font-family:'SourceSansPro-BlackIt', 'Source Sans Pro', sans-serif;font-weight:900;font-style:italic;font-size:218.182px;fill:rgb(0,115,197);">O</text>
                <text x="559.638px" y="389.37px" style="font-family:'SourceSansPro-BlackIt', 'Source Sans Pro', sans-serif;font-weight:900;font-style:italic;font-size:218.182px;fill:rgb(0,115,197);">U<tspan x="687.056px " y="389.37px ">R</tspan></text>
            </g>
            <g transform="matrix(0.939693,-0.34202,0.34202,0.939693,-235.905,231.173)">
                <text x="300.054px" y="389.37px" style="font-family:'SourceSansPro-BlackIt', 'Source Sans Pro', sans-serif;font-weight:900;font-style:italic;font-size:218px;fill:rgb(0,115,197);">E</text>
                <text x="410.362px" y="389.37px" style="font-family:'SourceSansPro-BlackIt', 'Source Sans Pro', sans-serif;font-weight:900;font-style:italic;font-size:165.152px;fill:rgb(0,115,197);">X<tspan x="500.534px " y="389.37px ">P</tspan></text>
                <text x="594.01px" y="389.37px" style="font-family:'SourceSansPro-BlackIt', 'Source Sans Pro', sans-serif;font-weight:900;font-style:italic;font-size:165.152px;fill:rgb(0,115,197);">L</text>
                <text x="661.987px" y="389.37px" style="font-family:'SourceSansPro-BlackIt', 'Source Sans Pro', sans-serif;font-weight:900;font-style:italic;font-size:165.152px;fill:rgb(0,115,197);">O</text>
                <text x="766.032px" y="389.37px" style="font-family:'SourceSansPro-BlackIt', 'Source Sans Pro', sans-serif;font-weight:900;font-style:italic;font-size:165.152px;fill:rgb(0,115,197);">R<tspan x="862.15px 908.393px 1011.12px " y="389.37px 389.37px 389.37px ">ING</tspan></text>
            </g>
            <g transform="matrix(0.939693,-0.34202,0.34202,0.939693,-237.581,619.008)">
                <text x="300.054px" y="389.37px" style="font-family:'SourceSansPro-BlackIt', 'Source Sans Pro', sans-serif;font-weight:900;font-style:italic;font-size:218px;fill:rgb(0,115,197);">U</text>
                <text x="434.996px" y="389.37px" style="font-family:'SourceSansPro-BlackIt', 'Source Sans Pro', sans-serif;font-weight:900;font-style:italic;font-size:165.152px;fill:rgb(0,115,197);">N<tspan x="537.72px 583.962px 674.135px 757.702px 850.768px 934.665px " y="389.37px 389.37px 389.37px 389.37px 389.37px 389.37px ">IVERSE</tspan></text>
            </g>
        </g>
    </g>
</svg>
