<?xml version="1.0" encoding="UTF-8" standalone="no"?>
<!DOCTYPE svg PUBLIC "-//W3C//DTD SVG 1.1//EN" "http://www.w3.org/Graphics/SVG/1.1/DTD/svg11.dtd">
<svg width="100%" height="100%" viewBox="0 0 1000 1000" version="1.1" xmlns="http://www.w3.org/2000/svg" xmlns:xlink="http://www.w3.org/1999/xlink" xml:space="preserve" style="fill-rule:evenodd;clip-rule:evenodd;stroke-linecap:round;stroke-linejoin:round;stroke-miterlimit:1.41421;">
    <g id="Logo">
        <g>
            <g transform="matrix(1.12705,0,0,1.12705,-90.3543,-146.52)">
                <path d="M701.261,266.279C647.308,235.13 586.106,218.73 523.806,218.73C327.926,218.73 168.896,377.76 168.896,573.64C168.896,635.94 185.296,697.142 216.445,751.095C185.296,697.142 168.896,635.94 168.896,573.64C168.896,377.76 327.926,218.73 523.806,218.73C586.106,218.73 647.308,235.13 701.261,266.279Z" style="fill:rgb(235,235,235);stroke-width:17.75px;stroke:rgb(249,113,24);"/>
            </g>
            <g transform="matrix(1.12705,0,0,1.12705,-90.3543,-146.52)">
                <path d="M371.014,893.976C418.734,916.738 470.936,928.55 523.806,928.55C719.686,928.55 878.716,769.52 878.716,573.64C878.716,507.134 860.029,441.967 824.787,385.567C860.029,441.967 878.716,507.134 878.716,573.64C878.716,769.52 719.686,928.55 523.806,928.55C470.936,928.55 418.734,916.738 371.014,893.976Z" style="fill:rgb(235,235,235);stroke-width:17.75px;stroke:rgb(249,113,24);"/>
            </g>
        </g>
        <g>
            <g transform="matrix(0.939693,-0.34202,0.34202,0.939693,-121.968,416.844)">
                <path d="M339.51,389.37L385.302,389.37L398.55,323.706L478.038,202.17L428.502,202.17L406.038,243.066C397.974,257.466 391.638,270.138 384.15,285.114L382.998,285.114C380.694,270.138 378.966,258.042 376.662,243.642L370.614,202.17L322.806,202.17L352.47,323.706L339.51,389.37Z" style="fill:rgb(0,115,197);fill-rule:nonzero;"/>
                <path d="M494.838,391.988C532.365,391.988 568.147,357.952 568.147,305.152C568.147,266.752 545.892,244.934 513.165,244.934C475.638,244.934 439.856,278.97 439.856,331.77C439.856,370.17 462.11,391.988 494.838,391.988ZM496.583,361.879C483.492,361.879 475.638,350.097 475.638,329.588C475.638,296.861 495.274,275.043 511.42,275.043C524.51,275.043 532.365,286.825 532.365,307.334C532.365,340.061 512.729,361.879 496.583,361.879Z" style="fill:rgb(0,115,197);fill-rule:nonzero;"/>
                <path d="M578.838,316.934C577.529,324.352 575.783,334.388 575.783,340.934C575.783,375.843 593.238,391.988 628.583,391.988C660.874,391.988 679.201,371.479 687.929,326.97L704.074,247.552L670.038,247.552L653.892,327.843C649.092,352.279 642.11,361.879 629.456,361.879C615.056,361.879 610.692,354.461 610.692,340.061C610.692,334.825 611.565,329.588 612.438,323.916L627.71,247.552L592.801,247.552L578.838,316.934Z" style="fill:rgb(0,115,197);fill-rule:nonzero;"/>
                <path d="M692.729,389.37L727.638,389.37L737.238,340.497L751.856,340.497L768.22,389.37L804.874,389.37L783.71,335.043C803.565,327.406 817.965,311.479 817.965,285.079C817.965,257.588 796.147,247.552 767.783,247.552L721.092,247.552L692.729,389.37ZM742.91,313.006L750.329,275.043L762.983,275.043C776.074,275.043 783.492,279.843 783.492,290.316C783.492,303.843 774.329,313.006 755.565,313.006L742.91,313.006Z" style="fill:rgb(0,115,197);fill-rule:nonzero;"/>
            </g>
            <g transform="matrix(0.939693,-0.34202,0.34202,0.939693,-235.905,231.173)">
                <path d="M305.722,389.37L394.23,389.37L399.898,360.158L346.27,360.158L352.374,330.946L396.41,330.946L402.078,301.734L358.042,301.734L362.838,276.882L414.722,276.882L420.39,247.67L334.062,247.67L305.722,389.37Z" style="fill:rgb(0,115,197);fill-rule:nonzero;"/>
                <path d="M404.416,389.37L432.492,389.37L445.044,368.561C448.347,362.946 451.65,357.496 455.283,351.055L455.944,351.055C457.265,357.496 458.586,362.946 459.907,368.561L464.531,389.37L493.928,389.37L476.422,335.2L513.747,282.022L485.671,282.022L475.101,300.849C472.294,305.803 468.825,311.584 465.192,318.355L464.531,318.355C463.045,311.584 461.889,305.803 460.898,300.849L456.934,282.022L427.537,282.022L443.722,334.21L404.416,389.37Z" style="fill:rgb(0,115,197);fill-rule:nonzero;"/>
                <path d="M504.828,389.37L531.253,389.37L538.189,354.358L549.089,354.358C576.009,354.358 599.625,342.797 599.625,311.419C599.625,289.949 582.945,282.022 561.64,282.022L526.298,282.022L504.828,389.37ZM542.483,333.549L548.428,302.831L558.007,302.831C567.751,302.831 573.531,306.794 573.531,315.382C573.531,327.273 565.769,333.549 552.227,333.549L542.483,333.549Z" style="fill:rgb(0,115,197);fill-rule:nonzero;"/>
                <path d="M598.304,389.37L663.704,389.37L667.998,367.24L629.022,367.24L646.198,282.022L619.774,282.022L598.304,389.37Z" style="fill:rgb(0,115,197);fill-rule:nonzero;"/>
                <path d="M712.853,391.352C741.259,391.352 768.344,365.588 768.344,325.622C768.344,296.555 751.499,280.04 726.726,280.04C698.32,280.04 671.235,305.803 671.235,345.77C671.235,374.837 688.08,391.352 712.853,391.352ZM714.174,368.561C704.265,368.561 698.32,359.643 698.32,344.119C698.32,319.346 713.184,302.831 725.405,302.831C735.314,302.831 741.259,311.749 741.259,327.273C741.259,352.046 726.396,368.561 714.174,368.561Z" style="fill:rgb(0,115,197);fill-rule:nonzero;"/>
                <path d="M770.326,389.37L796.75,389.37L804.017,352.376L815.082,352.376L827.468,389.37L855.214,389.37L839.194,348.247C854.223,342.467 865.123,330.411 865.123,310.428C865.123,289.619 848.608,282.022 827.138,282.022L791.796,282.022L770.326,389.37ZM808.311,331.567L813.926,302.831L823.505,302.831C833.414,302.831 839.029,306.464 839.029,314.391C839.029,324.631 832.093,331.567 817.89,331.567L808.311,331.567Z" style="fill:rgb(0,115,197);fill-rule:nonzero;"/>
                <path d="M866.444,389.37L892.868,389.37L914.338,282.022L887.914,282.022L866.444,389.37Z" style="fill:rgb(0,115,197);fill-rule:nonzero;"/>
                <path d="M912.687,389.37L937.79,389.37L944.726,354.688C947.368,341.806 948.359,326.613 949.35,314.391L950.011,314.391L954.965,338.503L969.829,389.37L995.262,389.37L1016.73,282.022L991.629,282.022L984.693,316.373C982.05,329.255 981.39,345.44 980.399,357L979.738,357L974.453,332.888L959.59,282.022L934.156,282.022L912.687,389.37Z" style="fill:rgb(0,115,197);fill-rule:nonzero;"/>
                <path d="M1063.96,391.352C1077.84,391.352 1090.39,386.397 1098.65,380.122L1108.89,326.943L1069.91,326.943L1065.95,348.413L1081.8,348.413L1077.84,366.249C1075.36,367.9 1071.73,368.891 1068.59,368.891C1053.4,368.891 1047.45,359.643 1047.45,344.119C1047.45,320.997 1061.32,302.831 1078.5,302.831C1084.77,302.831 1089.07,305.473 1093.03,311.419L1110.87,297.546C1104.59,286.316 1094.02,280.04 1079.82,280.04C1046.46,280.04 1020.37,307.455 1020.37,345.77C1020.37,374.837 1037.21,391.352 1063.96,391.352Z" style="fill:rgb(0,115,197);fill-rule:nonzero;"/>
            </g>
            <g transform="matrix(0.939693,-0.34202,0.34202,0.939693,-237.581,619.008)">
                <path d="M319.238,316.994C317.93,324.406 316.186,334.434 316.186,340.974C316.186,375.854 333.626,391.986 368.942,391.986C401.206,391.986 419.518,371.494 428.238,327.022L444.37,247.67L410.362,247.67L394.23,327.894C389.434,352.31 382.458,361.902 369.814,361.902C355.426,361.902 351.066,354.49 351.066,340.102C351.066,334.87 351.938,329.638 352.81,323.97L368.07,247.67L333.19,247.67L319.238,316.994Z" style="fill:rgb(0,115,197);fill-rule:nonzero;"/>
                <path d="M439.29,389.37L464.393,389.37L471.329,354.688C473.971,341.806 474.962,326.613 475.953,314.391L476.614,314.391L481.568,338.503L496.432,389.37L521.865,389.37L543.335,282.022L518.232,282.022L511.296,316.373C508.653,329.255 507.993,345.44 507.002,357L506.341,357L501.056,332.888L486.193,282.022L460.759,282.022L439.29,389.37Z" style="fill:rgb(0,115,197);fill-rule:nonzero;"/>
                <path d="M542.014,389.37L568.438,389.37L589.908,282.022L563.484,282.022L542.014,389.37Z" style="fill:rgb(0,115,197);fill-rule:nonzero;"/>
                <path d="M605.762,389.37L637.802,389.37L692.962,282.022L663.896,282.022L642.096,332.228C637.306,343.623 632.682,354.853 627.893,366.249L627.232,366.249C627.232,354.853 626.902,343.458 626.571,332.228L624.59,282.022L596.844,282.022L605.762,389.37Z" style="fill:rgb(0,115,197);fill-rule:nonzero;"/>
                <path d="M678.429,389.37L745.481,389.37L749.774,367.24L709.147,367.24L713.771,345.11L747.132,345.11L751.426,322.979L718.065,322.979L721.699,304.152L761.005,304.152L765.299,282.022L699.899,282.022L678.429,389.37Z" style="fill:rgb(0,115,197);fill-rule:nonzero;"/>
                <path d="M761.996,389.37L788.42,389.37L795.687,352.376L806.752,352.376L819.138,389.37L846.884,389.37L830.864,348.247C845.893,342.467 856.793,330.411 856.793,310.428C856.793,289.619 840.278,282.022 818.808,282.022L783.465,282.022L761.996,389.37ZM799.981,331.567L805.596,302.831L815.174,302.831C825.084,302.831 830.699,306.464 830.699,314.391C830.699,324.631 823.762,331.567 809.559,331.567L799.981,331.567Z" style="fill:rgb(0,115,197);fill-rule:nonzero;"/>
                <path d="M890.404,391.352C916.168,391.352 932.353,375.332 932.353,355.679C932.353,343.128 928.224,336.356 917.819,330.081L907.91,323.97C899.322,318.52 894.698,316.538 894.698,312.079C894.698,306.96 898.497,302.831 906.094,302.831C913.03,302.831 918.48,306.794 923.93,312.244L940.445,296.72C931.692,286.316 919.636,280.04 907.085,280.04C885.285,280.04 867.613,295.399 867.613,314.722C867.613,328.099 873.559,335.861 883.468,342.137L892.716,347.917C900.148,352.541 904.938,354.688 904.938,359.478C904.938,365.423 899.983,368.891 892.386,368.891C884.129,368.891 875.541,363.606 869.926,355.844L851.098,370.708C862.329,385.737 876.697,391.352 890.404,391.352Z" style="fill:rgb(0,115,197);fill-rule:nonzero;"/>
                <path d="M938.959,389.37L1006.01,389.37L1010.3,367.24L969.677,367.24L974.301,345.11L1007.66,345.11L1011.96,322.979L978.595,322.979L982.229,304.152L1021.53,304.152L1025.83,282.022L960.429,282.022L938.959,389.37Z" style="fill:rgb(0,115,197);fill-rule:nonzero;"/>
            </g>
        </g>
    </g>
</svg>
